solid OpenSCAD_Model
  facet normal 1 -0 0
    outer loop
      vertex 60 0 4
      vertex 60 15 0
      vertex 60 15 4
    endloop
  endfacet
  facet normal 1 0 0
    outer loop
      vertex 60 15 0
      vertex 60 0 4
      vertex 60 0 0
    endloop
  endfacet
  facet normal 0 0 1
    outer loop
      vertex 60 15 4
      vertex 30 10.5 4
      vertex 60 0 4
    endloop
  endfacet
  facet normal -0 0 1
    outer loop
      vertex 4 15 4
      vertex 30 10.5 4
      vertex 60 15 4
    endloop
  endfacet
  facet normal 0 0 1
    outer loop
      vertex 10 10.5 4
      vertex 4 15 4
      vertex 10 4.5 4
    endloop
  endfacet
  facet normal 0 0 1
    outer loop
      vertex 30 10.5 4
      vertex 4 15 4
      vertex 10 10.5 4
    endloop
  endfacet
  facet normal -0 0 1
    outer loop
      vertex 30 4.5 4
      vertex 60 0 4
      vertex 30 10.5 4
    endloop
  endfacet
  facet normal 0 0 1
    outer loop
      vertex 4 0 4
      vertex 30 4.5 4
      vertex 10 4.5 4
    endloop
  endfacet
  facet normal 0 0 1
    outer loop
      vertex 30 4.5 4
      vertex 4 0 4
      vertex 60 0 4
    endloop
  endfacet
  facet normal 0 0 1
    outer loop
      vertex 4 0 4
      vertex 10 4.5 4
      vertex 4 15 4
    endloop
  endfacet
  facet normal 0 0 -1
    outer loop
      vertex 0 0 0
      vertex 60 15 0
      vertex 60 0 0
    endloop
  endfacet
  facet normal -0 0 -1
    outer loop
      vertex 60 15 0
      vertex 0 0 0
      vertex 0 15 0
    endloop
  endfacet
  facet normal -1 0 0
    outer loop
      vertex 0 0 0
      vertex 0 15 54
      vertex 0 15 0
    endloop
  endfacet
  facet normal -1 -0 0
    outer loop
      vertex 0 15 54
      vertex 0 0 0
      vertex 0 0 54
    endloop
  endfacet
  facet normal 0 1 0
    outer loop
      vertex 60 15 4
      vertex 60 15 0
      vertex 4 15 4
    endloop
  endfacet
  facet normal 0 1 -0
    outer loop
      vertex 4 15 4
      vertex 0 15 54
      vertex 4 15 54
    endloop
  endfacet
  facet normal 0 1 0
    outer loop
      vertex 4 15 4
      vertex 0 15 0
      vertex 0 15 54
    endloop
  endfacet
  facet normal 0 1 0
    outer loop
      vertex 0 15 0
      vertex 4 15 4
      vertex 60 15 0
    endloop
  endfacet
  facet normal 0 -1 0
    outer loop
      vertex 0 0 54
      vertex 4 0 4
      vertex 4 0 54
    endloop
  endfacet
  facet normal 0 -1 0
    outer loop
      vertex 0 0 0
      vertex 4 0 4
      vertex 0 0 54
    endloop
  endfacet
  facet normal 0 -1 0
    outer loop
      vertex 60 0 0
      vertex 4 0 4
      vertex 0 0 0
    endloop
  endfacet
  facet normal 0 -1 0
    outer loop
      vertex 4 0 4
      vertex 60 0 0
      vertex 60 0 4
    endloop
  endfacet
  facet normal 1 -0 0
    outer loop
      vertex 4 0 54
      vertex 4 15 4
      vertex 4 15 54
    endloop
  endfacet
  facet normal 1 0 0
    outer loop
      vertex 4 15 4
      vertex 4 0 54
      vertex 4 0 4
    endloop
  endfacet
  facet normal -0 0 1
    outer loop
      vertex 0 15 54
      vertex 4 0 54
      vertex 4 15 54
    endloop
  endfacet
  facet normal 0 0 1
    outer loop
      vertex 4 0 54
      vertex 0 15 54
      vertex 0 0 54
    endloop
  endfacet
  facet normal -0.844383 0 -0.53574
    outer loop
      vertex 41.7639 1.5 -8.35114
      vertex 41.4948 7.5 -7.92701
      vertex 41.7639 7.5 -8.35114
    endloop
  endfacet
  facet normal -0.844383 -0 -0.53574
    outer loop
      vertex 41.4948 7.5 -7.92701
      vertex 41.7639 1.5 -8.35114
      vertex 41.4948 1.5 -7.92701
    endloop
  endfacet
  facet normal -0.98226 0 -0.187522
    outer loop
      vertex 41.1257 1.5 -6.99476
      vertex 41.0315 7.5 -6.50133
      vertex 41.1257 7.5 -6.99476
    endloop
  endfacet
  facet normal -0.98226 -0 -0.187522
    outer loop
      vertex 41.0315 7.5 -6.50133
      vertex 41.1257 1.5 -6.99476
      vertex 41.0315 1.5 -6.50133
    endloop
  endfacet
  facet normal -0.98226 0 0.187522
    outer loop
      vertex 41.0315 1.5 -5.49867
      vertex 41.1257 7.5 -5.00524
      vertex 41.0315 7.5 -5.49867
    endloop
  endfacet
  facet normal -0.98226 0 0.187522
    outer loop
      vertex 41.1257 7.5 -5.00524
      vertex 41.0315 1.5 -5.49867
      vertex 41.1257 1.5 -5.00524
    endloop
  endfacet
  facet normal 0.904812 -0 0.42581
    outer loop
      vertex 48.5052 1.5 -4.07298
      vertex 48.7191 7.5 -4.5275
      vertex 48.5052 7.5 -4.07298
    endloop
  endfacet
  facet normal 0.904812 0 0.42581
    outer loop
      vertex 48.7191 7.5 -4.5275
      vertex 48.5052 1.5 -4.07298
      vertex 48.7191 1.5 -4.5275
    endloop
  endfacet
  facet normal -0.368162 0 0.929762
    outer loop
      vertex 43.2969 7.5 -2.38069
      vertex 43.7639 1.5 -2.19577
      vertex 43.7639 7.5 -2.19577
    endloop
  endfacet
  facet normal -0.368162 0 0.929762
    outer loop
      vertex 43.7639 1.5 -2.19577
      vertex 43.2969 7.5 -2.38069
      vertex 43.2969 1.5 -2.38069
    endloop
  endfacet
  facet normal 0.998032 0 -0.0627092
    outer loop
      vertex 49 1.5 -6
      vertex 48.9685 7.5 -6.50133
      vertex 49 7.5 -6
    endloop
  endfacet
  facet normal 0.998032 0 -0.0627092
    outer loop
      vertex 48.9685 7.5 -6.50133
      vertex 49 1.5 -6
      vertex 48.9685 1.5 -6.50133
    endloop
  endfacet
  facet normal 0.125353 0 0.992112
    outer loop
      vertex 45.2512 7.5 -2.00789
      vertex 45.7495 1.5 -2.07085
      vertex 45.7495 7.5 -2.07085
    endloop
  endfacet
  facet normal 0.125353 0 0.992112
    outer loop
      vertex 45.7495 1.5 -2.07085
      vertex 45.2512 7.5 -2.00789
      vertex 45.2512 1.5 -2.00789
    endloop
  endfacet
  facet normal -0.125353 0 0.992112
    outer loop
      vertex 44.2505 7.5 -2.07085
      vertex 44.7488 1.5 -2.00789
      vertex 44.7488 7.5 -2.00789
    endloop
  endfacet
  facet normal -0.125353 0 0.992112
    outer loop
      vertex 44.7488 1.5 -2.00789
      vertex 44.2505 7.5 -2.07085
      vertex 44.2505 1.5 -2.07085
    endloop
  endfacet
  facet normal 0 0 -1
    outer loop
      vertex 44.7488 1.5 -9.99211
      vertex 45.2512 7.5 -9.99211
      vertex 45.2512 1.5 -9.99211
    endloop
  endfacet
  facet normal -0 0 -1
    outer loop
      vertex 45.2512 7.5 -9.99211
      vertex 44.7488 1.5 -9.99211
      vertex 44.7488 7.5 -9.99211
    endloop
  endfacet
  facet normal 0.248657 0 -0.968592
    outer loop
      vertex 45.7495 1.5 -9.92915
      vertex 46.2361 7.5 -9.80423
      vertex 46.2361 1.5 -9.80423
    endloop
  endfacet
  facet normal 0.248657 0 -0.968592
    outer loop
      vertex 46.2361 7.5 -9.80423
      vertex 45.7495 1.5 -9.92915
      vertex 45.7495 7.5 -9.92915
    endloop
  endfacet
  facet normal 0.951072 -0 0.308968
    outer loop
      vertex 48.7191 1.5 -4.5275
      vertex 48.8743 7.5 -5.00524
      vertex 48.7191 7.5 -4.5275
    endloop
  endfacet
  facet normal 0.951072 0 0.308968
    outer loop
      vertex 48.8743 7.5 -5.00524
      vertex 48.7191 1.5 -4.5275
      vertex 48.8743 1.5 -5.00524
    endloop
  endfacet
  facet normal 0.998032 -0 0.0627092
    outer loop
      vertex 48.9685 1.5 -5.49867
      vertex 49 7.5 -6
      vertex 48.9685 7.5 -5.49867
    endloop
  endfacet
  facet normal 0.998032 0 0.0627092
    outer loop
      vertex 49 7.5 -6
      vertex 48.9685 1.5 -5.49867
      vertex 49 1.5 -6
    endloop
  endfacet
  facet normal 0.481751 0 0.876308
    outer loop
      vertex 46.7031 7.5 -2.38069
      vertex 47.1433 1.5 -2.62269
      vertex 47.1433 7.5 -2.62269
    endloop
  endfacet
  facet normal 0.481751 0 0.876308
    outer loop
      vertex 47.1433 1.5 -2.62269
      vertex 46.7031 7.5 -2.38069
      vertex 46.7031 1.5 -2.38069
    endloop
  endfacet
  facet normal 0 1 0
    outer loop
      vertex 45.7495 7.5 -2.07085
      vertex 44.7488 7.5 -2.00789
      vertex 45.2512 7.5 -2.00789
    endloop
  endfacet
  facet normal 0 1 0
    outer loop
      vertex 45.7495 7.5 -2.07085
      vertex 44.2505 7.5 -2.07085
      vertex 44.7488 7.5 -2.00789
    endloop
  endfacet
  facet normal 0 1 0
    outer loop
      vertex 46.2361 7.5 -2.19577
      vertex 44.2505 7.5 -2.07085
      vertex 45.7495 7.5 -2.07085
    endloop
  endfacet
  facet normal 0 1 0
    outer loop
      vertex 46.2361 7.5 -2.19577
      vertex 43.7639 7.5 -2.19577
      vertex 44.2505 7.5 -2.07085
    endloop
  endfacet
  facet normal 0 1 0
    outer loop
      vertex 46.7031 7.5 -2.38069
      vertex 43.7639 7.5 -2.19577
      vertex 46.2361 7.5 -2.19577
    endloop
  endfacet
  facet normal 0 1 0
    outer loop
      vertex 46.7031 7.5 -2.38069
      vertex 43.2969 7.5 -2.38069
      vertex 43.7639 7.5 -2.19577
    endloop
  endfacet
  facet normal 0 1 0
    outer loop
      vertex 47.1433 7.5 -2.62269
      vertex 43.2969 7.5 -2.38069
      vertex 46.7031 7.5 -2.38069
    endloop
  endfacet
  facet normal 0 1 0
    outer loop
      vertex 47.1433 7.5 -2.62269
      vertex 42.8567 7.5 -2.62269
      vertex 43.2969 7.5 -2.38069
    endloop
  endfacet
  facet normal 0 1 0
    outer loop
      vertex 47.5497 7.5 -2.91795
      vertex 42.8567 7.5 -2.62269
      vertex 47.1433 7.5 -2.62269
    endloop
  endfacet
  facet normal 0 1 0
    outer loop
      vertex 47.5497 7.5 -2.91795
      vertex 42.4503 7.5 -2.91795
      vertex 42.8567 7.5 -2.62269
    endloop
  endfacet
  facet normal 0 1 0
    outer loop
      vertex 47.9159 7.5 -3.26181
      vertex 42.4503 7.5 -2.91795
      vertex 47.5497 7.5 -2.91795
    endloop
  endfacet
  facet normal 0 1 0
    outer loop
      vertex 47.9159 7.5 -3.26181
      vertex 42.0841 7.5 -3.26181
      vertex 42.4503 7.5 -2.91795
    endloop
  endfacet
  facet normal 0 1 0
    outer loop
      vertex 48.2361 7.5 -3.64886
      vertex 42.0841 7.5 -3.26181
      vertex 47.9159 7.5 -3.26181
    endloop
  endfacet
  facet normal 0 1 0
    outer loop
      vertex 48.2361 7.5 -3.64886
      vertex 41.7639 7.5 -3.64886
      vertex 42.0841 7.5 -3.26181
    endloop
  endfacet
  facet normal 0 1 0
    outer loop
      vertex 48.5052 7.5 -4.07298
      vertex 41.7639 7.5 -3.64886
      vertex 48.2361 7.5 -3.64886
    endloop
  endfacet
  facet normal 0 1 0
    outer loop
      vertex 48.5052 7.5 -4.07298
      vertex 41.4948 7.5 -4.07298
      vertex 41.7639 7.5 -3.64886
    endloop
  endfacet
  facet normal 0 1 0
    outer loop
      vertex 48.7191 7.5 -4.5275
      vertex 41.4948 7.5 -4.07298
      vertex 48.5052 7.5 -4.07298
    endloop
  endfacet
  facet normal 0 1 0
    outer loop
      vertex 48.7191 7.5 -4.5275
      vertex 41.2809 7.5 -4.5275
      vertex 41.4948 7.5 -4.07298
    endloop
  endfacet
  facet normal 0 1 0
    outer loop
      vertex 48.8743 7.5 -5.00524
      vertex 41.2809 7.5 -4.5275
      vertex 48.7191 7.5 -4.5275
    endloop
  endfacet
  facet normal 0 1 0
    outer loop
      vertex 48.8743 7.5 -5.00524
      vertex 41.1257 7.5 -5.00524
      vertex 41.2809 7.5 -4.5275
    endloop
  endfacet
  facet normal 0 1 0
    outer loop
      vertex 48.9685 7.5 -5.49867
      vertex 41.1257 7.5 -5.00524
      vertex 48.8743 7.5 -5.00524
    endloop
  endfacet
  facet normal 0 1 0
    outer loop
      vertex 48.9685 7.5 -5.49867
      vertex 41.0315 7.5 -5.49867
      vertex 41.1257 7.5 -5.00524
    endloop
  endfacet
  facet normal 0 1 0
    outer loop
      vertex 49 7.5 -6
      vertex 41.0315 7.5 -5.49867
      vertex 48.9685 7.5 -5.49867
    endloop
  endfacet
  facet normal 0 1 0
    outer loop
      vertex 49 7.5 -6
      vertex 41 7.5 -6
      vertex 41.0315 7.5 -5.49867
    endloop
  endfacet
  facet normal 0 1 -0
    outer loop
      vertex 48.9685 7.5 -6.50133
      vertex 41 7.5 -6
      vertex 49 7.5 -6
    endloop
  endfacet
  facet normal 0 1 0
    outer loop
      vertex 48.9685 7.5 -6.50133
      vertex 41.0315 7.5 -6.50133
      vertex 41 7.5 -6
    endloop
  endfacet
  facet normal 0 1 -0
    outer loop
      vertex 48.8743 7.5 -6.99476
      vertex 41.0315 7.5 -6.50133
      vertex 48.9685 7.5 -6.50133
    endloop
  endfacet
  facet normal 0 1 0
    outer loop
      vertex 48.8743 7.5 -6.99476
      vertex 41.1257 7.5 -6.99476
      vertex 41.0315 7.5 -6.50133
    endloop
  endfacet
  facet normal 0 1 -0
    outer loop
      vertex 48.7191 7.5 -7.4725
      vertex 41.1257 7.5 -6.99476
      vertex 48.8743 7.5 -6.99476
    endloop
  endfacet
  facet normal 0 1 0
    outer loop
      vertex 48.7191 7.5 -7.4725
      vertex 41.2809 7.5 -7.4725
      vertex 41.1257 7.5 -6.99476
    endloop
  endfacet
  facet normal 0 1 -0
    outer loop
      vertex 48.5052 7.5 -7.92701
      vertex 41.2809 7.5 -7.4725
      vertex 48.7191 7.5 -7.4725
    endloop
  endfacet
  facet normal 0 1 0
    outer loop
      vertex 48.5052 7.5 -7.92701
      vertex 41.4948 7.5 -7.92701
      vertex 41.2809 7.5 -7.4725
    endloop
  endfacet
  facet normal 0 1 -0
    outer loop
      vertex 48.2361 7.5 -8.35114
      vertex 41.4948 7.5 -7.92701
      vertex 48.5052 7.5 -7.92701
    endloop
  endfacet
  facet normal 0 1 0
    outer loop
      vertex 48.2361 7.5 -8.35114
      vertex 41.7639 7.5 -8.35114
      vertex 41.4948 7.5 -7.92701
    endloop
  endfacet
  facet normal 0 1 -0
    outer loop
      vertex 47.9159 7.5 -8.73819
      vertex 41.7639 7.5 -8.35114
      vertex 48.2361 7.5 -8.35114
    endloop
  endfacet
  facet normal 0 1 0
    outer loop
      vertex 47.9159 7.5 -8.73819
      vertex 42.0841 7.5 -8.73819
      vertex 41.7639 7.5 -8.35114
    endloop
  endfacet
  facet normal 0 1 -0
    outer loop
      vertex 47.5497 7.5 -9.08205
      vertex 42.0841 7.5 -8.73819
      vertex 47.9159 7.5 -8.73819
    endloop
  endfacet
  facet normal 0 1 0
    outer loop
      vertex 47.5497 7.5 -9.08205
      vertex 42.4503 7.5 -9.08205
      vertex 42.0841 7.5 -8.73819
    endloop
  endfacet
  facet normal 0 1 -0
    outer loop
      vertex 47.1433 7.5 -9.37731
      vertex 42.4503 7.5 -9.08205
      vertex 47.5497 7.5 -9.08205
    endloop
  endfacet
  facet normal 0 1 0
    outer loop
      vertex 47.1433 7.5 -9.37731
      vertex 42.8567 7.5 -9.37731
      vertex 42.4503 7.5 -9.08205
    endloop
  endfacet
  facet normal 0 1 -0
    outer loop
      vertex 46.7031 7.5 -9.61931
      vertex 42.8567 7.5 -9.37731
      vertex 47.1433 7.5 -9.37731
    endloop
  endfacet
  facet normal 0 1 0
    outer loop
      vertex 46.7031 7.5 -9.61931
      vertex 43.2969 7.5 -9.61931
      vertex 42.8567 7.5 -9.37731
    endloop
  endfacet
  facet normal 0 1 -0
    outer loop
      vertex 46.2361 7.5 -9.80423
      vertex 43.2969 7.5 -9.61931
      vertex 46.7031 7.5 -9.61931
    endloop
  endfacet
  facet normal 0 1 0
    outer loop
      vertex 46.2361 7.5 -9.80423
      vertex 43.7639 7.5 -9.80423
      vertex 43.2969 7.5 -9.61931
    endloop
  endfacet
  facet normal 0 1 -0
    outer loop
      vertex 45.7495 7.5 -9.92915
      vertex 43.7639 7.5 -9.80423
      vertex 46.2361 7.5 -9.80423
    endloop
  endfacet
  facet normal 0 1 0
    outer loop
      vertex 45.7495 7.5 -9.92915
      vertex 44.2505 7.5 -9.92915
      vertex 43.7639 7.5 -9.80423
    endloop
  endfacet
  facet normal 0 1 -0
    outer loop
      vertex 45.2512 7.5 -9.99211
      vertex 44.2505 7.5 -9.92915
      vertex 45.7495 7.5 -9.92915
    endloop
  endfacet
  facet normal 0 1 0
    outer loop
      vertex 44.2505 7.5 -9.92915
      vertex 45.2512 7.5 -9.99211
      vertex 44.7488 7.5 -9.99211
    endloop
  endfacet
  facet normal 0.684521 0 0.728993
    outer loop
      vertex 47.5497 7.5 -2.91795
      vertex 47.9159 1.5 -3.26181
      vertex 47.9159 7.5 -3.26181
    endloop
  endfacet
  facet normal 0.684521 0 0.728993
    outer loop
      vertex 47.9159 1.5 -3.26181
      vertex 47.5497 7.5 -2.91795
      vertex 47.5497 1.5 -2.91795
    endloop
  endfacet
  facet normal -0.951072 0 -0.308968
    outer loop
      vertex 41.2809 1.5 -7.4725
      vertex 41.1257 7.5 -6.99476
      vertex 41.2809 7.5 -7.4725
    endloop
  endfacet
  facet normal -0.951072 -0 -0.308968
    outer loop
      vertex 41.1257 7.5 -6.99476
      vertex 41.2809 1.5 -7.4725
      vertex 41.1257 1.5 -6.99476
    endloop
  endfacet
  facet normal -0.587776 0 0.809024
    outer loop
      vertex 42.4503 7.5 -2.91795
      vertex 42.8567 1.5 -2.62269
      vertex 42.8567 7.5 -2.62269
    endloop
  endfacet
  facet normal -0.587776 0 0.809024
    outer loop
      vertex 42.8567 1.5 -2.62269
      vertex 42.4503 7.5 -2.91795
      vertex 42.4503 1.5 -2.91795
    endloop
  endfacet
  facet normal 0.98226 -0 0.187522
    outer loop
      vertex 48.8743 1.5 -5.00524
      vertex 48.9685 7.5 -5.49867
      vertex 48.8743 7.5 -5.00524
    endloop
  endfacet
  facet normal 0.98226 0 0.187522
    outer loop
      vertex 48.9685 7.5 -5.49867
      vertex 48.8743 1.5 -5.00524
      vertex 48.9685 1.5 -5.49867
    endloop
  endfacet
  facet normal 0.368162 0 -0.929762
    outer loop
      vertex 46.2361 1.5 -9.80423
      vertex 46.7031 7.5 -9.61931
      vertex 46.7031 1.5 -9.61931
    endloop
  endfacet
  facet normal 0.368162 0 -0.929762
    outer loop
      vertex 46.7031 7.5 -9.61931
      vertex 46.2361 1.5 -9.80423
      vertex 46.2361 7.5 -9.80423
    endloop
  endfacet
  facet normal -0.481751 0 0.876308
    outer loop
      vertex 42.8567 7.5 -2.62269
      vertex 43.2969 1.5 -2.38069
      vertex 43.2969 7.5 -2.38069
    endloop
  endfacet
  facet normal -0.481751 0 0.876308
    outer loop
      vertex 43.2969 1.5 -2.38069
      vertex 42.8567 7.5 -2.62269
      vertex 42.8567 1.5 -2.62269
    endloop
  endfacet
  facet normal -0.248657 0 0.968592
    outer loop
      vertex 43.7639 7.5 -2.19577
      vertex 44.2505 1.5 -2.07085
      vertex 44.2505 7.5 -2.07085
    endloop
  endfacet
  facet normal -0.248657 0 0.968592
    outer loop
      vertex 44.2505 1.5 -2.07085
      vertex 43.7639 7.5 -2.19577
      vertex 43.7639 1.5 -2.19577
    endloop
  endfacet
  facet normal -0.481751 0 -0.876308
    outer loop
      vertex 42.8567 1.5 -9.37731
      vertex 43.2969 7.5 -9.61931
      vertex 43.2969 1.5 -9.61931
    endloop
  endfacet
  facet normal -0.481751 0 -0.876308
    outer loop
      vertex 43.2969 7.5 -9.61931
      vertex 42.8567 1.5 -9.37731
      vertex 42.8567 7.5 -9.37731
    endloop
  endfacet
  facet normal 0.844383 0 -0.53574
    outer loop
      vertex 48.5052 1.5 -7.92701
      vertex 48.2361 7.5 -8.35114
      vertex 48.5052 7.5 -7.92701
    endloop
  endfacet
  facet normal 0.844383 0 -0.53574
    outer loop
      vertex 48.2361 7.5 -8.35114
      vertex 48.5052 1.5 -7.92701
      vertex 48.2361 1.5 -8.35114
    endloop
  endfacet
  facet normal -0.770509 0 0.637429
    outer loop
      vertex 41.7639 1.5 -3.64886
      vertex 42.0841 7.5 -3.26181
      vertex 41.7639 7.5 -3.64886
    endloop
  endfacet
  facet normal -0.770509 0 0.637429
    outer loop
      vertex 42.0841 7.5 -3.26181
      vertex 41.7639 1.5 -3.64886
      vertex 42.0841 1.5 -3.26181
    endloop
  endfacet
  facet normal -0.904809 0 -0.425818
    outer loop
      vertex 41.4948 1.5 -7.92701
      vertex 41.2809 7.5 -7.4725
      vertex 41.4948 7.5 -7.92701
    endloop
  endfacet
  facet normal -0.904809 -0 -0.425818
    outer loop
      vertex 41.2809 7.5 -7.4725
      vertex 41.4948 1.5 -7.92701
      vertex 41.2809 1.5 -7.4725
    endloop
  endfacet
  facet normal -0.587776 0 -0.809024
    outer loop
      vertex 42.4503 1.5 -9.08205
      vertex 42.8567 7.5 -9.37731
      vertex 42.8567 1.5 -9.37731
    endloop
  endfacet
  facet normal -0.587776 0 -0.809024
    outer loop
      vertex 42.8567 7.5 -9.37731
      vertex 42.4503 1.5 -9.08205
      vertex 42.4503 7.5 -9.08205
    endloop
  endfacet
  facet normal 0.951072 0 -0.308968
    outer loop
      vertex 48.8743 1.5 -6.99476
      vertex 48.7191 7.5 -7.4725
      vertex 48.8743 7.5 -6.99476
    endloop
  endfacet
  facet normal 0.951072 0 -0.308968
    outer loop
      vertex 48.7191 7.5 -7.4725
      vertex 48.8743 1.5 -6.99476
      vertex 48.7191 1.5 -7.4725
    endloop
  endfacet
  facet normal 0.684521 0 -0.728993
    outer loop
      vertex 47.5497 1.5 -9.08205
      vertex 47.9159 7.5 -8.73819
      vertex 47.9159 1.5 -8.73819
    endloop
  endfacet
  facet normal 0.684521 0 -0.728993
    outer loop
      vertex 47.9159 7.5 -8.73819
      vertex 47.5497 1.5 -9.08205
      vertex 47.5497 7.5 -9.08205
    endloop
  endfacet
  facet normal 0.770509 -0 0.637429
    outer loop
      vertex 47.9159 1.5 -3.26181
      vertex 48.2361 7.5 -3.64886
      vertex 47.9159 7.5 -3.26181
    endloop
  endfacet
  facet normal 0.770509 0 0.637429
    outer loop
      vertex 48.2361 7.5 -3.64886
      vertex 47.9159 1.5 -3.26181
      vertex 48.2361 1.5 -3.64886
    endloop
  endfacet
  facet normal -0.125353 0 -0.992112
    outer loop
      vertex 44.2505 1.5 -9.92915
      vertex 44.7488 7.5 -9.99211
      vertex 44.7488 1.5 -9.99211
    endloop
  endfacet
  facet normal -0.125353 0 -0.992112
    outer loop
      vertex 44.7488 7.5 -9.99211
      vertex 44.2505 1.5 -9.92915
      vertex 44.2505 7.5 -9.92915
    endloop
  endfacet
  facet normal 0.248657 0 0.968592
    outer loop
      vertex 45.7495 7.5 -2.07085
      vertex 46.2361 1.5 -2.19577
      vertex 46.2361 7.5 -2.19577
    endloop
  endfacet
  facet normal 0.248657 0 0.968592
    outer loop
      vertex 46.2361 1.5 -2.19577
      vertex 45.7495 7.5 -2.07085
      vertex 45.7495 1.5 -2.07085
    endloop
  endfacet
  facet normal -0.770509 0 -0.637429
    outer loop
      vertex 42.0841 1.5 -8.73819
      vertex 41.7639 7.5 -8.35114
      vertex 42.0841 7.5 -8.73819
    endloop
  endfacet
  facet normal -0.770509 -0 -0.637429
    outer loop
      vertex 41.7639 7.5 -8.35114
      vertex 42.0841 1.5 -8.73819
      vertex 41.7639 1.5 -8.35114
    endloop
  endfacet
  facet normal 0.125353 0 -0.992112
    outer loop
      vertex 45.2512 1.5 -9.99211
      vertex 45.7495 7.5 -9.92915
      vertex 45.7495 1.5 -9.92915
    endloop
  endfacet
  facet normal 0.125353 0 -0.992112
    outer loop
      vertex 45.7495 7.5 -9.92915
      vertex 45.2512 1.5 -9.99211
      vertex 45.2512 7.5 -9.99211
    endloop
  endfacet
  facet normal 0 -1 0
    outer loop
      vertex 44.2505 1.5 -2.07085
      vertex 45.2512 1.5 -2.00789
      vertex 44.7488 1.5 -2.00789
    endloop
  endfacet
  facet normal 0 -1 0
    outer loop
      vertex 44.2505 1.5 -2.07085
      vertex 45.7495 1.5 -2.07085
      vertex 45.2512 1.5 -2.00789
    endloop
  endfacet
  facet normal 0 -1 0
    outer loop
      vertex 43.7639 1.5 -2.19577
      vertex 45.7495 1.5 -2.07085
      vertex 44.2505 1.5 -2.07085
    endloop
  endfacet
  facet normal 0 -1 0
    outer loop
      vertex 43.7639 1.5 -2.19577
      vertex 46.2361 1.5 -2.19577
      vertex 45.7495 1.5 -2.07085
    endloop
  endfacet
  facet normal 0 -1 0
    outer loop
      vertex 43.2969 1.5 -2.38069
      vertex 46.2361 1.5 -2.19577
      vertex 43.7639 1.5 -2.19577
    endloop
  endfacet
  facet normal 0 -1 0
    outer loop
      vertex 43.2969 1.5 -2.38069
      vertex 46.7031 1.5 -2.38069
      vertex 46.2361 1.5 -2.19577
    endloop
  endfacet
  facet normal 0 -1 0
    outer loop
      vertex 42.8567 1.5 -2.62269
      vertex 46.7031 1.5 -2.38069
      vertex 43.2969 1.5 -2.38069
    endloop
  endfacet
  facet normal 0 -1 0
    outer loop
      vertex 42.8567 1.5 -2.62269
      vertex 47.1433 1.5 -2.62269
      vertex 46.7031 1.5 -2.38069
    endloop
  endfacet
  facet normal 0 -1 0
    outer loop
      vertex 42.4503 1.5 -2.91795
      vertex 47.1433 1.5 -2.62269
      vertex 42.8567 1.5 -2.62269
    endloop
  endfacet
  facet normal 0 -1 0
    outer loop
      vertex 42.4503 1.5 -2.91795
      vertex 47.5497 1.5 -2.91795
      vertex 47.1433 1.5 -2.62269
    endloop
  endfacet
  facet normal 0 -1 0
    outer loop
      vertex 42.0841 1.5 -3.26181
      vertex 47.5497 1.5 -2.91795
      vertex 42.4503 1.5 -2.91795
    endloop
  endfacet
  facet normal 0 -1 0
    outer loop
      vertex 42.0841 1.5 -3.26181
      vertex 47.9159 1.5 -3.26181
      vertex 47.5497 1.5 -2.91795
    endloop
  endfacet
  facet normal 0 -1 0
    outer loop
      vertex 41.7639 1.5 -3.64886
      vertex 47.9159 1.5 -3.26181
      vertex 42.0841 1.5 -3.26181
    endloop
  endfacet
  facet normal 0 -1 0
    outer loop
      vertex 41.7639 1.5 -3.64886
      vertex 48.2361 1.5 -3.64886
      vertex 47.9159 1.5 -3.26181
    endloop
  endfacet
  facet normal 0 -1 0
    outer loop
      vertex 41.4948 1.5 -4.07298
      vertex 48.2361 1.5 -3.64886
      vertex 41.7639 1.5 -3.64886
    endloop
  endfacet
  facet normal 0 -1 0
    outer loop
      vertex 41.4948 1.5 -4.07298
      vertex 48.5052 1.5 -4.07298
      vertex 48.2361 1.5 -3.64886
    endloop
  endfacet
  facet normal 0 -1 0
    outer loop
      vertex 41.2809 1.5 -4.5275
      vertex 48.5052 1.5 -4.07298
      vertex 41.4948 1.5 -4.07298
    endloop
  endfacet
  facet normal 0 -1 0
    outer loop
      vertex 41.2809 1.5 -4.5275
      vertex 48.7191 1.5 -4.5275
      vertex 48.5052 1.5 -4.07298
    endloop
  endfacet
  facet normal 0 -1 0
    outer loop
      vertex 41.1257 1.5 -5.00524
      vertex 48.7191 1.5 -4.5275
      vertex 41.2809 1.5 -4.5275
    endloop
  endfacet
  facet normal 0 -1 0
    outer loop
      vertex 41.1257 1.5 -5.00524
      vertex 48.8743 1.5 -5.00524
      vertex 48.7191 1.5 -4.5275
    endloop
  endfacet
  facet normal 0 -1 0
    outer loop
      vertex 41.0315 1.5 -5.49867
      vertex 48.8743 1.5 -5.00524
      vertex 41.1257 1.5 -5.00524
    endloop
  endfacet
  facet normal 0 -1 0
    outer loop
      vertex 41.0315 1.5 -5.49867
      vertex 48.9685 1.5 -5.49867
      vertex 48.8743 1.5 -5.00524
    endloop
  endfacet
  facet normal 0 -1 0
    outer loop
      vertex 41 1.5 -6
      vertex 48.9685 1.5 -5.49867
      vertex 41.0315 1.5 -5.49867
    endloop
  endfacet
  facet normal 0 -1 0
    outer loop
      vertex 41 1.5 -6
      vertex 49 1.5 -6
      vertex 48.9685 1.5 -5.49867
    endloop
  endfacet
  facet normal 0 -1 0
    outer loop
      vertex 41.0315 1.5 -6.50133
      vertex 49 1.5 -6
      vertex 41 1.5 -6
    endloop
  endfacet
  facet normal 0 -1 0
    outer loop
      vertex 41.0315 1.5 -6.50133
      vertex 48.9685 1.5 -6.50133
      vertex 49 1.5 -6
    endloop
  endfacet
  facet normal 0 -1 0
    outer loop
      vertex 41.1257 1.5 -6.99476
      vertex 48.9685 1.5 -6.50133
      vertex 41.0315 1.5 -6.50133
    endloop
  endfacet
  facet normal 0 -1 0
    outer loop
      vertex 41.1257 1.5 -6.99476
      vertex 48.8743 1.5 -6.99476
      vertex 48.9685 1.5 -6.50133
    endloop
  endfacet
  facet normal 0 -1 0
    outer loop
      vertex 41.2809 1.5 -7.4725
      vertex 48.8743 1.5 -6.99476
      vertex 41.1257 1.5 -6.99476
    endloop
  endfacet
  facet normal 0 -1 0
    outer loop
      vertex 41.2809 1.5 -7.4725
      vertex 48.7191 1.5 -7.4725
      vertex 48.8743 1.5 -6.99476
    endloop
  endfacet
  facet normal 0 -1 0
    outer loop
      vertex 41.4948 1.5 -7.92701
      vertex 48.7191 1.5 -7.4725
      vertex 41.2809 1.5 -7.4725
    endloop
  endfacet
  facet normal 0 -1 0
    outer loop
      vertex 41.4948 1.5 -7.92701
      vertex 48.5052 1.5 -7.92701
      vertex 48.7191 1.5 -7.4725
    endloop
  endfacet
  facet normal 0 -1 0
    outer loop
      vertex 41.7639 1.5 -8.35114
      vertex 48.5052 1.5 -7.92701
      vertex 41.4948 1.5 -7.92701
    endloop
  endfacet
  facet normal 0 -1 0
    outer loop
      vertex 41.7639 1.5 -8.35114
      vertex 48.2361 1.5 -8.35114
      vertex 48.5052 1.5 -7.92701
    endloop
  endfacet
  facet normal 0 -1 0
    outer loop
      vertex 42.0841 1.5 -8.73819
      vertex 48.2361 1.5 -8.35114
      vertex 41.7639 1.5 -8.35114
    endloop
  endfacet
  facet normal 0 -1 0
    outer loop
      vertex 42.0841 1.5 -8.73819
      vertex 47.9159 1.5 -8.73819
      vertex 48.2361 1.5 -8.35114
    endloop
  endfacet
  facet normal 0 -1 0
    outer loop
      vertex 42.4503 1.5 -9.08205
      vertex 47.9159 1.5 -8.73819
      vertex 42.0841 1.5 -8.73819
    endloop
  endfacet
  facet normal 0 -1 0
    outer loop
      vertex 42.4503 1.5 -9.08205
      vertex 47.5497 1.5 -9.08205
      vertex 47.9159 1.5 -8.73819
    endloop
  endfacet
  facet normal 0 -1 0
    outer loop
      vertex 42.8567 1.5 -9.37731
      vertex 47.5497 1.5 -9.08205
      vertex 42.4503 1.5 -9.08205
    endloop
  endfacet
  facet normal 0 -1 0
    outer loop
      vertex 42.8567 1.5 -9.37731
      vertex 47.1433 1.5 -9.37731
      vertex 47.5497 1.5 -9.08205
    endloop
  endfacet
  facet normal 0 -1 0
    outer loop
      vertex 43.2969 1.5 -9.61931
      vertex 47.1433 1.5 -9.37731
      vertex 42.8567 1.5 -9.37731
    endloop
  endfacet
  facet normal 0 -1 0
    outer loop
      vertex 43.2969 1.5 -9.61931
      vertex 46.7031 1.5 -9.61931
      vertex 47.1433 1.5 -9.37731
    endloop
  endfacet
  facet normal 0 -1 0
    outer loop
      vertex 43.7639 1.5 -9.80423
      vertex 46.7031 1.5 -9.61931
      vertex 43.2969 1.5 -9.61931
    endloop
  endfacet
  facet normal 0 -1 0
    outer loop
      vertex 43.7639 1.5 -9.80423
      vertex 46.2361 1.5 -9.80423
      vertex 46.7031 1.5 -9.61931
    endloop
  endfacet
  facet normal 0 -1 0
    outer loop
      vertex 44.2505 1.5 -9.92915
      vertex 46.2361 1.5 -9.80423
      vertex 43.7639 1.5 -9.80423
    endloop
  endfacet
  facet normal 0 -1 0
    outer loop
      vertex 44.2505 1.5 -9.92915
      vertex 45.7495 1.5 -9.92915
      vertex 46.2361 1.5 -9.80423
    endloop
  endfacet
  facet normal 0 -1 0
    outer loop
      vertex 44.7488 1.5 -9.99211
      vertex 45.7495 1.5 -9.92915
      vertex 44.2505 1.5 -9.92915
    endloop
  endfacet
  facet normal 0 -1 0
    outer loop
      vertex 45.7495 1.5 -9.92915
      vertex 44.7488 1.5 -9.99211
      vertex 45.2512 1.5 -9.99211
    endloop
  endfacet
  facet normal -0.998032 0 -0.0627092
    outer loop
      vertex 41.0315 1.5 -6.50133
      vertex 41 7.5 -6
      vertex 41.0315 7.5 -6.50133
    endloop
  endfacet
  facet normal -0.998032 -0 -0.0627092
    outer loop
      vertex 41 7.5 -6
      vertex 41.0315 1.5 -6.50133
      vertex 41 1.5 -6
    endloop
  endfacet
  facet normal -0.248657 0 -0.968592
    outer loop
      vertex 43.7639 1.5 -9.80423
      vertex 44.2505 7.5 -9.92915
      vertex 44.2505 1.5 -9.92915
    endloop
  endfacet
  facet normal -0.248657 0 -0.968592
    outer loop
      vertex 44.2505 7.5 -9.92915
      vertex 43.7639 1.5 -9.80423
      vertex 43.7639 7.5 -9.80423
    endloop
  endfacet
  facet normal 0.98226 0 -0.187522
    outer loop
      vertex 48.9685 1.5 -6.50133
      vertex 48.8743 7.5 -6.99476
      vertex 48.9685 7.5 -6.50133
    endloop
  endfacet
  facet normal 0.98226 0 -0.187522
    outer loop
      vertex 48.8743 7.5 -6.99476
      vertex 48.9685 1.5 -6.50133
      vertex 48.8743 1.5 -6.99476
    endloop
  endfacet
  facet normal 0.587776 0 0.809024
    outer loop
      vertex 47.1433 7.5 -2.62269
      vertex 47.5497 1.5 -2.91795
      vertex 47.5497 7.5 -2.91795
    endloop
  endfacet
  facet normal 0.587776 0 0.809024
    outer loop
      vertex 47.5497 1.5 -2.91795
      vertex 47.1433 7.5 -2.62269
      vertex 47.1433 1.5 -2.62269
    endloop
  endfacet
  facet normal -0.998032 0 0.0627092
    outer loop
      vertex 41 1.5 -6
      vertex 41.0315 7.5 -5.49867
      vertex 41 7.5 -6
    endloop
  endfacet
  facet normal -0.998032 0 0.0627092
    outer loop
      vertex 41.0315 7.5 -5.49867
      vertex 41 1.5 -6
      vertex 41.0315 1.5 -5.49867
    endloop
  endfacet
  facet normal 0.481751 0 -0.876308
    outer loop
      vertex 46.7031 1.5 -9.61931
      vertex 47.1433 7.5 -9.37731
      vertex 47.1433 1.5 -9.37731
    endloop
  endfacet
  facet normal 0.481751 0 -0.876308
    outer loop
      vertex 47.1433 7.5 -9.37731
      vertex 46.7031 1.5 -9.61931
      vertex 46.7031 7.5 -9.61931
    endloop
  endfacet
  facet normal 0.368162 0 0.929762
    outer loop
      vertex 46.2361 7.5 -2.19577
      vertex 46.7031 1.5 -2.38069
      vertex 46.7031 7.5 -2.38069
    endloop
  endfacet
  facet normal 0.368162 0 0.929762
    outer loop
      vertex 46.7031 1.5 -2.38069
      vertex 46.2361 7.5 -2.19577
      vertex 46.2361 1.5 -2.19577
    endloop
  endfacet
  facet normal 0.587776 0 -0.809024
    outer loop
      vertex 47.1433 1.5 -9.37731
      vertex 47.5497 7.5 -9.08205
      vertex 47.5497 1.5 -9.08205
    endloop
  endfacet
  facet normal 0.587776 0 -0.809024
    outer loop
      vertex 47.5497 7.5 -9.08205
      vertex 47.1433 1.5 -9.37731
      vertex 47.1433 7.5 -9.37731
    endloop
  endfacet
  facet normal 0.844377 -0 0.535749
    outer loop
      vertex 48.2361 1.5 -3.64886
      vertex 48.5052 7.5 -4.07298
      vertex 48.2361 7.5 -3.64886
    endloop
  endfacet
  facet normal 0.844377 0 0.535749
    outer loop
      vertex 48.5052 7.5 -4.07298
      vertex 48.2361 1.5 -3.64886
      vertex 48.5052 1.5 -4.07298
    endloop
  endfacet
  facet normal -0.368162 0 -0.929762
    outer loop
      vertex 43.2969 1.5 -9.61931
      vertex 43.7639 7.5 -9.80423
      vertex 43.7639 1.5 -9.80423
    endloop
  endfacet
  facet normal -0.368162 0 -0.929762
    outer loop
      vertex 43.7639 7.5 -9.80423
      vertex 43.2969 1.5 -9.61931
      vertex 43.2969 7.5 -9.61931
    endloop
  endfacet
  facet normal -0.951072 0 0.308968
    outer loop
      vertex 41.1257 1.5 -5.00524
      vertex 41.2809 7.5 -4.5275
      vertex 41.1257 7.5 -5.00524
    endloop
  endfacet
  facet normal -0.951072 0 0.308968
    outer loop
      vertex 41.2809 7.5 -4.5275
      vertex 41.1257 1.5 -5.00524
      vertex 41.2809 1.5 -4.5275
    endloop
  endfacet
  facet normal -0.844377 0 0.535749
    outer loop
      vertex 41.4948 1.5 -4.07298
      vertex 41.7639 7.5 -3.64886
      vertex 41.4948 7.5 -4.07298
    endloop
  endfacet
  facet normal -0.844377 0 0.535749
    outer loop
      vertex 41.7639 7.5 -3.64886
      vertex 41.4948 1.5 -4.07298
      vertex 41.7639 1.5 -3.64886
    endloop
  endfacet
  facet normal -0.904812 0 0.42581
    outer loop
      vertex 41.2809 1.5 -4.5275
      vertex 41.4948 7.5 -4.07298
      vertex 41.2809 7.5 -4.5275
    endloop
  endfacet
  facet normal -0.904812 0 0.42581
    outer loop
      vertex 41.4948 7.5 -4.07298
      vertex 41.2809 1.5 -4.5275
      vertex 41.4948 1.5 -4.07298
    endloop
  endfacet
  facet normal 0.770509 0 -0.637429
    outer loop
      vertex 48.2361 1.5 -8.35114
      vertex 47.9159 7.5 -8.73819
      vertex 48.2361 7.5 -8.35114
    endloop
  endfacet
  facet normal 0.770509 0 -0.637429
    outer loop
      vertex 47.9159 7.5 -8.73819
      vertex 48.2361 1.5 -8.35114
      vertex 47.9159 1.5 -8.73819
    endloop
  endfacet
  facet normal -0 0 1
    outer loop
      vertex 44.7488 7.5 -2.00789
      vertex 45.2512 1.5 -2.00789
      vertex 45.2512 7.5 -2.00789
    endloop
  endfacet
  facet normal 0 0 1
    outer loop
      vertex 45.2512 1.5 -2.00789
      vertex 44.7488 7.5 -2.00789
      vertex 44.7488 1.5 -2.00789
    endloop
  endfacet
  facet normal 0.904809 0 -0.425818
    outer loop
      vertex 48.7191 1.5 -7.4725
      vertex 48.5052 7.5 -7.92701
      vertex 48.7191 7.5 -7.4725
    endloop
  endfacet
  facet normal 0.904809 0 -0.425818
    outer loop
      vertex 48.5052 7.5 -7.92701
      vertex 48.7191 1.5 -7.4725
      vertex 48.5052 1.5 -7.92701
    endloop
  endfacet
  facet normal -0.684521 0 -0.728993
    outer loop
      vertex 42.0841 1.5 -8.73819
      vertex 42.4503 7.5 -9.08205
      vertex 42.4503 1.5 -9.08205
    endloop
  endfacet
  facet normal -0.684521 0 -0.728993
    outer loop
      vertex 42.4503 7.5 -9.08205
      vertex 42.0841 1.5 -8.73819
      vertex 42.0841 7.5 -8.73819
    endloop
  endfacet
  facet normal -0.684521 0 0.728993
    outer loop
      vertex 42.0841 7.5 -3.26181
      vertex 42.4503 1.5 -2.91795
      vertex 42.4503 7.5 -2.91795
    endloop
  endfacet
  facet normal -0.684521 0 0.728993
    outer loop
      vertex 42.4503 1.5 -2.91795
      vertex 42.0841 7.5 -3.26181
      vertex 42.0841 1.5 -3.26181
    endloop
  endfacet
  facet normal -1 0 0
    outer loop
      vertex 30 4.5 2
      vertex 30 10.5 4
      vertex 30 10.5 2
    endloop
  endfacet
  facet normal -1 -0 0
    outer loop
      vertex 30 10.5 4
      vertex 30 4.5 2
      vertex 30 4.5 4
    endloop
  endfacet
  facet normal -0 0 1
    outer loop
      vertex 10 10.5 2
      vertex 30 4.5 2
      vertex 30 10.5 2
    endloop
  endfacet
  facet normal 0 0 1
    outer loop
      vertex 30 4.5 2
      vertex 10 10.5 2
      vertex 10 4.5 2
    endloop
  endfacet
  facet normal 1 -0 0
    outer loop
      vertex 10 4.5 4
      vertex 10 10.5 2
      vertex 10 10.5 4
    endloop
  endfacet
  facet normal 1 0 0
    outer loop
      vertex 10 10.5 2
      vertex 10 4.5 4
      vertex 10 4.5 2
    endloop
  endfacet
  facet normal 0 -1 0
    outer loop
      vertex 10 10.5 2
      vertex 30 10.5 4
      vertex 10 10.5 4
    endloop
  endfacet
  facet normal 0 -1 -0
    outer loop
      vertex 30 10.5 4
      vertex 10 10.5 2
      vertex 30 10.5 2
    endloop
  endfacet
  facet normal 0 1 -0
    outer loop
      vertex 30 4.5 2
      vertex 10 4.5 4
      vertex 30 4.5 4
    endloop
  endfacet
  facet normal 0 1 0
    outer loop
      vertex 10 4.5 4
      vertex 30 4.5 2
      vertex 10 4.5 2
    endloop
  endfacet
endsolid OpenSCAD_Model
