solid OpenSCAD_Model
  facet normal 1 -0 0
    outer loop
      vertex 100 0 5
      vertex 100 60 0
      vertex 100 60 5
    endloop
  endfacet
  facet normal 1 0 0
    outer loop
      vertex 100 60 0
      vertex 100 0 5
      vertex 100 0 0
    endloop
  endfacet
  facet normal 0 0 1
    outer loop
      vertex 100 60 5
      vertex 90 50 5
      vertex 100 0 5
    endloop
  endfacet
  facet normal 0 0 1
    outer loop
      vertex 100 60 5
      vertex 10 50 5
      vertex 90 50 5
    endloop
  endfacet
  facet normal -0 0 1
    outer loop
      vertex 0 60 5
      vertex 10 50 5
      vertex 100 60 5
    endloop
  endfacet
  facet normal 0 0 1
    outer loop
      vertex 0 40 5
      vertex 10 50 5
      vertex 0 60 5
    endloop
  endfacet
  facet normal 0 0 1
    outer loop
      vertex 10 50 5
      vertex 0 40 5
      vertex 10 26.6667 5
    endloop
  endfacet
  facet normal -0 0 1
    outer loop
      vertex 90 10 5
      vertex 100 0 5
      vertex 90 50 5
    endloop
  endfacet
  facet normal 0 0 1
    outer loop
      vertex 70 0 5
      vertex 90 10 5
      vertex 70 10 5
    endloop
  endfacet
  facet normal 0 0 1
    outer loop
      vertex 90 10 5
      vertex 70 0 5
      vertex 100 0 5
    endloop
  endfacet
  facet normal 0 0 1
    outer loop
      vertex 47.5 10 5
      vertex 30 0 5
      vertex 40 0 5
    endloop
  endfacet
  facet normal 0 -0 1
    outer loop
      vertex 30 0 5
      vertex 47.5 10 5
      vertex 22.5 10 5
    endloop
  endfacet
  facet normal 0 -0 -1
    outer loop
      vertex 70 40 5
      vertex 70 10 5
      vertex 47.5 10 5
    endloop
  endfacet
  facet normal 0 0 -1
    outer loop
      vertex 10 26.6667 5
      vertex 22.5 10 5
      vertex 10 10 5
    endloop
  endfacet
  facet normal 0 0 -1
    outer loop
      vertex 100 0 0
      vertex 90 10 0
      vertex 100 60 0
    endloop
  endfacet
  facet normal 0 0 -1
    outer loop
      vertex 100 0 0
      vertex 10 10 0
      vertex 90 10 0
    endloop
  endfacet
  facet normal -0 0 -1
    outer loop
      vertex 10 10 0
      vertex 0 0 0
      vertex 10 50 0
    endloop
  endfacet
  facet normal 0 0 -1
    outer loop
      vertex 0 0 0
      vertex 10 10 0
      vertex 100 0 0
    endloop
  endfacet
  facet normal 0 0 -1
    outer loop
      vertex 90 50 0
      vertex 100 60 0
      vertex 90 10 0
    endloop
  endfacet
  facet normal 0 0 -1
    outer loop
      vertex 10 50 0
      vertex 100 60 0
      vertex 90 50 0
    endloop
  endfacet
  facet normal 0 0 -1
    outer loop
      vertex 10 50 0
      vertex 0 60 0
      vertex 100 60 0
    endloop
  endfacet
  facet normal 0 0 -1
    outer loop
      vertex 0 60 0
      vertex 10 50 0
      vertex 0 0 0
    endloop
  endfacet
  facet normal -1 0 0
    outer loop
      vertex 0 60 0
      vertex 0 40 5
      vertex 0 60 5
    endloop
  endfacet
  facet normal -1 0 0
    outer loop
      vertex 0 0 0
      vertex 0 40 5
      vertex 0 60 0
    endloop
  endfacet
  facet normal -1 0 0
    outer loop
      vertex 0 0 10
      vertex 0 40 5
      vertex 0 0 0
    endloop
  endfacet
  facet normal -1 0 0
    outer loop
      vertex 0 40 5
      vertex 0 0 10
      vertex 0 40 10
    endloop
  endfacet
  facet normal 0 1 -0
    outer loop
      vertex 100 60 0
      vertex 0 60 5
      vertex 100 60 5
    endloop
  endfacet
  facet normal 0 1 0
    outer loop
      vertex 0 60 5
      vertex 100 60 0
      vertex 0 60 0
    endloop
  endfacet
  facet normal 0 -1 0
    outer loop
      vertex 0 0 10
      vertex 30 0 5
      vertex 30 0 10
    endloop
  endfacet
  facet normal 0 -1 0
    outer loop
      vertex 0 0 0
      vertex 40 0 5
      vertex 30 0 5
    endloop
  endfacet
  facet normal 0 -1 0
    outer loop
      vertex 40 0 5
      vertex 100 0 0
      vertex 70 0 5
    endloop
  endfacet
  facet normal 0 -1 0
    outer loop
      vertex 0 0 0
      vertex 30 0 5
      vertex 0 0 10
    endloop
  endfacet
  facet normal 0 -1 -0
    outer loop
      vertex 40 0 5
      vertex 0 0 0
      vertex 100 0 0
    endloop
  endfacet
  facet normal 0 -1 0
    outer loop
      vertex 70 0 5
      vertex 100 0 0
      vertex 100 0 5
    endloop
  endfacet
  facet normal 0 -1 0
    outer loop
      vertex 40 0 5
      vertex 70 0 10
      vertex 40 0 10
    endloop
  endfacet
  facet normal 0 -1 -0
    outer loop
      vertex 70 0 10
      vertex 40 0 5
      vertex 70 0 5
    endloop
  endfacet
  facet normal -1 0 0
    outer loop
      vertex 90 10 0
      vertex 90 50 5
      vertex 90 50 0
    endloop
  endfacet
  facet normal -1 -0 0
    outer loop
      vertex 90 50 5
      vertex 90 10 0
      vertex 90 10 5
    endloop
  endfacet
  facet normal 1 -0 0
    outer loop
      vertex 10 26.6667 5
      vertex 10 50 0
      vertex 10 50 5
    endloop
  endfacet
  facet normal 1 0 0
    outer loop
      vertex 10 10 0
      vertex 10 26.6667 5
      vertex 10 10 5
    endloop
  endfacet
  facet normal 1 0 0
    outer loop
      vertex 10 26.6667 5
      vertex 10 10 0
      vertex 10 50 0
    endloop
  endfacet
  facet normal 0 -1 0
    outer loop
      vertex 10 50 0
      vertex 90 50 5
      vertex 10 50 5
    endloop
  endfacet
  facet normal 0 -1 -0
    outer loop
      vertex 90 50 5
      vertex 10 50 0
      vertex 90 50 0
    endloop
  endfacet
  facet normal 0 1 -0
    outer loop
      vertex 90 10 0
      vertex 70 10 5
      vertex 90 10 5
    endloop
  endfacet
  facet normal 0 1 0
    outer loop
      vertex 70 10 5
      vertex 90 10 0
      vertex 47.5 10 5
    endloop
  endfacet
  facet normal 0 1 0
    outer loop
      vertex 10 10 0
      vertex 47.5 10 5
      vertex 90 10 0
    endloop
  endfacet
  facet normal 0 1 0
    outer loop
      vertex 47.5 10 5
      vertex 10 10 0
      vertex 22.5 10 5
    endloop
  endfacet
  facet normal 0 1 0
    outer loop
      vertex 22.5 10 5
      vertex 10 10 0
      vertex 10 10 5
    endloop
  endfacet
  facet normal 0 0 1
    outer loop
      vertex 0 40 10
      vertex 0 0 10
      vertex 30 0 10
    endloop
  endfacet
  facet normal 0.799999 0.600001 0
    outer loop
      vertex 0 40 10
      vertex 10 26.6667 5
      vertex 0 40 5
    endloop
  endfacet
  facet normal 0.8 0.6 4e-06
    outer loop
      vertex 30 0 10
      vertex 10 26.6667 5
      vertex 0 40 10
    endloop
  endfacet
  facet normal 0.800001 0.599999 -2.4e-06
    outer loop
      vertex 10 26.6667 5
      vertex 30 0 10
      vertex 22.5 10 5
    endloop
  endfacet
  facet normal 0.8 0.6 0
    outer loop
      vertex 22.5 10 5
      vertex 30 0 10
      vertex 30 0 5
    endloop
  endfacet
  facet normal 0 -0 1
    outer loop
      vertex 70 0 10
      vertex 70 40 10
      vertex 40 0 10
    endloop
  endfacet
  facet normal -0.8 0.6 0
    outer loop
      vertex 47.5 10 5
      vertex 70 40 10
      vertex 70 40 5
    endloop
  endfacet
  facet normal -0.8 0.6 0
    outer loop
      vertex 40 0 10
      vertex 47.5 10 5
      vertex 40 0 5
    endloop
  endfacet
  facet normal -0.8 0.6 0
    outer loop
      vertex 47.5 10 5
      vertex 40 0 10
      vertex 70 40 10
    endloop
  endfacet
  facet normal 1 0 0
    outer loop
      vertex 70 40 10
      vertex 70 10 5
      vertex 70 40 5
    endloop
  endfacet
  facet normal 1 -0 0
    outer loop
      vertex 70 0 10
      vertex 70 10 5
      vertex 70 40 10
    endloop
  endfacet
  facet normal 1 0 0
    outer loop
      vertex 70 10 5
      vertex 70 0 10
      vertex 70 0 5
    endloop
  endfacet
  facet normal -0.866025 0 -0.5
    outer loop
      vertex 0 57 10
      vertex -10 60 27.3205
      vertex 0 60 10
    endloop
  endfacet
  facet normal -0.866025 -0 -0.5
    outer loop
      vertex -10 60 27.3205
      vertex 0 57 10
      vertex -10 57 27.3205
    endloop
  endfacet
  facet normal -0.5 0 0.866025
    outer loop
      vertex -10 60 27.3205
      vertex 41.9615 57 57.3205
      vertex 41.9615 60 57.3205
    endloop
  endfacet
  facet normal -0.5 0 0.866025
    outer loop
      vertex 41.9615 57 57.3205
      vertex -10 60 27.3205
      vertex -10 57 27.3205
    endloop
  endfacet
  facet normal 0.5 0 -0.866025
    outer loop
      vertex 0 57 10
      vertex 51.9615 60 40
      vertex 51.9615 57 40
    endloop
  endfacet
  facet normal 0.5 0 -0.866025
    outer loop
      vertex 51.9615 60 40
      vertex 0 57 10
      vertex 0 60 10
    endloop
  endfacet
  facet normal 0 -1 0
    outer loop
      vertex -10 57 27.3205
      vertex 51.9615 57 40
      vertex 41.9615 57 57.3205
    endloop
  endfacet
  facet normal 0 -1 0
    outer loop
      vertex 51.9615 57 40
      vertex -10 57 27.3205
      vertex 0 57 10
    endloop
  endfacet
  facet normal 0 1 0
    outer loop
      vertex 51.9615 60 40
      vertex -10 60 27.3205
      vertex 41.9615 60 57.3205
    endloop
  endfacet
  facet normal -0 1 0
    outer loop
      vertex -10 60 27.3205
      vertex 51.9615 60 40
      vertex 0 60 10
    endloop
  endfacet
  facet normal 0.866025 -0 0.5
    outer loop
      vertex 41.9615 57 57.3205
      vertex 51.9615 60 40
      vertex 41.9615 60 57.3205
    endloop
  endfacet
  facet normal 0.866025 0 0.5
    outer loop
      vertex 51.9615 60 40
      vertex 41.9615 57 57.3205
      vertex 51.9615 57 40
    endloop
  endfacet
  facet normal 0.5 0 0.866025
    outer loop
      vertex -1.96152 3 57.3205
      vertex 50 0 27.3205
      vertex 50 3 27.3205
    endloop
  endfacet
  facet normal 0.5 0 0.866025
    outer loop
      vertex 50 0 27.3205
      vertex -1.96152 3 57.3205
      vertex -1.96152 0 57.3205
    endloop
  endfacet
  facet normal 0.866025 0 -0.5
    outer loop
      vertex 50 0 27.3205
      vertex 40 3 10
      vertex 50 3 27.3205
    endloop
  endfacet
  facet normal 0.866025 0 -0.5
    outer loop
      vertex 40 3 10
      vertex 50 0 27.3205
      vertex 40 0 10
    endloop
  endfacet
  facet normal -0.5 0 -0.866025
    outer loop
      vertex -11.9615 0 40
      vertex 40 3 10
      vertex 40 0 10
    endloop
  endfacet
  facet normal -0.5 0 -0.866025
    outer loop
      vertex 40 3 10
      vertex -11.9615 0 40
      vertex -11.9615 3 40
    endloop
  endfacet
  facet normal 0 1 0
    outer loop
      vertex 50 3 27.3205
      vertex -11.9615 3 40
      vertex -1.96152 3 57.3205
    endloop
  endfacet
  facet normal 0 1 0
    outer loop
      vertex -11.9615 3 40
      vertex 50 3 27.3205
      vertex 40 3 10
    endloop
  endfacet
  facet normal 0 -1 0
    outer loop
      vertex -11.9615 0 40
      vertex 50 0 27.3205
      vertex -1.96152 0 57.3205
    endloop
  endfacet
  facet normal -0 -1 0
    outer loop
      vertex 50 0 27.3205
      vertex -11.9615 0 40
      vertex 40 0 10
    endloop
  endfacet
  facet normal -0.866026 0 0.499999
    outer loop
      vertex -11.9615 0 40
      vertex -1.96152 3 57.3205
      vertex -11.9615 3 40
    endloop
  endfacet
  facet normal -0.866026 0 0.499999
    outer loop
      vertex -1.96152 3 57.3205
      vertex -11.9615 0 40
      vertex -1.96152 0 57.3205
    endloop
  endfacet
endsolid OpenSCAD_Model
