solid OpenSCAD_Model
  facet normal 1 -0 0
    outer loop
      vertex 40 0 15
      vertex 40 40 0
      vertex 40 40 15
    endloop
  endfacet
  facet normal 1 0 0
    outer loop
      vertex 40 40 0
      vertex 40 0 15
      vertex 40 0 0
    endloop
  endfacet
  facet normal 0 0 1
    outer loop
      vertex 40 40 15
      vertex 38 38 15
      vertex 40 0 15
    endloop
  endfacet
  facet normal 0 0 1
    outer loop
      vertex 40 40 15
      vertex 2 38 15
      vertex 38 38 15
    endloop
  endfacet
  facet normal 0 0 1
    outer loop
      vertex 0 40 15
      vertex 2 17 15
      vertex 2 38 15
    endloop
  endfacet
  facet normal 0 0 1
    outer loop
      vertex 0 0 15
      vertex 2 17 15
      vertex 0 40 15
    endloop
  endfacet
  facet normal -0 0 1
    outer loop
      vertex 0 40 15
      vertex 2 38 15
      vertex 40 40 15
    endloop
  endfacet
  facet normal -0 0 1
    outer loop
      vertex 38 2 15
      vertex 40 0 15
      vertex 38 38 15
    endloop
  endfacet
  facet normal -0 0 1
    outer loop
      vertex 2 2 15
      vertex 40 0 15
      vertex 38 2 15
    endloop
  endfacet
  facet normal 0 0 1
    outer loop
      vertex 2 2 15
      vertex 0 0 15
      vertex 40 0 15
    endloop
  endfacet
  facet normal 0 0 1
    outer loop
      vertex 2 17 15
      vertex 0 0 15
      vertex 2 2 15
    endloop
  endfacet
  facet normal 0 0 -1
    outer loop
      vertex 40 0 0
      vertex 38 2 0
      vertex 40 40 0
    endloop
  endfacet
  facet normal 0 0 -1
    outer loop
      vertex 0 0 0
      vertex 38 2 0
      vertex 40 0 0
    endloop
  endfacet
  facet normal 0 0 -1
    outer loop
      vertex 0 40 0
      vertex 2 17 0
      vertex 0 0 0
    endloop
  endfacet
  facet normal -0 0 -1
    outer loop
      vertex 38 2 0
      vertex 0 0 0
      vertex 2 17 0
    endloop
  endfacet
  facet normal 0 0 -1
    outer loop
      vertex 38 38 0
      vertex 40 40 0
      vertex 38 2 0
    endloop
  endfacet
  facet normal 0 0 -1
    outer loop
      vertex 2 38 0
      vertex 40 40 0
      vertex 38 38 0
    endloop
  endfacet
  facet normal 0 0 -1
    outer loop
      vertex 2 38 0
      vertex 0 40 0
      vertex 40 40 0
    endloop
  endfacet
  facet normal 0 0 -1
    outer loop
      vertex 2 17 0
      vertex 0 40 0
      vertex 2 38 0
    endloop
  endfacet
  facet normal -1 0 0
    outer loop
      vertex 0 0 0
      vertex 0 40 15
      vertex 0 40 0
    endloop
  endfacet
  facet normal -1 -0 0
    outer loop
      vertex 0 40 15
      vertex 0 0 0
      vertex 0 0 15
    endloop
  endfacet
  facet normal 0 1 -0
    outer loop
      vertex 40 40 0
      vertex 0 40 15
      vertex 40 40 15
    endloop
  endfacet
  facet normal 0 1 0
    outer loop
      vertex 0 40 15
      vertex 40 40 0
      vertex 0 40 0
    endloop
  endfacet
  facet normal 0 -1 0
    outer loop
      vertex 0 0 0
      vertex 40 0 15
      vertex 0 0 15
    endloop
  endfacet
  facet normal 0 -1 -0
    outer loop
      vertex 40 0 15
      vertex 0 0 0
      vertex 40 0 0
    endloop
  endfacet
  facet normal -1 0 0
    outer loop
      vertex 38 2 0
      vertex 38 38 15
      vertex 38 38 0
    endloop
  endfacet
  facet normal -1 -0 0
    outer loop
      vertex 38 38 15
      vertex 38 2 0
      vertex 38 2 15
    endloop
  endfacet
  facet normal 1 -0 0
    outer loop
      vertex 2 17 15
      vertex 2 38 0
      vertex 2 38 15
    endloop
  endfacet
  facet normal 1 0 0
    outer loop
      vertex 2 38 0
      vertex 2 17 15
      vertex 2 17 0
    endloop
  endfacet
  facet normal -1 0 0
    outer loop
      vertex 2 2 15
      vertex 2 17 36
      vertex 2 17 15
    endloop
  endfacet
  facet normal -1 -0 0
    outer loop
      vertex 2 17 36
      vertex 2 2 15
      vertex 2 2 36
    endloop
  endfacet
  facet normal 0 -1 0
    outer loop
      vertex 2 38 0
      vertex 38 38 15
      vertex 2 38 15
    endloop
  endfacet
  facet normal 0 -1 -0
    outer loop
      vertex 38 38 15
      vertex 2 38 0
      vertex 38 38 0
    endloop
  endfacet
  facet normal 0 -1 0
    outer loop
      vertex 2 2 15
      vertex 38 2 36
      vertex 2 2 36
    endloop
  endfacet
  facet normal 0 -1 -0
    outer loop
      vertex 38 2 36
      vertex 2 2 15
      vertex 38 2 15
    endloop
  endfacet
  facet normal 0 0 1
    outer loop
      vertex 2 17 36
      vertex 2 2 36
      vertex 38 2 36
    endloop
  endfacet
  facet normal 0.384615 0.923077 -0
    outer loop
      vertex 38 2 15
      vertex 2 17 36
      vertex 38 2 36
    endloop
  endfacet
  facet normal 0.384615 0.923077 0
    outer loop
      vertex 38 2 15
      vertex 2 17 15
      vertex 2 17 36
    endloop
  endfacet
  facet normal 0.384615 0.923077 -0
    outer loop
      vertex 38 2 0
      vertex 2 17 15
      vertex 38 2 15
    endloop
  endfacet
  facet normal 0.384615 0.923077 0
    outer loop
      vertex 2 17 15
      vertex 38 2 0
      vertex 2 17 0
    endloop
  endfacet
endsolid OpenSCAD_Model
