solid OpenSCAD_Model
  facet normal 0.995562 0.0941082 0
    outer loop
      vertex 9.98027 0.627905 25
      vertex 9.92115 1.25333 0
      vertex 9.92115 1.25333 25
    endloop
  endfacet
  facet normal 0.995562 0.0941082 0
    outer loop
      vertex 9.92115 1.25333 0
      vertex 9.98027 0.627905 25
      vertex 9.98027 0.627905 0
    endloop
  endfacet
  facet normal 0.999507 0.0314065 0
    outer loop
      vertex 10 0 25
      vertex 9.98027 0.627905 0
      vertex 9.98027 0.627905 25
    endloop
  endfacet
  facet normal 0.999507 0.0314065 0
    outer loop
      vertex 9.98027 0.627905 0
      vertex 10 0 25
      vertex 10 0 0
    endloop
  endfacet
  facet normal 0.987687 0.156443 0
    outer loop
      vertex 9.92115 1.25333 25
      vertex 9.82287 1.87381 0
      vertex 9.82287 1.87381 25
    endloop
  endfacet
  facet normal 0.987687 0.156443 0
    outer loop
      vertex 9.82287 1.87381 0
      vertex 9.92115 1.25333 25
      vertex 9.92115 1.25333 0
    endloop
  endfacet
  facet normal -0.94088 0.33874 0
    outer loop
      vertex -9.51056 3.09017 0
      vertex -9.29776 3.68124 25
      vertex -9.29776 3.68124 0
    endloop
  endfacet
  facet normal -0.94088 0.33874 0
    outer loop
      vertex -9.29776 3.68124 25
      vertex -9.51056 3.09017 0
      vertex -9.51056 3.09017 25
    endloop
  endfacet
  facet normal 0.975917 0.21814 0
    outer loop
      vertex 9.82287 1.87381 25
      vertex 9.68583 2.4869 0
      vertex 9.68583 2.4869 25
    endloop
  endfacet
  facet normal 0.975917 0.21814 0
    outer loop
      vertex 9.68583 2.4869 0
      vertex 9.82287 1.87381 25
      vertex 9.82287 1.87381 0
    endloop
  endfacet
  facet normal 0 0 1
    outer loop
      vertex 4.76314 2.75 25
      vertex 10 0 25
      vertex 9.98027 0.627905 25
    endloop
  endfacet
  facet normal 0 0 1
    outer loop
      vertex 4.76314 2.75 25
      vertex 9.98027 0.627905 25
      vertex 9.92115 1.25333 25
    endloop
  endfacet
  facet normal 0 0 1
    outer loop
      vertex 4.76314 -2.75 25
      vertex 10 0 25
      vertex 4.76314 2.75 25
    endloop
  endfacet
  facet normal 0 0 1
    outer loop
      vertex 4.76314 2.75 25
      vertex 9.92115 1.25333 25
      vertex 9.82287 1.87381 25
    endloop
  endfacet
  facet normal 0 0 1
    outer loop
      vertex 10 0 25
      vertex 4.76314 -2.75 25
      vertex 9.98027 -0.627905 25
    endloop
  endfacet
  facet normal 0 0 1
    outer loop
      vertex 4.76314 2.75 25
      vertex 9.82287 1.87381 25
      vertex 9.68583 2.4869 25
    endloop
  endfacet
  facet normal 0 0 1
    outer loop
      vertex 9.98027 -0.627905 25
      vertex 4.76314 -2.75 25
      vertex 9.92115 -1.25333 25
    endloop
  endfacet
  facet normal -0 0 1
    outer loop
      vertex 4.76314 2.75 25
      vertex 9.68583 2.4869 25
      vertex 9.51056 3.09017 25
    endloop
  endfacet
  facet normal 0 0 1
    outer loop
      vertex 9.92115 -1.25333 25
      vertex 4.76314 -2.75 25
      vertex 9.82287 -1.87381 25
    endloop
  endfacet
  facet normal 0 0 1
    outer loop
      vertex 4.76314 2.75 25
      vertex 9.51056 3.09017 25
      vertex 9.29776 3.68124 25
    endloop
  endfacet
  facet normal 0 0 1
    outer loop
      vertex 9.82287 -1.87381 25
      vertex 4.76314 -2.75 25
      vertex 9.68583 -2.4869 25
    endloop
  endfacet
  facet normal 0 0 1
    outer loop
      vertex 4.76314 2.75 25
      vertex 9.29776 3.68124 25
      vertex 9.04827 4.25779 25
    endloop
  endfacet
  facet normal 0 0 1
    outer loop
      vertex 9.68583 -2.4869 25
      vertex 4.76314 -2.75 25
      vertex 9.51056 -3.09017 25
    endloop
  endfacet
  facet normal 0 0 1
    outer loop
      vertex 4.76314 2.75 25
      vertex 9.04827 4.25779 25
      vertex 8.76307 4.81754 25
    endloop
  endfacet
  facet normal 0 0 1
    outer loop
      vertex 9.51056 -3.09017 25
      vertex 4.76314 -2.75 25
      vertex 9.29776 -3.68124 25
    endloop
  endfacet
  facet normal 0 0 1
    outer loop
      vertex 4.76314 2.75 25
      vertex 8.76307 4.81754 25
      vertex 8.44328 5.35827 25
    endloop
  endfacet
  facet normal 0 0 1
    outer loop
      vertex 9.29776 -3.68124 25
      vertex 4.76314 -2.75 25
      vertex 9.04827 -4.25779 25
    endloop
  endfacet
  facet normal 0 0 1
    outer loop
      vertex 4.76314 2.75 25
      vertex 8.44328 5.35827 25
      vertex 8.09017 5.87785 25
    endloop
  endfacet
  facet normal 0 0 1
    outer loop
      vertex 9.04827 -4.25779 25
      vertex 4.76314 -2.75 25
      vertex 8.76307 -4.81754 25
    endloop
  endfacet
  facet normal 0 0 1
    outer loop
      vertex 4.76314 2.75 25
      vertex 8.09017 5.87785 25
      vertex 7.70513 6.37424 25
    endloop
  endfacet
  facet normal 0 0 1
    outer loop
      vertex 8.76307 -4.81754 25
      vertex 4.76314 -2.75 25
      vertex 8.44328 -5.35827 25
    endloop
  endfacet
  facet normal 0 0 1
    outer loop
      vertex 4.76314 2.75 25
      vertex 7.70513 6.37424 25
      vertex 7.28969 6.84547 25
    endloop
  endfacet
  facet normal 0 0 1
    outer loop
      vertex 8.44328 -5.35827 25
      vertex 4.76314 -2.75 25
      vertex 8.09017 -5.87785 25
    endloop
  endfacet
  facet normal 0 0 1
    outer loop
      vertex 4.76314 2.75 25
      vertex 7.28969 6.84547 25
      vertex 6.84547 7.28969 25
    endloop
  endfacet
  facet normal 0 0 1
    outer loop
      vertex 8.09017 -5.87785 25
      vertex 4.76314 -2.75 25
      vertex 7.70513 -6.37424 25
    endloop
  endfacet
  facet normal 0 0 1
    outer loop
      vertex 4.76314 2.75 25
      vertex 6.84547 7.28969 25
      vertex 6.37424 7.70513 25
    endloop
  endfacet
  facet normal 0 0 1
    outer loop
      vertex 7.70513 -6.37424 25
      vertex 4.76314 -2.75 25
      vertex 7.28969 -6.84547 25
    endloop
  endfacet
  facet normal 0 0 1
    outer loop
      vertex 4.76314 2.75 25
      vertex 6.37424 7.70513 25
      vertex 5.87785 8.09017 25
    endloop
  endfacet
  facet normal 0 0 1
    outer loop
      vertex 7.28969 -6.84547 25
      vertex 4.76314 -2.75 25
      vertex 6.84547 -7.28969 25
    endloop
  endfacet
  facet normal 0 0 1
    outer loop
      vertex 4.76314 2.75 25
      vertex 5.87785 8.09017 25
      vertex 5.35827 8.44328 25
    endloop
  endfacet
  facet normal 0 0 1
    outer loop
      vertex 6.84547 -7.28969 25
      vertex 4.76314 -2.75 25
      vertex 6.37424 -7.70513 25
    endloop
  endfacet
  facet normal 0 0 1
    outer loop
      vertex 4.76314 2.75 25
      vertex 5.35827 8.44328 25
      vertex 4.81754 8.76307 25
    endloop
  endfacet
  facet normal 0 0 1
    outer loop
      vertex 6.37424 -7.70513 25
      vertex 4.76314 -2.75 25
      vertex 5.87785 -8.09017 25
    endloop
  endfacet
  facet normal 0 0 1
    outer loop
      vertex 5.87785 -8.09017 25
      vertex 4.76314 -2.75 25
      vertex 5.35827 -8.44328 25
    endloop
  endfacet
  facet normal 0 0 1
    outer loop
      vertex 0 5.5 25
      vertex 4.81754 8.76307 25
      vertex 4.25779 9.04827 25
    endloop
  endfacet
  facet normal 0 0 1
    outer loop
      vertex 0 5.5 25
      vertex 4.25779 9.04827 25
      vertex 3.68124 9.29776 25
    endloop
  endfacet
  facet normal 0 0 1
    outer loop
      vertex 0 5.5 25
      vertex 3.68124 9.29776 25
      vertex 3.09017 9.51056 25
    endloop
  endfacet
  facet normal 0 0 1
    outer loop
      vertex 0 5.5 25
      vertex 3.09017 9.51056 25
      vertex 2.4869 9.68583 25
    endloop
  endfacet
  facet normal 0 0 1
    outer loop
      vertex 0 5.5 25
      vertex 2.4869 9.68583 25
      vertex 1.87381 9.82287 25
    endloop
  endfacet
  facet normal 0 0 1
    outer loop
      vertex 0 5.5 25
      vertex 1.87381 9.82287 25
      vertex 1.25333 9.92115 25
    endloop
  endfacet
  facet normal 0 0 1
    outer loop
      vertex 0 5.5 25
      vertex 1.25333 9.92115 25
      vertex 0.627905 9.98027 25
    endloop
  endfacet
  facet normal 0 0 1
    outer loop
      vertex 0 5.5 25
      vertex 0.627905 9.98027 25
      vertex 0 10 25
    endloop
  endfacet
  facet normal 0 0 1
    outer loop
      vertex 4.81754 8.76307 25
      vertex 0 5.5 25
      vertex 4.76314 2.75 25
    endloop
  endfacet
  facet normal -0 0 1
    outer loop
      vertex -0.627905 9.98027 25
      vertex 0 5.5 25
      vertex 0 10 25
    endloop
  endfacet
  facet normal -0 0 1
    outer loop
      vertex -1.25333 9.92115 25
      vertex 0 5.5 25
      vertex -0.627905 9.98027 25
    endloop
  endfacet
  facet normal -0 0 1
    outer loop
      vertex -1.87381 9.82287 25
      vertex 0 5.5 25
      vertex -1.25333 9.92115 25
    endloop
  endfacet
  facet normal -0 0 1
    outer loop
      vertex -2.4869 9.68583 25
      vertex 0 5.5 25
      vertex -1.87381 9.82287 25
    endloop
  endfacet
  facet normal -0 0 1
    outer loop
      vertex -3.09017 9.51056 25
      vertex 0 5.5 25
      vertex -2.4869 9.68583 25
    endloop
  endfacet
  facet normal -0 0 1
    outer loop
      vertex -3.68124 9.29776 25
      vertex 0 5.5 25
      vertex -3.09017 9.51056 25
    endloop
  endfacet
  facet normal -0 0 1
    outer loop
      vertex -4.25779 9.04827 25
      vertex 0 5.5 25
      vertex -3.68124 9.29776 25
    endloop
  endfacet
  facet normal -0 0 1
    outer loop
      vertex -4.81754 8.76307 25
      vertex 0 5.5 25
      vertex -4.25779 9.04827 25
    endloop
  endfacet
  facet normal -0 0 1
    outer loop
      vertex -5.35827 8.44328 25
      vertex -4.76314 2.75 25
      vertex -4.81754 8.76307 25
    endloop
  endfacet
  facet normal 0 0 1
    outer loop
      vertex 0 5.5 25
      vertex -4.81754 8.76307 25
      vertex -4.76314 2.75 25
    endloop
  endfacet
  facet normal 0 0 1
    outer loop
      vertex 5.35827 -8.44328 25
      vertex 4.76314 -2.75 25
      vertex 4.81754 -8.76307 25
    endloop
  endfacet
  facet normal -0 0 1
    outer loop
      vertex 0 -5.5 25
      vertex 4.81754 -8.76307 25
      vertex 4.76314 -2.75 25
    endloop
  endfacet
  facet normal 0 0 1
    outer loop
      vertex 4.81754 -8.76307 25
      vertex 0 -5.5 25
      vertex 4.25779 -9.04827 25
    endloop
  endfacet
  facet normal 0 0 1
    outer loop
      vertex 4.25779 -9.04827 25
      vertex 0 -5.5 25
      vertex 3.68124 -9.29776 25
    endloop
  endfacet
  facet normal 0 0 1
    outer loop
      vertex 3.68124 -9.29776 25
      vertex 0 -5.5 25
      vertex 3.09017 -9.51056 25
    endloop
  endfacet
  facet normal 0 0 1
    outer loop
      vertex 3.09017 -9.51056 25
      vertex 0 -5.5 25
      vertex 2.4869 -9.68583 25
    endloop
  endfacet
  facet normal 0 0 1
    outer loop
      vertex 2.4869 -9.68583 25
      vertex 0 -5.5 25
      vertex 1.87381 -9.82287 25
    endloop
  endfacet
  facet normal 0 0 1
    outer loop
      vertex 1.87381 -9.82287 25
      vertex 0 -5.5 25
      vertex 1.25333 -9.92115 25
    endloop
  endfacet
  facet normal 0 0 1
    outer loop
      vertex 1.25333 -9.92115 25
      vertex 0 -5.5 25
      vertex 0.627905 -9.98027 25
    endloop
  endfacet
  facet normal 0 0 1
    outer loop
      vertex 0 -5.5 25
      vertex 0 -10 25
      vertex 0.627905 -9.98027 25
    endloop
  endfacet
  facet normal 0 0 1
    outer loop
      vertex 0 -5.5 25
      vertex -0.627905 -9.98027 25
      vertex 0 -10 25
    endloop
  endfacet
  facet normal 0 0 1
    outer loop
      vertex 0 -5.5 25
      vertex -1.25333 -9.92115 25
      vertex -0.627905 -9.98027 25
    endloop
  endfacet
  facet normal 0 0 1
    outer loop
      vertex 0 -5.5 25
      vertex -1.87381 -9.82287 25
      vertex -1.25333 -9.92115 25
    endloop
  endfacet
  facet normal 0 0 1
    outer loop
      vertex 0 -5.5 25
      vertex -2.4869 -9.68583 25
      vertex -1.87381 -9.82287 25
    endloop
  endfacet
  facet normal 0 0 1
    outer loop
      vertex 0 -5.5 25
      vertex -3.09017 -9.51056 25
      vertex -2.4869 -9.68583 25
    endloop
  endfacet
  facet normal 0 0 1
    outer loop
      vertex 0 -5.5 25
      vertex -3.68124 -9.29776 25
      vertex -3.09017 -9.51056 25
    endloop
  endfacet
  facet normal 0 0 1
    outer loop
      vertex 0 -5.5 25
      vertex -4.25779 -9.04827 25
      vertex -3.68124 -9.29776 25
    endloop
  endfacet
  facet normal 0 0 1
    outer loop
      vertex -4.81754 -8.76307 25
      vertex 0 -5.5 25
      vertex -4.76314 -2.75 25
    endloop
  endfacet
  facet normal 0 0 1
    outer loop
      vertex 0 -5.5 25
      vertex -4.81754 -8.76307 25
      vertex -4.25779 -9.04827 25
    endloop
  endfacet
  facet normal -0 0 1
    outer loop
      vertex -5.87785 8.09017 25
      vertex -4.76314 2.75 25
      vertex -5.35827 8.44328 25
    endloop
  endfacet
  facet normal -0 0 1
    outer loop
      vertex -6.37424 7.70513 25
      vertex -4.76314 2.75 25
      vertex -5.87785 8.09017 25
    endloop
  endfacet
  facet normal 0 0 1
    outer loop
      vertex -4.76314 -2.75 25
      vertex -5.35827 -8.44328 25
      vertex -4.81754 -8.76307 25
    endloop
  endfacet
  facet normal -0 0 1
    outer loop
      vertex -6.84547 7.28969 25
      vertex -4.76314 2.75 25
      vertex -6.37424 7.70513 25
    endloop
  endfacet
  facet normal 0 0 1
    outer loop
      vertex -4.76314 -2.75 25
      vertex -5.87785 -8.09017 25
      vertex -5.35827 -8.44328 25
    endloop
  endfacet
  facet normal -0 0 1
    outer loop
      vertex -7.28969 6.84547 25
      vertex -4.76314 2.75 25
      vertex -6.84547 7.28969 25
    endloop
  endfacet
  facet normal 0 0 1
    outer loop
      vertex -4.76314 -2.75 25
      vertex -6.37424 -7.70513 25
      vertex -5.87785 -8.09017 25
    endloop
  endfacet
  facet normal -0 0 1
    outer loop
      vertex -7.70513 6.37424 25
      vertex -4.76314 2.75 25
      vertex -7.28969 6.84547 25
    endloop
  endfacet
  facet normal 0 0 1
    outer loop
      vertex -4.76314 -2.75 25
      vertex -6.84547 -7.28969 25
      vertex -6.37424 -7.70513 25
    endloop
  endfacet
  facet normal -0 0 1
    outer loop
      vertex -8.09017 5.87785 25
      vertex -4.76314 2.75 25
      vertex -7.70513 6.37424 25
    endloop
  endfacet
  facet normal 0 0 1
    outer loop
      vertex -4.76314 -2.75 25
      vertex -7.28969 -6.84547 25
      vertex -6.84547 -7.28969 25
    endloop
  endfacet
  facet normal -0 0 1
    outer loop
      vertex -8.44328 5.35827 25
      vertex -4.76314 2.75 25
      vertex -8.09017 5.87785 25
    endloop
  endfacet
  facet normal 0 0 1
    outer loop
      vertex -4.76314 -2.75 25
      vertex -7.70513 -6.37424 25
      vertex -7.28969 -6.84547 25
    endloop
  endfacet
  facet normal -0 0 1
    outer loop
      vertex -8.76307 4.81754 25
      vertex -4.76314 2.75 25
      vertex -8.44328 5.35827 25
    endloop
  endfacet
  facet normal 0 0 1
    outer loop
      vertex -4.76314 -2.75 25
      vertex -8.09017 -5.87785 25
      vertex -7.70513 -6.37424 25
    endloop
  endfacet
  facet normal -0 0 1
    outer loop
      vertex -9.04827 4.25779 25
      vertex -4.76314 2.75 25
      vertex -8.76307 4.81754 25
    endloop
  endfacet
  facet normal 0 0 1
    outer loop
      vertex -4.76314 -2.75 25
      vertex -8.44328 -5.35827 25
      vertex -8.09017 -5.87785 25
    endloop
  endfacet
  facet normal -0 0 1
    outer loop
      vertex -9.29776 3.68124 25
      vertex -4.76314 2.75 25
      vertex -9.04827 4.25779 25
    endloop
  endfacet
  facet normal 0 0 1
    outer loop
      vertex -4.76314 -2.75 25
      vertex -8.76307 -4.81754 25
      vertex -8.44328 -5.35827 25
    endloop
  endfacet
  facet normal -0 0 1
    outer loop
      vertex -9.51056 3.09017 25
      vertex -4.76314 2.75 25
      vertex -9.29776 3.68124 25
    endloop
  endfacet
  facet normal 0 0 1
    outer loop
      vertex -4.76314 -2.75 25
      vertex -9.04827 -4.25779 25
      vertex -8.76307 -4.81754 25
    endloop
  endfacet
  facet normal 0 0 1
    outer loop
      vertex -9.68583 2.4869 25
      vertex -4.76314 2.75 25
      vertex -9.51056 3.09017 25
    endloop
  endfacet
  facet normal 0 0 1
    outer loop
      vertex -4.76314 -2.75 25
      vertex -9.29776 -3.68124 25
      vertex -9.04827 -4.25779 25
    endloop
  endfacet
  facet normal 0 0 1
    outer loop
      vertex -9.82287 1.87381 25
      vertex -4.76314 2.75 25
      vertex -9.68583 2.4869 25
    endloop
  endfacet
  facet normal 0 0 1
    outer loop
      vertex -4.76314 -2.75 25
      vertex -9.51056 -3.09017 25
      vertex -9.29776 -3.68124 25
    endloop
  endfacet
  facet normal 0 0 1
    outer loop
      vertex -9.92115 1.25333 25
      vertex -4.76314 2.75 25
      vertex -9.82287 1.87381 25
    endloop
  endfacet
  facet normal 0 0 1
    outer loop
      vertex -4.76314 -2.75 25
      vertex -9.68583 -2.4869 25
      vertex -9.51056 -3.09017 25
    endloop
  endfacet
  facet normal 0 0 1
    outer loop
      vertex -9.98027 0.627905 25
      vertex -4.76314 2.75 25
      vertex -9.92115 1.25333 25
    endloop
  endfacet
  facet normal 0 0 1
    outer loop
      vertex -4.76314 -2.75 25
      vertex -9.82287 -1.87381 25
      vertex -9.68583 -2.4869 25
    endloop
  endfacet
  facet normal 0 0 1
    outer loop
      vertex -10 0 25
      vertex -4.76314 2.75 25
      vertex -9.98027 0.627905 25
    endloop
  endfacet
  facet normal 0 0 1
    outer loop
      vertex -4.76314 -2.75 25
      vertex -9.92115 -1.25333 25
      vertex -9.82287 -1.87381 25
    endloop
  endfacet
  facet normal 0 0 1
    outer loop
      vertex -4.76314 2.75 25
      vertex -10 0 25
      vertex -4.76314 -2.75 25
    endloop
  endfacet
  facet normal 0 0 1
    outer loop
      vertex -4.76314 -2.75 25
      vertex -9.98027 -0.627905 25
      vertex -9.92115 -1.25333 25
    endloop
  endfacet
  facet normal 0 0 1
    outer loop
      vertex -4.76314 -2.75 25
      vertex -10 0 25
      vertex -9.98027 -0.627905 25
    endloop
  endfacet
  facet normal 0 0 1
    outer loop
      vertex 0 5.5 25
      vertex 4.76314 -2.75 25
      vertex 4.76314 2.75 25
    endloop
  endfacet
  facet normal 0 0 1
    outer loop
      vertex 0 5.5 25
      vertex 0 -5.5 25
      vertex 4.76314 -2.75 25
    endloop
  endfacet
  facet normal -0 0 1
    outer loop
      vertex -4.76314 2.75 25
      vertex 0 -5.5 25
      vertex 0 5.5 25
    endloop
  endfacet
  facet normal 0 0 1
    outer loop
      vertex 0 -5.5 25
      vertex -4.76314 2.75 25
      vertex -4.76314 -2.75 25
    endloop
  endfacet
  facet normal -0.0941082 -0.995562 0
    outer loop
      vertex -1.25333 -9.92115 0
      vertex -0.627905 -9.98027 25
      vertex -1.25333 -9.92115 25
    endloop
  endfacet
  facet normal -0.0941082 -0.995562 -0
    outer loop
      vertex -0.627905 -9.98027 25
      vertex -1.25333 -9.92115 0
      vertex -0.627905 -9.98027 0
    endloop
  endfacet
  facet normal 0.612907 0.790155 -0
    outer loop
      vertex 6.37424 7.70513 0
      vertex 5.87785 8.09017 25
      vertex 6.37424 7.70513 25
    endloop
  endfacet
  facet normal 0.612907 0.790155 0
    outer loop
      vertex 5.87785 8.09017 25
      vertex 6.37424 7.70513 0
      vertex 5.87785 8.09017 0
    endloop
  endfacet
  facet normal -0.827078 -0.562088 0
    outer loop
      vertex -8.09017 -5.87785 0
      vertex -8.44328 -5.35827 25
      vertex -8.44328 -5.35827 0
    endloop
  endfacet
  facet normal -0.827078 -0.562088 0
    outer loop
      vertex -8.44328 -5.35827 25
      vertex -8.09017 -5.87785 0
      vertex -8.09017 -5.87785 25
    endloop
  endfacet
  facet normal -0.790155 0.612907 0
    outer loop
      vertex -8.09017 5.87785 0
      vertex -7.70513 6.37424 25
      vertex -7.70513 6.37424 0
    endloop
  endfacet
  facet normal -0.790155 0.612907 0
    outer loop
      vertex -7.70513 6.37424 25
      vertex -8.09017 5.87785 0
      vertex -8.09017 5.87785 25
    endloop
  endfacet
  facet normal -0.999507 -0.0314065 0
    outer loop
      vertex -9.98027 -0.627905 0
      vertex -10 0 25
      vertex -10 0 0
    endloop
  endfacet
  facet normal -0.999507 -0.0314065 0
    outer loop
      vertex -10 0 25
      vertex -9.98027 -0.627905 0
      vertex -9.98027 -0.627905 25
    endloop
  endfacet
  facet normal 0 0 -1
    outer loop
      vertex 9.98027 -0.627905 0
      vertex 9.98027 0.627905 0
      vertex 10 0 0
    endloop
  endfacet
  facet normal 0 0 -1
    outer loop
      vertex 9.92115 -1.25333 0
      vertex 9.98027 0.627905 0
      vertex 9.98027 -0.627905 0
    endloop
  endfacet
  facet normal 0 0 -1
    outer loop
      vertex 9.92115 -1.25333 0
      vertex 9.92115 1.25333 0
      vertex 9.98027 0.627905 0
    endloop
  endfacet
  facet normal 0 0 -1
    outer loop
      vertex 9.82287 -1.87381 0
      vertex 9.92115 1.25333 0
      vertex 9.92115 -1.25333 0
    endloop
  endfacet
  facet normal 0 0 -1
    outer loop
      vertex 9.82287 -1.87381 0
      vertex 9.82287 1.87381 0
      vertex 9.92115 1.25333 0
    endloop
  endfacet
  facet normal 0 0 -1
    outer loop
      vertex 9.68583 -2.4869 0
      vertex 9.82287 1.87381 0
      vertex 9.82287 -1.87381 0
    endloop
  endfacet
  facet normal 0 0 -1
    outer loop
      vertex 9.68583 -2.4869 0
      vertex 9.68583 2.4869 0
      vertex 9.82287 1.87381 0
    endloop
  endfacet
  facet normal 0 0 -1
    outer loop
      vertex 9.51056 -3.09017 0
      vertex 9.68583 2.4869 0
      vertex 9.68583 -2.4869 0
    endloop
  endfacet
  facet normal 0 0 -1
    outer loop
      vertex 9.51056 -3.09017 0
      vertex 9.51056 3.09017 0
      vertex 9.68583 2.4869 0
    endloop
  endfacet
  facet normal 0 0 -1
    outer loop
      vertex 9.29776 -3.68124 0
      vertex 9.51056 3.09017 0
      vertex 9.51056 -3.09017 0
    endloop
  endfacet
  facet normal 0 0 -1
    outer loop
      vertex 9.29776 -3.68124 0
      vertex 9.29776 3.68124 0
      vertex 9.51056 3.09017 0
    endloop
  endfacet
  facet normal 0 0 -1
    outer loop
      vertex 9.04827 -4.25779 0
      vertex 9.29776 3.68124 0
      vertex 9.29776 -3.68124 0
    endloop
  endfacet
  facet normal 0 0 -1
    outer loop
      vertex 9.04827 -4.25779 0
      vertex 9.04827 4.25779 0
      vertex 9.29776 3.68124 0
    endloop
  endfacet
  facet normal 0 0 -1
    outer loop
      vertex 8.76307 -4.81754 0
      vertex 9.04827 4.25779 0
      vertex 9.04827 -4.25779 0
    endloop
  endfacet
  facet normal 0 0 -1
    outer loop
      vertex 8.76307 -4.81754 0
      vertex 8.76307 4.81754 0
      vertex 9.04827 4.25779 0
    endloop
  endfacet
  facet normal 0 0 -1
    outer loop
      vertex 8.44328 -5.35827 0
      vertex 8.76307 4.81754 0
      vertex 8.76307 -4.81754 0
    endloop
  endfacet
  facet normal 0 0 -1
    outer loop
      vertex 8.44328 -5.35827 0
      vertex 8.44328 5.35827 0
      vertex 8.76307 4.81754 0
    endloop
  endfacet
  facet normal 0 0 -1
    outer loop
      vertex 8.09017 -5.87785 0
      vertex 8.44328 5.35827 0
      vertex 8.44328 -5.35827 0
    endloop
  endfacet
  facet normal 0 0 -1
    outer loop
      vertex 8.09017 -5.87785 0
      vertex 8.09017 5.87785 0
      vertex 8.44328 5.35827 0
    endloop
  endfacet
  facet normal 0 0 -1
    outer loop
      vertex 7.70513 -6.37424 0
      vertex 8.09017 5.87785 0
      vertex 8.09017 -5.87785 0
    endloop
  endfacet
  facet normal 0 0 -1
    outer loop
      vertex 7.70513 -6.37424 0
      vertex 7.70513 6.37424 0
      vertex 8.09017 5.87785 0
    endloop
  endfacet
  facet normal 0 0 -1
    outer loop
      vertex 7.28969 -6.84547 0
      vertex 7.70513 6.37424 0
      vertex 7.70513 -6.37424 0
    endloop
  endfacet
  facet normal 0 0 -1
    outer loop
      vertex 7.28969 -6.84547 0
      vertex 7.28969 6.84547 0
      vertex 7.70513 6.37424 0
    endloop
  endfacet
  facet normal 0 0 -1
    outer loop
      vertex 6.84547 -7.28969 0
      vertex 7.28969 6.84547 0
      vertex 7.28969 -6.84547 0
    endloop
  endfacet
  facet normal 0 0 -1
    outer loop
      vertex 6.84547 -7.28969 0
      vertex 6.84547 7.28969 0
      vertex 7.28969 6.84547 0
    endloop
  endfacet
  facet normal 0 0 -1
    outer loop
      vertex 6.37424 -7.70513 0
      vertex 6.84547 7.28969 0
      vertex 6.84547 -7.28969 0
    endloop
  endfacet
  facet normal 0 0 -1
    outer loop
      vertex 6.37424 -7.70513 0
      vertex 6.37424 7.70513 0
      vertex 6.84547 7.28969 0
    endloop
  endfacet
  facet normal 0 0 -1
    outer loop
      vertex 5.87785 -8.09017 0
      vertex 6.37424 7.70513 0
      vertex 6.37424 -7.70513 0
    endloop
  endfacet
  facet normal 0 0 -1
    outer loop
      vertex 5.87785 -8.09017 0
      vertex 5.87785 8.09017 0
      vertex 6.37424 7.70513 0
    endloop
  endfacet
  facet normal 0 0 -1
    outer loop
      vertex 5.35827 -8.44328 0
      vertex 5.87785 8.09017 0
      vertex 5.87785 -8.09017 0
    endloop
  endfacet
  facet normal 0 0 -1
    outer loop
      vertex 5.35827 -8.44328 0
      vertex 5.35827 8.44328 0
      vertex 5.87785 8.09017 0
    endloop
  endfacet
  facet normal 0 0 -1
    outer loop
      vertex 4.81754 -8.76307 0
      vertex 5.35827 8.44328 0
      vertex 5.35827 -8.44328 0
    endloop
  endfacet
  facet normal 0 0 -1
    outer loop
      vertex 4.81754 -8.76307 0
      vertex 4.81754 8.76307 0
      vertex 5.35827 8.44328 0
    endloop
  endfacet
  facet normal 0 0 -1
    outer loop
      vertex 4.25779 -9.04827 0
      vertex 4.81754 8.76307 0
      vertex 4.81754 -8.76307 0
    endloop
  endfacet
  facet normal 0 0 -1
    outer loop
      vertex 4.25779 -9.04827 0
      vertex 4.25779 9.04827 0
      vertex 4.81754 8.76307 0
    endloop
  endfacet
  facet normal 0 0 -1
    outer loop
      vertex 3.68124 -9.29776 0
      vertex 4.25779 9.04827 0
      vertex 4.25779 -9.04827 0
    endloop
  endfacet
  facet normal 0 0 -1
    outer loop
      vertex 3.68124 -9.29776 0
      vertex 3.68124 9.29776 0
      vertex 4.25779 9.04827 0
    endloop
  endfacet
  facet normal 0 0 -1
    outer loop
      vertex 3.09017 -9.51056 0
      vertex 3.68124 9.29776 0
      vertex 3.68124 -9.29776 0
    endloop
  endfacet
  facet normal 0 0 -1
    outer loop
      vertex 3.09017 -9.51056 0
      vertex 3.09017 9.51056 0
      vertex 3.68124 9.29776 0
    endloop
  endfacet
  facet normal 0 0 -1
    outer loop
      vertex 2.4869 -9.68583 0
      vertex 3.09017 9.51056 0
      vertex 3.09017 -9.51056 0
    endloop
  endfacet
  facet normal 0 0 -1
    outer loop
      vertex 2.4869 -9.68583 0
      vertex 2.4869 9.68583 0
      vertex 3.09017 9.51056 0
    endloop
  endfacet
  facet normal 0 0 -1
    outer loop
      vertex 1.87381 -9.82287 0
      vertex 2.4869 9.68583 0
      vertex 2.4869 -9.68583 0
    endloop
  endfacet
  facet normal 0 0 -1
    outer loop
      vertex 1.87381 -9.82287 0
      vertex 1.87381 9.82287 0
      vertex 2.4869 9.68583 0
    endloop
  endfacet
  facet normal 0 0 -1
    outer loop
      vertex 1.25333 -9.92115 0
      vertex 1.87381 9.82287 0
      vertex 1.87381 -9.82287 0
    endloop
  endfacet
  facet normal 0 0 -1
    outer loop
      vertex 1.25333 -9.92115 0
      vertex 1.25333 9.92115 0
      vertex 1.87381 9.82287 0
    endloop
  endfacet
  facet normal 0 0 -1
    outer loop
      vertex 0.627905 -9.98027 0
      vertex 1.25333 9.92115 0
      vertex 1.25333 -9.92115 0
    endloop
  endfacet
  facet normal 0 0 -1
    outer loop
      vertex 0.627905 -9.98027 0
      vertex 0.627905 9.98027 0
      vertex 1.25333 9.92115 0
    endloop
  endfacet
  facet normal 0 0 -1
    outer loop
      vertex 0 -10 0
      vertex 0.627905 9.98027 0
      vertex 0.627905 -9.98027 0
    endloop
  endfacet
  facet normal 0 0 -1
    outer loop
      vertex 0 -10 0
      vertex 0 10 0
      vertex 0.627905 9.98027 0
    endloop
  endfacet
  facet normal 0 0 -1
    outer loop
      vertex -0.627905 -9.98027 0
      vertex 0 10 0
      vertex 0 -10 0
    endloop
  endfacet
  facet normal 0 0 -1
    outer loop
      vertex -0.627905 -9.98027 0
      vertex -0.627905 9.98027 0
      vertex 0 10 0
    endloop
  endfacet
  facet normal 0 0 -1
    outer loop
      vertex -1.25333 -9.92115 0
      vertex -0.627905 9.98027 0
      vertex -0.627905 -9.98027 0
    endloop
  endfacet
  facet normal 0 0 -1
    outer loop
      vertex -1.25333 -9.92115 0
      vertex -1.25333 9.92115 0
      vertex -0.627905 9.98027 0
    endloop
  endfacet
  facet normal 0 0 -1
    outer loop
      vertex -1.87381 -9.82287 0
      vertex -1.25333 9.92115 0
      vertex -1.25333 -9.92115 0
    endloop
  endfacet
  facet normal 0 0 -1
    outer loop
      vertex -1.87381 -9.82287 0
      vertex -1.87381 9.82287 0
      vertex -1.25333 9.92115 0
    endloop
  endfacet
  facet normal 0 0 -1
    outer loop
      vertex -2.4869 -9.68583 0
      vertex -1.87381 9.82287 0
      vertex -1.87381 -9.82287 0
    endloop
  endfacet
  facet normal 0 0 -1
    outer loop
      vertex -2.4869 -9.68583 0
      vertex -2.4869 9.68583 0
      vertex -1.87381 9.82287 0
    endloop
  endfacet
  facet normal 0 0 -1
    outer loop
      vertex -3.09017 -9.51056 0
      vertex -2.4869 9.68583 0
      vertex -2.4869 -9.68583 0
    endloop
  endfacet
  facet normal 0 0 -1
    outer loop
      vertex -3.09017 -9.51056 0
      vertex -3.09017 9.51056 0
      vertex -2.4869 9.68583 0
    endloop
  endfacet
  facet normal 0 0 -1
    outer loop
      vertex -3.68124 -9.29776 0
      vertex -3.09017 9.51056 0
      vertex -3.09017 -9.51056 0
    endloop
  endfacet
  facet normal 0 0 -1
    outer loop
      vertex -3.68124 -9.29776 0
      vertex -3.68124 9.29776 0
      vertex -3.09017 9.51056 0
    endloop
  endfacet
  facet normal 0 0 -1
    outer loop
      vertex -4.25779 -9.04827 0
      vertex -3.68124 9.29776 0
      vertex -3.68124 -9.29776 0
    endloop
  endfacet
  facet normal 0 0 -1
    outer loop
      vertex -4.25779 -9.04827 0
      vertex -4.25779 9.04827 0
      vertex -3.68124 9.29776 0
    endloop
  endfacet
  facet normal 0 0 -1
    outer loop
      vertex -4.81754 -8.76307 0
      vertex -4.25779 9.04827 0
      vertex -4.25779 -9.04827 0
    endloop
  endfacet
  facet normal 0 0 -1
    outer loop
      vertex -4.81754 -8.76307 0
      vertex -4.81754 8.76307 0
      vertex -4.25779 9.04827 0
    endloop
  endfacet
  facet normal 0 0 -1
    outer loop
      vertex -5.35827 -8.44328 0
      vertex -4.81754 8.76307 0
      vertex -4.81754 -8.76307 0
    endloop
  endfacet
  facet normal 0 0 -1
    outer loop
      vertex -5.35827 -8.44328 0
      vertex -5.35827 8.44328 0
      vertex -4.81754 8.76307 0
    endloop
  endfacet
  facet normal 0 0 -1
    outer loop
      vertex -5.87785 -8.09017 0
      vertex -5.35827 8.44328 0
      vertex -5.35827 -8.44328 0
    endloop
  endfacet
  facet normal 0 0 -1
    outer loop
      vertex -5.87785 -8.09017 0
      vertex -5.87785 8.09017 0
      vertex -5.35827 8.44328 0
    endloop
  endfacet
  facet normal 0 0 -1
    outer loop
      vertex -6.37424 -7.70513 0
      vertex -5.87785 8.09017 0
      vertex -5.87785 -8.09017 0
    endloop
  endfacet
  facet normal 0 0 -1
    outer loop
      vertex -6.37424 -7.70513 0
      vertex -6.37424 7.70513 0
      vertex -5.87785 8.09017 0
    endloop
  endfacet
  facet normal 0 0 -1
    outer loop
      vertex -6.84547 -7.28969 0
      vertex -6.37424 7.70513 0
      vertex -6.37424 -7.70513 0
    endloop
  endfacet
  facet normal 0 0 -1
    outer loop
      vertex -6.84547 -7.28969 0
      vertex -6.84547 7.28969 0
      vertex -6.37424 7.70513 0
    endloop
  endfacet
  facet normal 0 0 -1
    outer loop
      vertex -7.28969 -6.84547 0
      vertex -6.84547 7.28969 0
      vertex -6.84547 -7.28969 0
    endloop
  endfacet
  facet normal 0 0 -1
    outer loop
      vertex -7.28969 -6.84547 0
      vertex -7.28969 6.84547 0
      vertex -6.84547 7.28969 0
    endloop
  endfacet
  facet normal 0 0 -1
    outer loop
      vertex -7.70513 -6.37424 0
      vertex -7.28969 6.84547 0
      vertex -7.28969 -6.84547 0
    endloop
  endfacet
  facet normal 0 0 -1
    outer loop
      vertex -7.70513 -6.37424 0
      vertex -7.70513 6.37424 0
      vertex -7.28969 6.84547 0
    endloop
  endfacet
  facet normal 0 0 -1
    outer loop
      vertex -8.09017 -5.87785 0
      vertex -7.70513 6.37424 0
      vertex -7.70513 -6.37424 0
    endloop
  endfacet
  facet normal 0 0 -1
    outer loop
      vertex -8.09017 -5.87785 0
      vertex -8.09017 5.87785 0
      vertex -7.70513 6.37424 0
    endloop
  endfacet
  facet normal 0 0 -1
    outer loop
      vertex -8.44328 -5.35827 0
      vertex -8.09017 5.87785 0
      vertex -8.09017 -5.87785 0
    endloop
  endfacet
  facet normal 0 0 -1
    outer loop
      vertex -8.44328 -5.35827 0
      vertex -8.44328 5.35827 0
      vertex -8.09017 5.87785 0
    endloop
  endfacet
  facet normal 0 0 -1
    outer loop
      vertex -8.76307 -4.81754 0
      vertex -8.44328 5.35827 0
      vertex -8.44328 -5.35827 0
    endloop
  endfacet
  facet normal 0 0 -1
    outer loop
      vertex -8.76307 -4.81754 0
      vertex -8.76307 4.81754 0
      vertex -8.44328 5.35827 0
    endloop
  endfacet
  facet normal 0 0 -1
    outer loop
      vertex -9.04827 -4.25779 0
      vertex -8.76307 4.81754 0
      vertex -8.76307 -4.81754 0
    endloop
  endfacet
  facet normal 0 0 -1
    outer loop
      vertex -9.04827 -4.25779 0
      vertex -9.04827 4.25779 0
      vertex -8.76307 4.81754 0
    endloop
  endfacet
  facet normal 0 0 -1
    outer loop
      vertex -9.29776 -3.68124 0
      vertex -9.04827 4.25779 0
      vertex -9.04827 -4.25779 0
    endloop
  endfacet
  facet normal 0 0 -1
    outer loop
      vertex -9.29776 -3.68124 0
      vertex -9.29776 3.68124 0
      vertex -9.04827 4.25779 0
    endloop
  endfacet
  facet normal 0 0 -1
    outer loop
      vertex -9.51056 -3.09017 0
      vertex -9.29776 3.68124 0
      vertex -9.29776 -3.68124 0
    endloop
  endfacet
  facet normal 0 0 -1
    outer loop
      vertex -9.51056 -3.09017 0
      vertex -9.51056 3.09017 0
      vertex -9.29776 3.68124 0
    endloop
  endfacet
  facet normal 0 0 -1
    outer loop
      vertex -9.68583 -2.4869 0
      vertex -9.51056 3.09017 0
      vertex -9.51056 -3.09017 0
    endloop
  endfacet
  facet normal 0 0 -1
    outer loop
      vertex -9.68583 -2.4869 0
      vertex -9.68583 2.4869 0
      vertex -9.51056 3.09017 0
    endloop
  endfacet
  facet normal 0 0 -1
    outer loop
      vertex -9.82287 -1.87381 0
      vertex -9.68583 2.4869 0
      vertex -9.68583 -2.4869 0
    endloop
  endfacet
  facet normal 0 0 -1
    outer loop
      vertex -9.82287 -1.87381 0
      vertex -9.82287 1.87381 0
      vertex -9.68583 2.4869 0
    endloop
  endfacet
  facet normal 0 0 -1
    outer loop
      vertex -9.92115 -1.25333 0
      vertex -9.82287 1.87381 0
      vertex -9.82287 -1.87381 0
    endloop
  endfacet
  facet normal 0 0 -1
    outer loop
      vertex -9.92115 -1.25333 0
      vertex -9.92115 1.25333 0
      vertex -9.82287 1.87381 0
    endloop
  endfacet
  facet normal 0 0 -1
    outer loop
      vertex -9.98027 -0.627905 0
      vertex -9.92115 1.25333 0
      vertex -9.92115 -1.25333 0
    endloop
  endfacet
  facet normal 0 0 -1
    outer loop
      vertex -9.98027 -0.627905 0
      vertex -9.98027 0.627905 0
      vertex -9.92115 1.25333 0
    endloop
  endfacet
  facet normal 0 -0 -1
    outer loop
      vertex -9.98027 0.627905 0
      vertex -9.98027 -0.627905 0
      vertex -10 0 0
    endloop
  endfacet
  facet normal -0.612907 0.790155 0
    outer loop
      vertex -5.87785 8.09017 0
      vertex -6.37424 7.70513 25
      vertex -5.87785 8.09017 25
    endloop
  endfacet
  facet normal -0.612907 0.790155 0
    outer loop
      vertex -6.37424 7.70513 25
      vertex -5.87785 8.09017 0
      vertex -6.37424 7.70513 0
    endloop
  endfacet
  facet normal 0.917758 -0.397141 0
    outer loop
      vertex 9.04827 -4.25779 25
      vertex 9.29776 -3.68124 0
      vertex 9.29776 -3.68124 25
    endloop
  endfacet
  facet normal 0.917758 -0.397141 0
    outer loop
      vertex 9.29776 -3.68124 0
      vertex 9.04827 -4.25779 25
      vertex 9.04827 -4.25779 0
    endloop
  endfacet
  facet normal 0.278997 -0.960292 0
    outer loop
      vertex 2.4869 -9.68583 0
      vertex 3.09017 -9.51056 25
      vertex 2.4869 -9.68583 25
    endloop
  endfacet
  facet normal 0.278997 -0.960292 0
    outer loop
      vertex 3.09017 -9.51056 25
      vertex 2.4869 -9.68583 0
      vertex 3.09017 -9.51056 0
    endloop
  endfacet
  facet normal 0.827078 0.562088 0
    outer loop
      vertex 8.44328 5.35827 25
      vertex 8.09017 5.87785 0
      vertex 8.09017 5.87785 25
    endloop
  endfacet
  facet normal 0.827078 0.562088 0
    outer loop
      vertex 8.09017 5.87785 0
      vertex 8.44328 5.35827 25
      vertex 8.44328 5.35827 0
    endloop
  endfacet
  facet normal 0.156443 0.987687 -0
    outer loop
      vertex 1.87381 9.82287 0
      vertex 1.25333 9.92115 25
      vertex 1.87381 9.82287 25
    endloop
  endfacet
  facet normal 0.156443 0.987687 0
    outer loop
      vertex 1.25333 9.92115 25
      vertex 1.87381 9.82287 0
      vertex 1.25333 9.92115 0
    endloop
  endfacet
  facet normal 0.891011 -0.453982 0
    outer loop
      vertex 8.76307 -4.81754 25
      vertex 9.04827 -4.25779 0
      vertex 9.04827 -4.25779 25
    endloop
  endfacet
  facet normal 0.891011 -0.453982 0
    outer loop
      vertex 9.04827 -4.25779 0
      vertex 8.76307 -4.81754 25
      vertex 8.76307 -4.81754 0
    endloop
  endfacet
  facet normal -0.94088 -0.33874 0
    outer loop
      vertex -9.29776 -3.68124 0
      vertex -9.51056 -3.09017 25
      vertex -9.51056 -3.09017 0
    endloop
  endfacet
  facet normal -0.94088 -0.33874 0
    outer loop
      vertex -9.51056 -3.09017 25
      vertex -9.29776 -3.68124 0
      vertex -9.29776 -3.68124 25
    endloop
  endfacet
  facet normal -0.562088 0.827078 0
    outer loop
      vertex -5.35827 8.44328 0
      vertex -5.87785 8.09017 25
      vertex -5.35827 8.44328 25
    endloop
  endfacet
  facet normal -0.562088 0.827078 0
    outer loop
      vertex -5.87785 8.09017 25
      vertex -5.35827 8.44328 0
      vertex -5.87785 8.09017 0
    endloop
  endfacet
  facet normal 0.453982 0.891011 -0
    outer loop
      vertex 4.81754 8.76307 0
      vertex 4.25779 9.04827 25
      vertex 4.81754 8.76307 25
    endloop
  endfacet
  facet normal 0.453982 0.891011 0
    outer loop
      vertex 4.25779 9.04827 25
      vertex 4.81754 8.76307 0
      vertex 4.25779 9.04827 0
    endloop
  endfacet
  facet normal 0.999507 -0.0314065 0
    outer loop
      vertex 9.98027 -0.627905 25
      vertex 10 0 0
      vertex 10 0 25
    endloop
  endfacet
  facet normal 0.999507 -0.0314065 0
    outer loop
      vertex 10 0 0
      vertex 9.98027 -0.627905 25
      vertex 9.98027 -0.627905 0
    endloop
  endfacet
  facet normal -0.995562 -0.0941082 0
    outer loop
      vertex -9.92115 -1.25333 0
      vertex -9.98027 -0.627905 25
      vertex -9.98027 -0.627905 0
    endloop
  endfacet
  facet normal -0.995562 -0.0941082 0
    outer loop
      vertex -9.98027 -0.627905 25
      vertex -9.92115 -1.25333 0
      vertex -9.92115 -1.25333 25
    endloop
  endfacet
  facet normal 0.960292 0.278997 0
    outer loop
      vertex 9.68583 2.4869 25
      vertex 9.51056 3.09017 0
      vertex 9.51056 3.09017 25
    endloop
  endfacet
  facet normal 0.960292 0.278997 0
    outer loop
      vertex 9.51056 3.09017 0
      vertex 9.68583 2.4869 25
      vertex 9.68583 2.4869 0
    endloop
  endfacet
  facet normal 0.509045 0.86074 -0
    outer loop
      vertex 5.35827 8.44328 0
      vertex 4.81754 8.76307 25
      vertex 5.35827 8.44328 25
    endloop
  endfacet
  facet normal 0.509045 0.86074 0
    outer loop
      vertex 4.81754 8.76307 25
      vertex 5.35827 8.44328 0
      vertex 4.81754 8.76307 0
    endloop
  endfacet
  facet normal 0.562088 0.827078 -0
    outer loop
      vertex 5.87785 8.09017 0
      vertex 5.35827 8.44328 25
      vertex 5.87785 8.09017 25
    endloop
  endfacet
  facet normal 0.562088 0.827078 0
    outer loop
      vertex 5.35827 8.44328 25
      vertex 5.87785 8.09017 0
      vertex 5.35827 8.44328 0
    endloop
  endfacet
  facet normal 0.33874 -0.94088 0
    outer loop
      vertex 3.09017 -9.51056 0
      vertex 3.68124 -9.29776 25
      vertex 3.09017 -9.51056 25
    endloop
  endfacet
  facet normal 0.33874 -0.94088 0
    outer loop
      vertex 3.68124 -9.29776 25
      vertex 3.09017 -9.51056 0
      vertex 3.68124 -9.29776 0
    endloop
  endfacet
  facet normal -0.917758 -0.397141 0
    outer loop
      vertex -9.04827 -4.25779 0
      vertex -9.29776 -3.68124 25
      vertex -9.29776 -3.68124 0
    endloop
  endfacet
  facet normal -0.917758 -0.397141 0
    outer loop
      vertex -9.29776 -3.68124 25
      vertex -9.04827 -4.25779 0
      vertex -9.04827 -4.25779 25
    endloop
  endfacet
  facet normal 0.0314065 -0.999507 0
    outer loop
      vertex 0 -10 0
      vertex 0.627905 -9.98027 25
      vertex 0 -10 25
    endloop
  endfacet
  facet normal 0.0314065 -0.999507 0
    outer loop
      vertex 0.627905 -9.98027 25
      vertex 0 -10 0
      vertex 0.627905 -9.98027 0
    endloop
  endfacet
  facet normal -0.33874 -0.94088 0
    outer loop
      vertex -3.68124 -9.29776 0
      vertex -3.09017 -9.51056 25
      vertex -3.68124 -9.29776 25
    endloop
  endfacet
  facet normal -0.33874 -0.94088 -0
    outer loop
      vertex -3.09017 -9.51056 25
      vertex -3.68124 -9.29776 0
      vertex -3.09017 -9.51056 0
    endloop
  endfacet
  facet normal -0.975917 0.21814 0
    outer loop
      vertex -9.82287 1.87381 0
      vertex -9.68583 2.4869 25
      vertex -9.68583 2.4869 0
    endloop
  endfacet
  facet normal -0.975917 0.21814 0
    outer loop
      vertex -9.68583 2.4869 25
      vertex -9.82287 1.87381 0
      vertex -9.82287 1.87381 25
    endloop
  endfacet
  facet normal 0.960292 -0.278997 0
    outer loop
      vertex 9.51056 -3.09017 25
      vertex 9.68583 -2.4869 0
      vertex 9.68583 -2.4869 25
    endloop
  endfacet
  facet normal 0.960292 -0.278997 0
    outer loop
      vertex 9.68583 -2.4869 0
      vertex 9.51056 -3.09017 25
      vertex 9.51056 -3.09017 0
    endloop
  endfacet
  facet normal -0.21814 -0.975917 0
    outer loop
      vertex -2.4869 -9.68583 0
      vertex -1.87381 -9.82287 25
      vertex -2.4869 -9.68583 25
    endloop
  endfacet
  facet normal -0.21814 -0.975917 -0
    outer loop
      vertex -1.87381 -9.82287 25
      vertex -2.4869 -9.68583 0
      vertex -1.87381 -9.82287 0
    endloop
  endfacet
  facet normal 0.0941082 0.995562 -0
    outer loop
      vertex 1.25333 9.92115 0
      vertex 0.627905 9.98027 25
      vertex 1.25333 9.92115 25
    endloop
  endfacet
  facet normal 0.0941082 0.995562 0
    outer loop
      vertex 0.627905 9.98027 25
      vertex 1.25333 9.92115 0
      vertex 0.627905 9.98027 0
    endloop
  endfacet
  facet normal -0.33874 0.94088 0
    outer loop
      vertex -3.09017 9.51056 0
      vertex -3.68124 9.29776 25
      vertex -3.09017 9.51056 25
    endloop
  endfacet
  facet normal -0.33874 0.94088 0
    outer loop
      vertex -3.68124 9.29776 25
      vertex -3.09017 9.51056 0
      vertex -3.68124 9.29776 0
    endloop
  endfacet
  facet normal 0.790155 -0.612907 0
    outer loop
      vertex 7.70513 -6.37424 25
      vertex 8.09017 -5.87785 0
      vertex 8.09017 -5.87785 25
    endloop
  endfacet
  facet normal 0.790155 -0.612907 0
    outer loop
      vertex 8.09017 -5.87785 0
      vertex 7.70513 -6.37424 25
      vertex 7.70513 -6.37424 0
    endloop
  endfacet
  facet normal 0.156443 -0.987687 0
    outer loop
      vertex 1.25333 -9.92115 0
      vertex 1.87381 -9.82287 25
      vertex 1.25333 -9.92115 25
    endloop
  endfacet
  facet normal 0.156443 -0.987687 0
    outer loop
      vertex 1.87381 -9.82287 25
      vertex 1.25333 -9.92115 0
      vertex 1.87381 -9.82287 0
    endloop
  endfacet
  facet normal -0.278997 -0.960292 0
    outer loop
      vertex -3.09017 -9.51056 0
      vertex -2.4869 -9.68583 25
      vertex -3.09017 -9.51056 25
    endloop
  endfacet
  facet normal -0.278997 -0.960292 -0
    outer loop
      vertex -2.4869 -9.68583 25
      vertex -3.09017 -9.51056 0
      vertex -2.4869 -9.68583 0
    endloop
  endfacet
  facet normal 0.94088 -0.33874 0
    outer loop
      vertex 9.29776 -3.68124 25
      vertex 9.51056 -3.09017 0
      vertex 9.51056 -3.09017 25
    endloop
  endfacet
  facet normal 0.94088 -0.33874 0
    outer loop
      vertex 9.51056 -3.09017 0
      vertex 9.29776 -3.68124 25
      vertex 9.29776 -3.68124 0
    endloop
  endfacet
  facet normal 0.827078 -0.562088 0
    outer loop
      vertex 8.09017 -5.87785 25
      vertex 8.44328 -5.35827 0
      vertex 8.44328 -5.35827 25
    endloop
  endfacet
  facet normal 0.827078 -0.562088 0
    outer loop
      vertex 8.44328 -5.35827 0
      vertex 8.09017 -5.87785 25
      vertex 8.09017 -5.87785 0
    endloop
  endfacet
  facet normal 0.661307 0.750115 -0
    outer loop
      vertex 6.84547 7.28969 0
      vertex 6.37424 7.70513 25
      vertex 6.84547 7.28969 25
    endloop
  endfacet
  facet normal 0.661307 0.750115 0
    outer loop
      vertex 6.37424 7.70513 25
      vertex 6.84547 7.28969 0
      vertex 6.37424 7.70513 0
    endloop
  endfacet
  facet normal 0.453982 -0.891011 0
    outer loop
      vertex 4.25779 -9.04827 0
      vertex 4.81754 -8.76307 25
      vertex 4.25779 -9.04827 25
    endloop
  endfacet
  facet normal 0.453982 -0.891011 0
    outer loop
      vertex 4.81754 -8.76307 25
      vertex 4.25779 -9.04827 0
      vertex 4.81754 -8.76307 0
    endloop
  endfacet
  facet normal -0.0941082 0.995562 0
    outer loop
      vertex -0.627905 9.98027 0
      vertex -1.25333 9.92115 25
      vertex -0.627905 9.98027 25
    endloop
  endfacet
  facet normal -0.0941082 0.995562 0
    outer loop
      vertex -1.25333 9.92115 25
      vertex -0.627905 9.98027 0
      vertex -1.25333 9.92115 0
    endloop
  endfacet
  facet normal 0.707107 -0.707107 0
    outer loop
      vertex 6.84547 -7.28969 25
      vertex 7.28969 -6.84547 0
      vertex 7.28969 -6.84547 25
    endloop
  endfacet
  facet normal 0.707107 -0.707107 0
    outer loop
      vertex 7.28969 -6.84547 0
      vertex 6.84547 -7.28969 25
      vertex 6.84547 -7.28969 0
    endloop
  endfacet
  facet normal -0.827078 0.562088 0
    outer loop
      vertex -8.44328 5.35827 0
      vertex -8.09017 5.87785 25
      vertex -8.09017 5.87785 0
    endloop
  endfacet
  facet normal -0.827078 0.562088 0
    outer loop
      vertex -8.09017 5.87785 25
      vertex -8.44328 5.35827 0
      vertex -8.44328 5.35827 25
    endloop
  endfacet
  facet normal -0.156443 -0.987687 0
    outer loop
      vertex -1.87381 -9.82287 0
      vertex -1.25333 -9.92115 25
      vertex -1.87381 -9.82287 25
    endloop
  endfacet
  facet normal -0.156443 -0.987687 -0
    outer loop
      vertex -1.25333 -9.92115 25
      vertex -1.87381 -9.82287 0
      vertex -1.25333 -9.92115 0
    endloop
  endfacet
  facet normal 0.86074 0.509045 0
    outer loop
      vertex 8.76307 4.81754 25
      vertex 8.44328 5.35827 0
      vertex 8.44328 5.35827 25
    endloop
  endfacet
  facet normal 0.86074 0.509045 0
    outer loop
      vertex 8.44328 5.35827 0
      vertex 8.76307 4.81754 25
      vertex 8.76307 4.81754 0
    endloop
  endfacet
  facet normal 0.94088 0.33874 0
    outer loop
      vertex 9.51056 3.09017 25
      vertex 9.29776 3.68124 0
      vertex 9.29776 3.68124 25
    endloop
  endfacet
  facet normal 0.94088 0.33874 0
    outer loop
      vertex 9.29776 3.68124 0
      vertex 9.51056 3.09017 25
      vertex 9.51056 3.09017 0
    endloop
  endfacet
  facet normal -0.960292 -0.278997 0
    outer loop
      vertex -9.51056 -3.09017 0
      vertex -9.68583 -2.4869 25
      vertex -9.68583 -2.4869 0
    endloop
  endfacet
  facet normal -0.960292 -0.278997 0
    outer loop
      vertex -9.68583 -2.4869 25
      vertex -9.51056 -3.09017 0
      vertex -9.51056 -3.09017 25
    endloop
  endfacet
  facet normal 0.891011 0.453982 0
    outer loop
      vertex 9.04827 4.25779 25
      vertex 8.76307 4.81754 0
      vertex 8.76307 4.81754 25
    endloop
  endfacet
  facet normal 0.891011 0.453982 0
    outer loop
      vertex 8.76307 4.81754 0
      vertex 9.04827 4.25779 25
      vertex 9.04827 4.25779 0
    endloop
  endfacet
  facet normal 0.995562 -0.0941082 0
    outer loop
      vertex 9.92115 -1.25333 25
      vertex 9.98027 -0.627905 0
      vertex 9.98027 -0.627905 25
    endloop
  endfacet
  facet normal 0.995562 -0.0941082 0
    outer loop
      vertex 9.98027 -0.627905 0
      vertex 9.92115 -1.25333 25
      vertex 9.92115 -1.25333 0
    endloop
  endfacet
  facet normal 0.21814 0.975917 -0
    outer loop
      vertex 2.4869 9.68583 0
      vertex 1.87381 9.82287 25
      vertex 2.4869 9.68583 25
    endloop
  endfacet
  facet normal 0.21814 0.975917 0
    outer loop
      vertex 1.87381 9.82287 25
      vertex 2.4869 9.68583 0
      vertex 1.87381 9.82287 0
    endloop
  endfacet
  facet normal -0.509045 0.86074 0
    outer loop
      vertex -4.81754 8.76307 0
      vertex -5.35827 8.44328 25
      vertex -4.81754 8.76307 25
    endloop
  endfacet
  facet normal -0.509045 0.86074 0
    outer loop
      vertex -5.35827 8.44328 25
      vertex -4.81754 8.76307 0
      vertex -5.35827 8.44328 0
    endloop
  endfacet
  facet normal -0.995562 0.0941082 0
    outer loop
      vertex -9.98027 0.627905 0
      vertex -9.92115 1.25333 25
      vertex -9.92115 1.25333 0
    endloop
  endfacet
  facet normal -0.995562 0.0941082 0
    outer loop
      vertex -9.92115 1.25333 25
      vertex -9.98027 0.627905 0
      vertex -9.98027 0.627905 25
    endloop
  endfacet
  facet normal -0.156443 0.987687 0
    outer loop
      vertex -1.25333 9.92115 0
      vertex -1.87381 9.82287 25
      vertex -1.25333 9.92115 25
    endloop
  endfacet
  facet normal -0.156443 0.987687 0
    outer loop
      vertex -1.87381 9.82287 25
      vertex -1.25333 9.92115 0
      vertex -1.87381 9.82287 0
    endloop
  endfacet
  facet normal -0.987687 -0.156443 0
    outer loop
      vertex -9.82287 -1.87381 0
      vertex -9.92115 -1.25333 25
      vertex -9.92115 -1.25333 0
    endloop
  endfacet
  facet normal -0.987687 -0.156443 0
    outer loop
      vertex -9.92115 -1.25333 25
      vertex -9.82287 -1.87381 0
      vertex -9.82287 -1.87381 25
    endloop
  endfacet
  facet normal 0.790155 0.612907 0
    outer loop
      vertex 8.09017 5.87785 25
      vertex 7.70513 6.37424 0
      vertex 7.70513 6.37424 25
    endloop
  endfacet
  facet normal 0.790155 0.612907 0
    outer loop
      vertex 7.70513 6.37424 0
      vertex 8.09017 5.87785 25
      vertex 8.09017 5.87785 0
    endloop
  endfacet
  facet normal -0.790155 -0.612907 0
    outer loop
      vertex -7.70513 -6.37424 0
      vertex -8.09017 -5.87785 25
      vertex -8.09017 -5.87785 0
    endloop
  endfacet
  facet normal -0.790155 -0.612907 0
    outer loop
      vertex -8.09017 -5.87785 25
      vertex -7.70513 -6.37424 0
      vertex -7.70513 -6.37424 25
    endloop
  endfacet
  facet normal -0.917758 0.397141 0
    outer loop
      vertex -9.29776 3.68124 0
      vertex -9.04827 4.25779 25
      vertex -9.04827 4.25779 0
    endloop
  endfacet
  facet normal -0.917758 0.397141 0
    outer loop
      vertex -9.04827 4.25779 25
      vertex -9.29776 3.68124 0
      vertex -9.29776 3.68124 25
    endloop
  endfacet
  facet normal -0.86074 0.509045 0
    outer loop
      vertex -8.76307 4.81754 0
      vertex -8.44328 5.35827 25
      vertex -8.44328 5.35827 0
    endloop
  endfacet
  facet normal -0.86074 0.509045 0
    outer loop
      vertex -8.44328 5.35827 25
      vertex -8.76307 4.81754 0
      vertex -8.76307 4.81754 25
    endloop
  endfacet
  facet normal 0.509045 -0.86074 0
    outer loop
      vertex 4.81754 -8.76307 0
      vertex 5.35827 -8.44328 25
      vertex 4.81754 -8.76307 25
    endloop
  endfacet
  facet normal 0.509045 -0.86074 0
    outer loop
      vertex 5.35827 -8.44328 25
      vertex 4.81754 -8.76307 0
      vertex 5.35827 -8.44328 0
    endloop
  endfacet
  facet normal 0.0941082 -0.995562 0
    outer loop
      vertex 0.627905 -9.98027 0
      vertex 1.25333 -9.92115 25
      vertex 0.627905 -9.98027 25
    endloop
  endfacet
  facet normal 0.0941082 -0.995562 0
    outer loop
      vertex 1.25333 -9.92115 25
      vertex 0.627905 -9.98027 0
      vertex 1.25333 -9.92115 0
    endloop
  endfacet
  facet normal 0.397141 0.917758 -0
    outer loop
      vertex 4.25779 9.04827 0
      vertex 3.68124 9.29776 25
      vertex 4.25779 9.04827 25
    endloop
  endfacet
  facet normal 0.397141 0.917758 0
    outer loop
      vertex 3.68124 9.29776 25
      vertex 4.25779 9.04827 0
      vertex 3.68124 9.29776 0
    endloop
  endfacet
  facet normal 0.33874 0.94088 -0
    outer loop
      vertex 3.68124 9.29776 0
      vertex 3.09017 9.51056 25
      vertex 3.68124 9.29776 25
    endloop
  endfacet
  facet normal 0.33874 0.94088 0
    outer loop
      vertex 3.09017 9.51056 25
      vertex 3.68124 9.29776 0
      vertex 3.09017 9.51056 0
    endloop
  endfacet
  facet normal -0.999507 0.0314065 0
    outer loop
      vertex -10 0 0
      vertex -9.98027 0.627905 25
      vertex -9.98027 0.627905 0
    endloop
  endfacet
  facet normal -0.999507 0.0314065 0
    outer loop
      vertex -9.98027 0.627905 25
      vertex -10 0 0
      vertex -10 0 25
    endloop
  endfacet
  facet normal -0.707107 0.707107 0
    outer loop
      vertex -7.28969 6.84547 0
      vertex -6.84547 7.28969 25
      vertex -6.84547 7.28969 0
    endloop
  endfacet
  facet normal -0.707107 0.707107 0
    outer loop
      vertex -6.84547 7.28969 25
      vertex -7.28969 6.84547 0
      vertex -7.28969 6.84547 25
    endloop
  endfacet
  facet normal 0.86074 -0.509045 0
    outer loop
      vertex 8.44328 -5.35827 25
      vertex 8.76307 -4.81754 0
      vertex 8.76307 -4.81754 25
    endloop
  endfacet
  facet normal 0.86074 -0.509045 0
    outer loop
      vertex 8.76307 -4.81754 0
      vertex 8.44328 -5.35827 25
      vertex 8.44328 -5.35827 0
    endloop
  endfacet
  facet normal 0.21814 -0.975917 0
    outer loop
      vertex 1.87381 -9.82287 0
      vertex 2.4869 -9.68583 25
      vertex 1.87381 -9.82287 25
    endloop
  endfacet
  facet normal 0.21814 -0.975917 0
    outer loop
      vertex 2.4869 -9.68583 25
      vertex 1.87381 -9.82287 0
      vertex 2.4869 -9.68583 0
    endloop
  endfacet
  facet normal 0.750115 -0.661307 0
    outer loop
      vertex 7.28969 -6.84547 25
      vertex 7.70513 -6.37424 0
      vertex 7.70513 -6.37424 25
    endloop
  endfacet
  facet normal 0.750115 -0.661307 0
    outer loop
      vertex 7.70513 -6.37424 0
      vertex 7.28969 -6.84547 25
      vertex 7.28969 -6.84547 0
    endloop
  endfacet
  facet normal 0.661307 -0.750115 0
    outer loop
      vertex 6.37424 -7.70513 0
      vertex 6.84547 -7.28969 25
      vertex 6.37424 -7.70513 25
    endloop
  endfacet
  facet normal 0.661307 -0.750115 0
    outer loop
      vertex 6.84547 -7.28969 25
      vertex 6.37424 -7.70513 0
      vertex 6.84547 -7.28969 0
    endloop
  endfacet
  facet normal -0.891011 -0.453982 0
    outer loop
      vertex -8.76307 -4.81754 0
      vertex -9.04827 -4.25779 25
      vertex -9.04827 -4.25779 0
    endloop
  endfacet
  facet normal -0.891011 -0.453982 0
    outer loop
      vertex -9.04827 -4.25779 25
      vertex -8.76307 -4.81754 0
      vertex -8.76307 -4.81754 25
    endloop
  endfacet
  facet normal -0.86074 -0.509045 0
    outer loop
      vertex -8.44328 -5.35827 0
      vertex -8.76307 -4.81754 25
      vertex -8.76307 -4.81754 0
    endloop
  endfacet
  facet normal -0.86074 -0.509045 0
    outer loop
      vertex -8.76307 -4.81754 25
      vertex -8.44328 -5.35827 0
      vertex -8.44328 -5.35827 25
    endloop
  endfacet
  facet normal 0.707107 0.707107 0
    outer loop
      vertex 7.28969 6.84547 25
      vertex 6.84547 7.28969 0
      vertex 6.84547 7.28969 25
    endloop
  endfacet
  facet normal 0.707107 0.707107 0
    outer loop
      vertex 6.84547 7.28969 0
      vertex 7.28969 6.84547 25
      vertex 7.28969 6.84547 0
    endloop
  endfacet
  facet normal -0.509045 -0.86074 0
    outer loop
      vertex -5.35827 -8.44328 0
      vertex -4.81754 -8.76307 25
      vertex -5.35827 -8.44328 25
    endloop
  endfacet
  facet normal -0.509045 -0.86074 -0
    outer loop
      vertex -4.81754 -8.76307 25
      vertex -5.35827 -8.44328 0
      vertex -4.81754 -8.76307 0
    endloop
  endfacet
  facet normal -0.987687 0.156443 0
    outer loop
      vertex -9.92115 1.25333 0
      vertex -9.82287 1.87381 25
      vertex -9.82287 1.87381 0
    endloop
  endfacet
  facet normal -0.987687 0.156443 0
    outer loop
      vertex -9.82287 1.87381 25
      vertex -9.92115 1.25333 0
      vertex -9.92115 1.25333 25
    endloop
  endfacet
  facet normal 0.975917 -0.21814 0
    outer loop
      vertex 9.68583 -2.4869 25
      vertex 9.82287 -1.87381 0
      vertex 9.82287 -1.87381 25
    endloop
  endfacet
  facet normal 0.975917 -0.21814 0
    outer loop
      vertex 9.82287 -1.87381 0
      vertex 9.68583 -2.4869 25
      vertex 9.68583 -2.4869 0
    endloop
  endfacet
  facet normal -0.0314065 -0.999507 0
    outer loop
      vertex -0.627905 -9.98027 0
      vertex 0 -10 25
      vertex -0.627905 -9.98027 25
    endloop
  endfacet
  facet normal -0.0314065 -0.999507 -0
    outer loop
      vertex 0 -10 25
      vertex -0.627905 -9.98027 0
      vertex 0 -10 0
    endloop
  endfacet
  facet normal 0.917758 0.397141 0
    outer loop
      vertex 9.29776 3.68124 25
      vertex 9.04827 4.25779 0
      vertex 9.04827 4.25779 25
    endloop
  endfacet
  facet normal 0.917758 0.397141 0
    outer loop
      vertex 9.04827 4.25779 0
      vertex 9.29776 3.68124 25
      vertex 9.29776 3.68124 0
    endloop
  endfacet
  facet normal -0.661307 0.750115 0
    outer loop
      vertex -6.37424 7.70513 0
      vertex -6.84547 7.28969 25
      vertex -6.37424 7.70513 25
    endloop
  endfacet
  facet normal -0.661307 0.750115 0
    outer loop
      vertex -6.84547 7.28969 25
      vertex -6.37424 7.70513 0
      vertex -6.84547 7.28969 0
    endloop
  endfacet
  facet normal -0.0314065 0.999507 0
    outer loop
      vertex 0 10 0
      vertex -0.627905 9.98027 25
      vertex 0 10 25
    endloop
  endfacet
  facet normal -0.0314065 0.999507 0
    outer loop
      vertex -0.627905 9.98027 25
      vertex 0 10 0
      vertex -0.627905 9.98027 0
    endloop
  endfacet
  facet normal 0.987687 -0.156443 0
    outer loop
      vertex 9.82287 -1.87381 25
      vertex 9.92115 -1.25333 0
      vertex 9.92115 -1.25333 25
    endloop
  endfacet
  facet normal 0.987687 -0.156443 0
    outer loop
      vertex 9.92115 -1.25333 0
      vertex 9.82287 -1.87381 25
      vertex 9.82287 -1.87381 0
    endloop
  endfacet
  facet normal 0.397141 -0.917758 0
    outer loop
      vertex 3.68124 -9.29776 0
      vertex 4.25779 -9.04827 25
      vertex 3.68124 -9.29776 25
    endloop
  endfacet
  facet normal 0.397141 -0.917758 0
    outer loop
      vertex 4.25779 -9.04827 25
      vertex 3.68124 -9.29776 0
      vertex 4.25779 -9.04827 0
    endloop
  endfacet
  facet normal -0.278997 0.960292 0
    outer loop
      vertex -2.4869 9.68583 0
      vertex -3.09017 9.51056 25
      vertex -2.4869 9.68583 25
    endloop
  endfacet
  facet normal -0.278997 0.960292 0
    outer loop
      vertex -3.09017 9.51056 25
      vertex -2.4869 9.68583 0
      vertex -3.09017 9.51056 0
    endloop
  endfacet
  facet normal 0.750115 0.661307 0
    outer loop
      vertex 7.70513 6.37424 25
      vertex 7.28969 6.84547 0
      vertex 7.28969 6.84547 25
    endloop
  endfacet
  facet normal 0.750115 0.661307 0
    outer loop
      vertex 7.28969 6.84547 0
      vertex 7.70513 6.37424 25
      vertex 7.70513 6.37424 0
    endloop
  endfacet
  facet normal -0.750115 -0.661307 0
    outer loop
      vertex -7.28969 -6.84547 0
      vertex -7.70513 -6.37424 25
      vertex -7.70513 -6.37424 0
    endloop
  endfacet
  facet normal -0.750115 -0.661307 0
    outer loop
      vertex -7.70513 -6.37424 25
      vertex -7.28969 -6.84547 0
      vertex -7.28969 -6.84547 25
    endloop
  endfacet
  facet normal -0.707107 -0.707107 0
    outer loop
      vertex -6.84547 -7.28969 0
      vertex -7.28969 -6.84547 25
      vertex -7.28969 -6.84547 0
    endloop
  endfacet
  facet normal -0.707107 -0.707107 0
    outer loop
      vertex -7.28969 -6.84547 25
      vertex -6.84547 -7.28969 0
      vertex -6.84547 -7.28969 25
    endloop
  endfacet
  facet normal -0.975917 -0.21814 0
    outer loop
      vertex -9.68583 -2.4869 0
      vertex -9.82287 -1.87381 25
      vertex -9.82287 -1.87381 0
    endloop
  endfacet
  facet normal -0.975917 -0.21814 0
    outer loop
      vertex -9.82287 -1.87381 25
      vertex -9.68583 -2.4869 0
      vertex -9.68583 -2.4869 25
    endloop
  endfacet
  facet normal -0.21814 0.975917 0
    outer loop
      vertex -1.87381 9.82287 0
      vertex -2.4869 9.68583 25
      vertex -1.87381 9.82287 25
    endloop
  endfacet
  facet normal -0.21814 0.975917 0
    outer loop
      vertex -2.4869 9.68583 25
      vertex -1.87381 9.82287 0
      vertex -2.4869 9.68583 0
    endloop
  endfacet
  facet normal 0.562088 -0.827078 0
    outer loop
      vertex 5.35827 -8.44328 0
      vertex 5.87785 -8.09017 25
      vertex 5.35827 -8.44328 25
    endloop
  endfacet
  facet normal 0.562088 -0.827078 0
    outer loop
      vertex 5.87785 -8.09017 25
      vertex 5.35827 -8.44328 0
      vertex 5.87785 -8.09017 0
    endloop
  endfacet
  facet normal 0.0314065 0.999507 -0
    outer loop
      vertex 0.627905 9.98027 0
      vertex 0 10 25
      vertex 0.627905 9.98027 25
    endloop
  endfacet
  facet normal 0.0314065 0.999507 0
    outer loop
      vertex 0 10 25
      vertex 0.627905 9.98027 0
      vertex 0 10 0
    endloop
  endfacet
  facet normal -0.397141 -0.917758 0
    outer loop
      vertex -4.25779 -9.04827 0
      vertex -3.68124 -9.29776 25
      vertex -4.25779 -9.04827 25
    endloop
  endfacet
  facet normal -0.397141 -0.917758 -0
    outer loop
      vertex -3.68124 -9.29776 25
      vertex -4.25779 -9.04827 0
      vertex -3.68124 -9.29776 0
    endloop
  endfacet
  facet normal -0.397141 0.917758 0
    outer loop
      vertex -3.68124 9.29776 0
      vertex -4.25779 9.04827 25
      vertex -3.68124 9.29776 25
    endloop
  endfacet
  facet normal -0.397141 0.917758 0
    outer loop
      vertex -4.25779 9.04827 25
      vertex -3.68124 9.29776 0
      vertex -4.25779 9.04827 0
    endloop
  endfacet
  facet normal -0.960292 0.278997 0
    outer loop
      vertex -9.68583 2.4869 0
      vertex -9.51056 3.09017 25
      vertex -9.51056 3.09017 0
    endloop
  endfacet
  facet normal -0.960292 0.278997 0
    outer loop
      vertex -9.51056 3.09017 25
      vertex -9.68583 2.4869 0
      vertex -9.68583 2.4869 25
    endloop
  endfacet
  facet normal -0.750115 0.661307 0
    outer loop
      vertex -7.70513 6.37424 0
      vertex -7.28969 6.84547 25
      vertex -7.28969 6.84547 0
    endloop
  endfacet
  facet normal -0.750115 0.661307 0
    outer loop
      vertex -7.28969 6.84547 25
      vertex -7.70513 6.37424 0
      vertex -7.70513 6.37424 25
    endloop
  endfacet
  facet normal -0.661307 -0.750115 0
    outer loop
      vertex -6.84547 -7.28969 0
      vertex -6.37424 -7.70513 25
      vertex -6.84547 -7.28969 25
    endloop
  endfacet
  facet normal -0.661307 -0.750115 -0
    outer loop
      vertex -6.37424 -7.70513 25
      vertex -6.84547 -7.28969 0
      vertex -6.37424 -7.70513 0
    endloop
  endfacet
  facet normal -0.453982 -0.891011 0
    outer loop
      vertex -4.81754 -8.76307 0
      vertex -4.25779 -9.04827 25
      vertex -4.81754 -8.76307 25
    endloop
  endfacet
  facet normal -0.453982 -0.891011 -0
    outer loop
      vertex -4.25779 -9.04827 25
      vertex -4.81754 -8.76307 0
      vertex -4.25779 -9.04827 0
    endloop
  endfacet
  facet normal -0.891011 0.453982 0
    outer loop
      vertex -9.04827 4.25779 0
      vertex -8.76307 4.81754 25
      vertex -8.76307 4.81754 0
    endloop
  endfacet
  facet normal -0.891011 0.453982 0
    outer loop
      vertex -8.76307 4.81754 25
      vertex -9.04827 4.25779 0
      vertex -9.04827 4.25779 25
    endloop
  endfacet
  facet normal -0.562088 -0.827078 0
    outer loop
      vertex -5.87785 -8.09017 0
      vertex -5.35827 -8.44328 25
      vertex -5.87785 -8.09017 25
    endloop
  endfacet
  facet normal -0.562088 -0.827078 -0
    outer loop
      vertex -5.35827 -8.44328 25
      vertex -5.87785 -8.09017 0
      vertex -5.35827 -8.44328 0
    endloop
  endfacet
  facet normal 0.278997 0.960292 -0
    outer loop
      vertex 3.09017 9.51056 0
      vertex 2.4869 9.68583 25
      vertex 3.09017 9.51056 25
    endloop
  endfacet
  facet normal 0.278997 0.960292 0
    outer loop
      vertex 2.4869 9.68583 25
      vertex 3.09017 9.51056 0
      vertex 2.4869 9.68583 0
    endloop
  endfacet
  facet normal -0.453982 0.891011 0
    outer loop
      vertex -4.25779 9.04827 0
      vertex -4.81754 8.76307 25
      vertex -4.25779 9.04827 25
    endloop
  endfacet
  facet normal -0.453982 0.891011 0
    outer loop
      vertex -4.81754 8.76307 25
      vertex -4.25779 9.04827 0
      vertex -4.81754 8.76307 0
    endloop
  endfacet
  facet normal 0.612907 -0.790155 0
    outer loop
      vertex 5.87785 -8.09017 0
      vertex 6.37424 -7.70513 25
      vertex 5.87785 -8.09017 25
    endloop
  endfacet
  facet normal 0.612907 -0.790155 0
    outer loop
      vertex 6.37424 -7.70513 25
      vertex 5.87785 -8.09017 0
      vertex 6.37424 -7.70513 0
    endloop
  endfacet
  facet normal -0.612907 -0.790155 0
    outer loop
      vertex -6.37424 -7.70513 0
      vertex -5.87785 -8.09017 25
      vertex -6.37424 -7.70513 25
    endloop
  endfacet
  facet normal -0.612907 -0.790155 -0
    outer loop
      vertex -5.87785 -8.09017 25
      vertex -6.37424 -7.70513 0
      vertex -5.87785 -8.09017 0
    endloop
  endfacet
  facet normal 0.447169 0.0140509 0.894339
    outer loop
      vertex 9.98027 0.627905 -5
      vertex 0 0 0
      vertex 10 0 -5
    endloop
  endfacet
  facet normal 0.0699912 0.441881 0.894339
    outer loop
      vertex 1.25333 9.92115 -5
      vertex 0 0 0
      vertex 1.87381 9.82287 -5
    endloop
  endfacet
  facet normal 0.370026 0.251472 0.894339
    outer loop
      vertex 8.09017 5.87785 -5
      vertex 0 0 0
      vertex 8.44328 5.35827 -5
    endloop
  endfacet
  facet normal 0.0699912 -0.441881 0.894339
    outer loop
      vertex 1.87381 -9.82287 -5
      vertex 0 0 0
      vertex 1.25333 -9.92115 -5
    endloop
  endfacet
  facet normal -0.251472 0.370026 0.894339
    outer loop
      vertex -5.35827 8.44328 -5
      vertex -5.87785 8.09017 -5
      vertex 0 0 0
    endloop
  endfacet
  facet normal 0 0 -1
    outer loop
      vertex 9.98027 -0.627905 -5
      vertex 9.98027 0.627905 -5
      vertex 10 0 -5
    endloop
  endfacet
  facet normal 0 0 -1
    outer loop
      vertex 9.92115 -1.25333 -5
      vertex 9.98027 0.627905 -5
      vertex 9.98027 -0.627905 -5
    endloop
  endfacet
  facet normal 0 0 -1
    outer loop
      vertex 9.92115 -1.25333 -5
      vertex 9.92115 1.25333 -5
      vertex 9.98027 0.627905 -5
    endloop
  endfacet
  facet normal 0 0 -1
    outer loop
      vertex 9.82287 -1.87381 -5
      vertex 9.92115 1.25333 -5
      vertex 9.92115 -1.25333 -5
    endloop
  endfacet
  facet normal 0 0 -1
    outer loop
      vertex 9.82287 -1.87381 -5
      vertex 9.82287 1.87381 -5
      vertex 9.92115 1.25333 -5
    endloop
  endfacet
  facet normal 0 0 -1
    outer loop
      vertex 9.68583 -2.4869 -5
      vertex 9.82287 1.87381 -5
      vertex 9.82287 -1.87381 -5
    endloop
  endfacet
  facet normal 0 0 -1
    outer loop
      vertex 9.68583 -2.4869 -5
      vertex 9.68583 2.4869 -5
      vertex 9.82287 1.87381 -5
    endloop
  endfacet
  facet normal 0 0 -1
    outer loop
      vertex 9.51056 -3.09017 -5
      vertex 9.68583 2.4869 -5
      vertex 9.68583 -2.4869 -5
    endloop
  endfacet
  facet normal 0 0 -1
    outer loop
      vertex 9.51056 -3.09017 -5
      vertex 9.51056 3.09017 -5
      vertex 9.68583 2.4869 -5
    endloop
  endfacet
  facet normal 0 0 -1
    outer loop
      vertex 9.29776 -3.68124 -5
      vertex 9.51056 3.09017 -5
      vertex 9.51056 -3.09017 -5
    endloop
  endfacet
  facet normal 0 0 -1
    outer loop
      vertex 9.29776 -3.68124 -5
      vertex 9.29776 3.68124 -5
      vertex 9.51056 3.09017 -5
    endloop
  endfacet
  facet normal 0 0 -1
    outer loop
      vertex 9.04827 -4.25779 -5
      vertex 9.29776 3.68124 -5
      vertex 9.29776 -3.68124 -5
    endloop
  endfacet
  facet normal 0 0 -1
    outer loop
      vertex 9.04827 -4.25779 -5
      vertex 9.04827 4.25779 -5
      vertex 9.29776 3.68124 -5
    endloop
  endfacet
  facet normal 0 0 -1
    outer loop
      vertex 8.76307 -4.81754 -5
      vertex 9.04827 4.25779 -5
      vertex 9.04827 -4.25779 -5
    endloop
  endfacet
  facet normal 0 0 -1
    outer loop
      vertex 8.76307 -4.81754 -5
      vertex 8.76307 4.81754 -5
      vertex 9.04827 4.25779 -5
    endloop
  endfacet
  facet normal 0 0 -1
    outer loop
      vertex 8.44328 -5.35827 -5
      vertex 8.76307 4.81754 -5
      vertex 8.76307 -4.81754 -5
    endloop
  endfacet
  facet normal 0 0 -1
    outer loop
      vertex 8.44328 -5.35827 -5
      vertex 8.44328 5.35827 -5
      vertex 8.76307 4.81754 -5
    endloop
  endfacet
  facet normal 0 0 -1
    outer loop
      vertex 8.09017 -5.87785 -5
      vertex 8.44328 5.35827 -5
      vertex 8.44328 -5.35827 -5
    endloop
  endfacet
  facet normal 0 0 -1
    outer loop
      vertex 8.09017 -5.87785 -5
      vertex 8.09017 5.87785 -5
      vertex 8.44328 5.35827 -5
    endloop
  endfacet
  facet normal 0 0 -1
    outer loop
      vertex 7.70513 -6.37424 -5
      vertex 8.09017 5.87785 -5
      vertex 8.09017 -5.87785 -5
    endloop
  endfacet
  facet normal 0 0 -1
    outer loop
      vertex 7.70513 -6.37424 -5
      vertex 7.70513 6.37424 -5
      vertex 8.09017 5.87785 -5
    endloop
  endfacet
  facet normal 0 0 -1
    outer loop
      vertex 7.28969 -6.84547 -5
      vertex 7.70513 6.37424 -5
      vertex 7.70513 -6.37424 -5
    endloop
  endfacet
  facet normal 0 0 -1
    outer loop
      vertex 7.28969 -6.84547 -5
      vertex 7.28969 6.84547 -5
      vertex 7.70513 6.37424 -5
    endloop
  endfacet
  facet normal 0 0 -1
    outer loop
      vertex 6.84547 -7.28969 -5
      vertex 7.28969 6.84547 -5
      vertex 7.28969 -6.84547 -5
    endloop
  endfacet
  facet normal 0 0 -1
    outer loop
      vertex 6.84547 -7.28969 -5
      vertex 6.84547 7.28969 -5
      vertex 7.28969 6.84547 -5
    endloop
  endfacet
  facet normal 0 0 -1
    outer loop
      vertex 6.37424 -7.70513 -5
      vertex 6.84547 7.28969 -5
      vertex 6.84547 -7.28969 -5
    endloop
  endfacet
  facet normal 0 0 -1
    outer loop
      vertex 6.37424 -7.70513 -5
      vertex 6.37424 7.70513 -5
      vertex 6.84547 7.28969 -5
    endloop
  endfacet
  facet normal 0 0 -1
    outer loop
      vertex 5.87785 -8.09017 -5
      vertex 6.37424 7.70513 -5
      vertex 6.37424 -7.70513 -5
    endloop
  endfacet
  facet normal 0 0 -1
    outer loop
      vertex 5.87785 -8.09017 -5
      vertex 5.87785 8.09017 -5
      vertex 6.37424 7.70513 -5
    endloop
  endfacet
  facet normal 0 0 -1
    outer loop
      vertex 5.35827 -8.44328 -5
      vertex 5.87785 8.09017 -5
      vertex 5.87785 -8.09017 -5
    endloop
  endfacet
  facet normal 0 0 -1
    outer loop
      vertex 5.35827 -8.44328 -5
      vertex 5.35827 8.44328 -5
      vertex 5.87785 8.09017 -5
    endloop
  endfacet
  facet normal 0 0 -1
    outer loop
      vertex 4.81754 -8.76307 -5
      vertex 5.35827 8.44328 -5
      vertex 5.35827 -8.44328 -5
    endloop
  endfacet
  facet normal 0 0 -1
    outer loop
      vertex 4.81754 -8.76307 -5
      vertex 4.81754 8.76307 -5
      vertex 5.35827 8.44328 -5
    endloop
  endfacet
  facet normal 0 0 -1
    outer loop
      vertex 4.25779 -9.04827 -5
      vertex 4.81754 8.76307 -5
      vertex 4.81754 -8.76307 -5
    endloop
  endfacet
  facet normal 0 0 -1
    outer loop
      vertex 4.25779 -9.04827 -5
      vertex 4.25779 9.04827 -5
      vertex 4.81754 8.76307 -5
    endloop
  endfacet
  facet normal 0 0 -1
    outer loop
      vertex 3.68124 -9.29776 -5
      vertex 4.25779 9.04827 -5
      vertex 4.25779 -9.04827 -5
    endloop
  endfacet
  facet normal 0 0 -1
    outer loop
      vertex 3.68124 -9.29776 -5
      vertex 3.68124 9.29776 -5
      vertex 4.25779 9.04827 -5
    endloop
  endfacet
  facet normal 0 0 -1
    outer loop
      vertex 3.09017 -9.51056 -5
      vertex 3.68124 9.29776 -5
      vertex 3.68124 -9.29776 -5
    endloop
  endfacet
  facet normal 0 0 -1
    outer loop
      vertex 3.09017 -9.51056 -5
      vertex 3.09017 9.51056 -5
      vertex 3.68124 9.29776 -5
    endloop
  endfacet
  facet normal 0 0 -1
    outer loop
      vertex 2.4869 -9.68583 -5
      vertex 3.09017 9.51056 -5
      vertex 3.09017 -9.51056 -5
    endloop
  endfacet
  facet normal 0 0 -1
    outer loop
      vertex 2.4869 -9.68583 -5
      vertex 2.4869 9.68583 -5
      vertex 3.09017 9.51056 -5
    endloop
  endfacet
  facet normal 0 0 -1
    outer loop
      vertex 1.87381 -9.82287 -5
      vertex 2.4869 9.68583 -5
      vertex 2.4869 -9.68583 -5
    endloop
  endfacet
  facet normal 0 0 -1
    outer loop
      vertex 1.87381 -9.82287 -5
      vertex 1.87381 9.82287 -5
      vertex 2.4869 9.68583 -5
    endloop
  endfacet
  facet normal 0 0 -1
    outer loop
      vertex 1.25333 -9.92115 -5
      vertex 1.87381 9.82287 -5
      vertex 1.87381 -9.82287 -5
    endloop
  endfacet
  facet normal 0 0 -1
    outer loop
      vertex 1.25333 -9.92115 -5
      vertex 1.25333 9.92115 -5
      vertex 1.87381 9.82287 -5
    endloop
  endfacet
  facet normal 0 0 -1
    outer loop
      vertex 0.627905 -9.98027 -5
      vertex 1.25333 9.92115 -5
      vertex 1.25333 -9.92115 -5
    endloop
  endfacet
  facet normal 0 0 -1
    outer loop
      vertex 0.627905 -9.98027 -5
      vertex 0.627905 9.98027 -5
      vertex 1.25333 9.92115 -5
    endloop
  endfacet
  facet normal 0 0 -1
    outer loop
      vertex 0 -10 -5
      vertex 0.627905 9.98027 -5
      vertex 0.627905 -9.98027 -5
    endloop
  endfacet
  facet normal 0 0 -1
    outer loop
      vertex 0 -10 -5
      vertex 0 10 -5
      vertex 0.627905 9.98027 -5
    endloop
  endfacet
  facet normal 0 0 -1
    outer loop
      vertex -0.627905 -9.98027 -5
      vertex 0 10 -5
      vertex 0 -10 -5
    endloop
  endfacet
  facet normal 0 0 -1
    outer loop
      vertex -0.627905 -9.98027 -5
      vertex -0.627905 9.98027 -5
      vertex 0 10 -5
    endloop
  endfacet
  facet normal 0 0 -1
    outer loop
      vertex -1.25333 -9.92115 -5
      vertex -0.627905 9.98027 -5
      vertex -0.627905 -9.98027 -5
    endloop
  endfacet
  facet normal 0 0 -1
    outer loop
      vertex -1.25333 -9.92115 -5
      vertex -1.25333 9.92115 -5
      vertex -0.627905 9.98027 -5
    endloop
  endfacet
  facet normal 0 0 -1
    outer loop
      vertex -1.87381 -9.82287 -5
      vertex -1.25333 9.92115 -5
      vertex -1.25333 -9.92115 -5
    endloop
  endfacet
  facet normal 0 0 -1
    outer loop
      vertex -1.87381 -9.82287 -5
      vertex -1.87381 9.82287 -5
      vertex -1.25333 9.92115 -5
    endloop
  endfacet
  facet normal 0 0 -1
    outer loop
      vertex -2.4869 -9.68583 -5
      vertex -1.87381 9.82287 -5
      vertex -1.87381 -9.82287 -5
    endloop
  endfacet
  facet normal 0 0 -1
    outer loop
      vertex -2.4869 -9.68583 -5
      vertex -2.4869 9.68583 -5
      vertex -1.87381 9.82287 -5
    endloop
  endfacet
  facet normal 0 0 -1
    outer loop
      vertex -3.09017 -9.51056 -5
      vertex -2.4869 9.68583 -5
      vertex -2.4869 -9.68583 -5
    endloop
  endfacet
  facet normal 0 0 -1
    outer loop
      vertex -3.09017 -9.51056 -5
      vertex -3.09017 9.51056 -5
      vertex -2.4869 9.68583 -5
    endloop
  endfacet
  facet normal 0 0 -1
    outer loop
      vertex -3.68124 -9.29776 -5
      vertex -3.09017 9.51056 -5
      vertex -3.09017 -9.51056 -5
    endloop
  endfacet
  facet normal 0 0 -1
    outer loop
      vertex -3.68124 -9.29776 -5
      vertex -3.68124 9.29776 -5
      vertex -3.09017 9.51056 -5
    endloop
  endfacet
  facet normal 0 0 -1
    outer loop
      vertex -4.25779 -9.04827 -5
      vertex -3.68124 9.29776 -5
      vertex -3.68124 -9.29776 -5
    endloop
  endfacet
  facet normal 0 0 -1
    outer loop
      vertex -4.25779 -9.04827 -5
      vertex -4.25779 9.04827 -5
      vertex -3.68124 9.29776 -5
    endloop
  endfacet
  facet normal 0 0 -1
    outer loop
      vertex -4.81754 -8.76307 -5
      vertex -4.25779 9.04827 -5
      vertex -4.25779 -9.04827 -5
    endloop
  endfacet
  facet normal 0 0 -1
    outer loop
      vertex -4.81754 -8.76307 -5
      vertex -4.81754 8.76307 -5
      vertex -4.25779 9.04827 -5
    endloop
  endfacet
  facet normal 0 0 -1
    outer loop
      vertex -5.35827 -8.44328 -5
      vertex -4.81754 8.76307 -5
      vertex -4.81754 -8.76307 -5
    endloop
  endfacet
  facet normal 0 0 -1
    outer loop
      vertex -5.35827 -8.44328 -5
      vertex -5.35827 8.44328 -5
      vertex -4.81754 8.76307 -5
    endloop
  endfacet
  facet normal 0 0 -1
    outer loop
      vertex -5.87785 -8.09017 -5
      vertex -5.35827 8.44328 -5
      vertex -5.35827 -8.44328 -5
    endloop
  endfacet
  facet normal 0 0 -1
    outer loop
      vertex -5.87785 -8.09017 -5
      vertex -5.87785 8.09017 -5
      vertex -5.35827 8.44328 -5
    endloop
  endfacet
  facet normal 0 0 -1
    outer loop
      vertex -6.37424 -7.70513 -5
      vertex -5.87785 8.09017 -5
      vertex -5.87785 -8.09017 -5
    endloop
  endfacet
  facet normal 0 0 -1
    outer loop
      vertex -6.37424 -7.70513 -5
      vertex -6.37424 7.70513 -5
      vertex -5.87785 8.09017 -5
    endloop
  endfacet
  facet normal 0 0 -1
    outer loop
      vertex -6.84547 -7.28969 -5
      vertex -6.37424 7.70513 -5
      vertex -6.37424 -7.70513 -5
    endloop
  endfacet
  facet normal 0 0 -1
    outer loop
      vertex -6.84547 -7.28969 -5
      vertex -6.84547 7.28969 -5
      vertex -6.37424 7.70513 -5
    endloop
  endfacet
  facet normal 0 0 -1
    outer loop
      vertex -7.28969 -6.84547 -5
      vertex -6.84547 7.28969 -5
      vertex -6.84547 -7.28969 -5
    endloop
  endfacet
  facet normal 0 0 -1
    outer loop
      vertex -7.28969 -6.84547 -5
      vertex -7.28969 6.84547 -5
      vertex -6.84547 7.28969 -5
    endloop
  endfacet
  facet normal 0 0 -1
    outer loop
      vertex -7.70513 -6.37424 -5
      vertex -7.28969 6.84547 -5
      vertex -7.28969 -6.84547 -5
    endloop
  endfacet
  facet normal 0 0 -1
    outer loop
      vertex -7.70513 -6.37424 -5
      vertex -7.70513 6.37424 -5
      vertex -7.28969 6.84547 -5
    endloop
  endfacet
  facet normal 0 0 -1
    outer loop
      vertex -8.09017 -5.87785 -5
      vertex -7.70513 6.37424 -5
      vertex -7.70513 -6.37424 -5
    endloop
  endfacet
  facet normal 0 0 -1
    outer loop
      vertex -8.09017 -5.87785 -5
      vertex -8.09017 5.87785 -5
      vertex -7.70513 6.37424 -5
    endloop
  endfacet
  facet normal 0 0 -1
    outer loop
      vertex -8.44328 -5.35827 -5
      vertex -8.09017 5.87785 -5
      vertex -8.09017 -5.87785 -5
    endloop
  endfacet
  facet normal 0 0 -1
    outer loop
      vertex -8.44328 -5.35827 -5
      vertex -8.44328 5.35827 -5
      vertex -8.09017 5.87785 -5
    endloop
  endfacet
  facet normal 0 0 -1
    outer loop
      vertex -8.76307 -4.81754 -5
      vertex -8.44328 5.35827 -5
      vertex -8.44328 -5.35827 -5
    endloop
  endfacet
  facet normal 0 0 -1
    outer loop
      vertex -8.76307 -4.81754 -5
      vertex -8.76307 4.81754 -5
      vertex -8.44328 5.35827 -5
    endloop
  endfacet
  facet normal 0 0 -1
    outer loop
      vertex -9.04827 -4.25779 -5
      vertex -8.76307 4.81754 -5
      vertex -8.76307 -4.81754 -5
    endloop
  endfacet
  facet normal 0 0 -1
    outer loop
      vertex -9.04827 -4.25779 -5
      vertex -9.04827 4.25779 -5
      vertex -8.76307 4.81754 -5
    endloop
  endfacet
  facet normal 0 0 -1
    outer loop
      vertex -9.29776 -3.68124 -5
      vertex -9.04827 4.25779 -5
      vertex -9.04827 -4.25779 -5
    endloop
  endfacet
  facet normal 0 0 -1
    outer loop
      vertex -9.29776 -3.68124 -5
      vertex -9.29776 3.68124 -5
      vertex -9.04827 4.25779 -5
    endloop
  endfacet
  facet normal 0 0 -1
    outer loop
      vertex -9.51056 -3.09017 -5
      vertex -9.29776 3.68124 -5
      vertex -9.29776 -3.68124 -5
    endloop
  endfacet
  facet normal 0 0 -1
    outer loop
      vertex -9.51056 -3.09017 -5
      vertex -9.51056 3.09017 -5
      vertex -9.29776 3.68124 -5
    endloop
  endfacet
  facet normal 0 0 -1
    outer loop
      vertex -9.68583 -2.4869 -5
      vertex -9.51056 3.09017 -5
      vertex -9.51056 -3.09017 -5
    endloop
  endfacet
  facet normal 0 0 -1
    outer loop
      vertex -9.68583 -2.4869 -5
      vertex -9.68583 2.4869 -5
      vertex -9.51056 3.09017 -5
    endloop
  endfacet
  facet normal 0 0 -1
    outer loop
      vertex -9.82287 -1.87381 -5
      vertex -9.68583 2.4869 -5
      vertex -9.68583 -2.4869 -5
    endloop
  endfacet
  facet normal 0 0 -1
    outer loop
      vertex -9.82287 -1.87381 -5
      vertex -9.82287 1.87381 -5
      vertex -9.68583 2.4869 -5
    endloop
  endfacet
  facet normal 0 0 -1
    outer loop
      vertex -9.92115 -1.25333 -5
      vertex -9.82287 1.87381 -5
      vertex -9.82287 -1.87381 -5
    endloop
  endfacet
  facet normal 0 0 -1
    outer loop
      vertex -9.92115 -1.25333 -5
      vertex -9.92115 1.25333 -5
      vertex -9.82287 1.87381 -5
    endloop
  endfacet
  facet normal 0 0 -1
    outer loop
      vertex -9.98027 -0.627905 -5
      vertex -9.92115 1.25333 -5
      vertex -9.92115 -1.25333 -5
    endloop
  endfacet
  facet normal 0 0 -1
    outer loop
      vertex -9.98027 -0.627905 -5
      vertex -9.98027 0.627905 -5
      vertex -9.92115 1.25333 -5
    endloop
  endfacet
  facet normal 0 -0 -1
    outer loop
      vertex -9.98027 0.627905 -5
      vertex -9.98027 -0.627905 -5
      vertex -10 0 -5
    endloop
  endfacet
  facet normal 0.410596 -0.177677 0.894339
    outer loop
      vertex 9.29776 -3.68124 -5
      vertex 0 0 0
      vertex 9.04827 -4.25779 -5
    endloop
  endfacet
  facet normal -0.436616 0.0975939 0.894339
    outer loop
      vertex -9.68583 2.4869 -5
      vertex -9.82287 1.87381 -5
      vertex 0 0 0
    endloop
  endfacet
  facet normal 0.316353 0.316353 0.894339
    outer loop
      vertex 6.84547 7.28969 -5
      vertex 0 0 0
      vertex 7.28969 6.84547 -5
    endloop
  endfacet
  facet normal -0.39863 0.203107 0.894339
    outer loop
      vertex -8.76307 4.81754 -5
      vertex -9.04827 4.25779 -5
      vertex 0 0 0
    endloop
  endfacet
  facet normal 0.177677 0.410596 0.894339
    outer loop
      vertex 3.68124 9.29776 -5
      vertex 0 0 0
      vertex 4.25779 9.04827 -5
    endloop
  endfacet
  facet normal -0.151549 0.420941 0.894339
    outer loop
      vertex -3.09017 9.51056 -5
      vertex -3.68124 9.29776 -5
      vertex 0 0 0
    endloop
  endfacet
  facet normal 0.12482 0.429625 0.894339
    outer loop
      vertex 2.4869 9.68583 -5
      vertex 0 0 0
      vertex 3.09017 9.51056 -5
    endloop
  endfacet
  facet normal -0.441881 -0.0699912 0.894339
    outer loop
      vertex 0 0 0
      vertex -9.92115 -1.25333 -5
      vertex -9.82287 -1.87381 -5
    endloop
  endfacet
  facet normal -0.316353 -0.316353 0.894339
    outer loop
      vertex 0 0 0
      vertex -7.28969 -6.84547 -5
      vertex -6.84547 -7.28969 -5
    endloop
  endfacet
  facet normal -0.0140509 -0.447169 0.894339
    outer loop
      vertex 0 0 0
      vertex -0.627905 -9.98027 -5
      vertex 0 -10 -5
    endloop
  endfacet
  facet normal -0.295862 -0.335594 0.894339
    outer loop
      vertex 0 0 0
      vertex -6.84547 -7.28969 -5
      vertex -6.37424 -7.70513 -5
    endloop
  endfacet
  facet normal -0.0975939 -0.436616 0.894339
    outer loop
      vertex 0 0 0
      vertex -2.4869 -9.68583 -5
      vertex -1.87381 -9.82287 -5
    endloop
  endfacet
  facet normal 0.227742 0.385086 0.894339
    outer loop
      vertex 4.81754 8.76307 -5
      vertex 0 0 0
      vertex 5.35827 8.44328 -5
    endloop
  endfacet
  facet normal 0.295862 0.335594 0.894339
    outer loop
      vertex 6.37424 7.70513 -5
      vertex 0 0 0
      vertex 6.84547 7.28969 -5
    endloop
  endfacet
  facet normal -0.316353 0.316353 0.894339
    outer loop
      vertex -6.84547 7.28969 -5
      vertex -7.28969 6.84547 -5
      vertex 0 0 0
    endloop
  endfacet
  facet normal 0.0421031 -0.445405 0.894339
    outer loop
      vertex 1.25333 -9.92115 -5
      vertex 0 0 0
      vertex 0.627905 -9.98027 -5
    endloop
  endfacet
  facet normal -0.385086 -0.227742 0.894339
    outer loop
      vertex 0 0 0
      vertex -8.76307 -4.81754 -5
      vertex -8.44328 -5.35827 -5
    endloop
  endfacet
  facet normal -0.0699912 0.441881 0.894339
    outer loop
      vertex -1.25333 9.92115 -5
      vertex -1.87381 9.82287 -5
      vertex 0 0 0
    endloop
  endfacet
  facet normal 0.441881 0.0699912 0.894339
    outer loop
      vertex 9.82287 1.87381 -5
      vertex 0 0 0
      vertex 9.92115 1.25333 -5
    endloop
  endfacet
  facet normal 0.353507 -0.274209 0.894339
    outer loop
      vertex 8.09017 -5.87785 -5
      vertex 0 0 0
      vertex 7.70513 -6.37424 -5
    endloop
  endfacet
  facet normal 0.0975939 -0.436616 0.894339
    outer loop
      vertex 2.4869 -9.68583 -5
      vertex 0 0 0
      vertex 1.87381 -9.82287 -5
    endloop
  endfacet
  facet normal -0.177677 0.410596 0.894339
    outer loop
      vertex -3.68124 9.29776 -5
      vertex -4.25779 9.04827 -5
      vertex 0 0 0
    endloop
  endfacet
  facet normal -0.151549 -0.420941 0.894339
    outer loop
      vertex 0 0 0
      vertex -3.68124 -9.29776 -5
      vertex -3.09017 -9.51056 -5
    endloop
  endfacet
  facet normal -0.12482 -0.429625 0.894339
    outer loop
      vertex 0 0 0
      vertex -3.09017 -9.51056 -5
      vertex -2.4869 -9.68583 -5
    endloop
  endfacet
  facet normal -0.295862 0.335594 0.894339
    outer loop
      vertex -6.37424 7.70513 -5
      vertex -6.84547 7.28969 -5
      vertex 0 0 0
    endloop
  endfacet
  facet normal 0.274209 -0.353507 0.894339
    outer loop
      vertex 6.37424 -7.70513 -5
      vertex 0 0 0
      vertex 5.87785 -8.09017 -5
    endloop
  endfacet
  facet normal 0.151549 0.420941 0.894339
    outer loop
      vertex 3.09017 9.51056 -5
      vertex 0 0 0
      vertex 3.68124 9.29776 -5
    endloop
  endfacet
  facet normal -0.227742 0.385086 0.894339
    outer loop
      vertex -4.81754 8.76307 -5
      vertex -5.35827 8.44328 -5
      vertex 0 0 0
    endloop
  endfacet
  facet normal 0.385086 0.227742 0.894339
    outer loop
      vertex 8.44328 5.35827 -5
      vertex 0 0 0
      vertex 8.76307 4.81754 -5
    endloop
  endfacet
  facet normal -0.441881 0.0699912 0.894339
    outer loop
      vertex -9.82287 1.87381 -5
      vertex -9.92115 1.25333 -5
      vertex 0 0 0
    endloop
  endfacet
  facet normal 0.251472 -0.370026 0.894339
    outer loop
      vertex 5.87785 -8.09017 -5
      vertex 0 0 0
      vertex 5.35827 -8.44328 -5
    endloop
  endfacet
  facet normal 0.429625 0.12482 0.894339
    outer loop
      vertex 9.51056 3.09017 -5
      vertex 0 0 0
      vertex 9.68583 2.4869 -5
    endloop
  endfacet
  facet normal -0.420941 0.151549 0.894339
    outer loop
      vertex -9.29776 3.68124 -5
      vertex -9.51056 3.09017 -5
      vertex 0 0 0
    endloop
  endfacet
  facet normal -0.0421031 0.445405 0.894339
    outer loop
      vertex -0.627905 9.98027 -5
      vertex -1.25333 9.92115 -5
      vertex 0 0 0
    endloop
  endfacet
  facet normal -0.353507 0.274209 0.894339
    outer loop
      vertex -7.70513 6.37424 -5
      vertex -8.09017 5.87785 -5
      vertex 0 0 0
    endloop
  endfacet
  facet normal -0.410596 -0.177677 0.894339
    outer loop
      vertex 0 0 0
      vertex -9.29776 -3.68124 -5
      vertex -9.04827 -4.25779 -5
    endloop
  endfacet
  facet normal 0.251472 0.370026 0.894339
    outer loop
      vertex 5.35827 8.44328 -5
      vertex 0 0 0
      vertex 5.87785 8.09017 -5
    endloop
  endfacet
  facet normal -0.0699912 -0.441881 0.894339
    outer loop
      vertex 0 0 0
      vertex -1.87381 -9.82287 -5
      vertex -1.25333 -9.92115 -5
    endloop
  endfacet
  facet normal 0.445405 -0.0421031 0.894339
    outer loop
      vertex 9.98027 -0.627905 -5
      vertex 0 0 0
      vertex 9.92115 -1.25333 -5
    endloop
  endfacet
  facet normal 0.39863 0.203107 0.894339
    outer loop
      vertex 8.76307 4.81754 -5
      vertex 0 0 0
      vertex 9.04827 4.25779 -5
    endloop
  endfacet
  facet normal -0.12482 0.429625 0.894339
    outer loop
      vertex -2.4869 9.68583 -5
      vertex -3.09017 9.51056 -5
      vertex 0 0 0
    endloop
  endfacet
  facet normal -0.0975939 0.436616 0.894339
    outer loop
      vertex -1.87381 9.82287 -5
      vertex -2.4869 9.68583 -5
      vertex 0 0 0
    endloop
  endfacet
  facet normal -0.0140509 0.447169 0.894339
    outer loop
      vertex 0 10 -5
      vertex -0.627905 9.98027 -5
      vertex 0 0 0
    endloop
  endfacet
  facet normal -0.429625 0.12482 0.894339
    outer loop
      vertex -9.51056 3.09017 -5
      vertex -9.68583 2.4869 -5
      vertex 0 0 0
    endloop
  endfacet
  facet normal 0.227742 -0.385086 0.894339
    outer loop
      vertex 5.35827 -8.44328 -5
      vertex 0 0 0
      vertex 4.81754 -8.76307 -5
    endloop
  endfacet
  facet normal 0.436616 0.0975939 0.894339
    outer loop
      vertex 9.68583 2.4869 -5
      vertex 0 0 0
      vertex 9.82287 1.87381 -5
    endloop
  endfacet
  facet normal -0.0421031 -0.445405 0.894339
    outer loop
      vertex 0 0 0
      vertex -1.25333 -9.92115 -5
      vertex -0.627905 -9.98027 -5
    endloop
  endfacet
  facet normal 0.274209 0.353507 0.894339
    outer loop
      vertex 5.87785 8.09017 -5
      vertex 0 0 0
      vertex 6.37424 7.70513 -5
    endloop
  endfacet
  facet normal -0.335594 -0.295862 0.894339
    outer loop
      vertex 0 0 0
      vertex -7.70513 -6.37424 -5
      vertex -7.28969 -6.84547 -5
    endloop
  endfacet
  facet normal 0.151549 -0.420941 0.894339
    outer loop
      vertex 3.68124 -9.29776 -5
      vertex 0 0 0
      vertex 3.09017 -9.51056 -5
    endloop
  endfacet
  facet normal 0.335594 -0.295862 0.894339
    outer loop
      vertex 7.70513 -6.37424 -5
      vertex 0 0 0
      vertex 7.28969 -6.84547 -5
    endloop
  endfacet
  facet normal 0.316353 -0.316353 0.894339
    outer loop
      vertex 7.28969 -6.84547 -5
      vertex 0 0 0
      vertex 6.84547 -7.28969 -5
    endloop
  endfacet
  facet normal 0.441881 -0.0699912 0.894339
    outer loop
      vertex 9.92115 -1.25333 -5
      vertex 0 0 0
      vertex 9.82287 -1.87381 -5
    endloop
  endfacet
  facet normal 0.39863 -0.203107 0.894339
    outer loop
      vertex 9.04827 -4.25779 -5
      vertex 0 0 0
      vertex 8.76307 -4.81754 -5
    endloop
  endfacet
  facet normal 0.420941 -0.151549 0.894339
    outer loop
      vertex 9.51056 -3.09017 -5
      vertex 0 0 0
      vertex 9.29776 -3.68124 -5
    endloop
  endfacet
  facet normal -0.177677 -0.410596 0.894339
    outer loop
      vertex 0 0 0
      vertex -4.25779 -9.04827 -5
      vertex -3.68124 -9.29776 -5
    endloop
  endfacet
  facet normal -0.203107 -0.39863 0.894339
    outer loop
      vertex 0 0 0
      vertex -4.81754 -8.76307 -5
      vertex -4.25779 -9.04827 -5
    endloop
  endfacet
  facet normal 0.0975939 0.436616 0.894339
    outer loop
      vertex 1.87381 9.82287 -5
      vertex 0 0 0
      vertex 2.4869 9.68583 -5
    endloop
  endfacet
  facet normal -0.370026 -0.251472 0.894339
    outer loop
      vertex 0 0 0
      vertex -8.44328 -5.35827 -5
      vertex -8.09017 -5.87785 -5
    endloop
  endfacet
  facet normal -0.385086 0.227742 0.894339
    outer loop
      vertex -8.44328 5.35827 -5
      vertex -8.76307 4.81754 -5
      vertex 0 0 0
    endloop
  endfacet
  facet normal 0.0140509 -0.447169 0.894339
    outer loop
      vertex 0 0 0
      vertex 0 -10 -5
      vertex 0.627905 -9.98027 -5
    endloop
  endfacet
  facet normal -0.420941 -0.151549 0.894339
    outer loop
      vertex 0 0 0
      vertex -9.51056 -3.09017 -5
      vertex -9.29776 -3.68124 -5
    endloop
  endfacet
  facet normal 0.445405 0.0421031 0.894339
    outer loop
      vertex 9.92115 1.25333 -5
      vertex 0 0 0
      vertex 9.98027 0.627905 -5
    endloop
  endfacet
  facet normal 0.203107 -0.39863 0.894339
    outer loop
      vertex 4.81754 -8.76307 -5
      vertex 0 0 0
      vertex 4.25779 -9.04827 -5
    endloop
  endfacet
  facet normal 0.177677 -0.410596 0.894339
    outer loop
      vertex 4.25779 -9.04827 -5
      vertex 0 0 0
      vertex 3.68124 -9.29776 -5
    endloop
  endfacet
  facet normal -0.447169 0.0140509 0.894339
    outer loop
      vertex -9.98027 0.627905 -5
      vertex -10 0 -5
      vertex 0 0 0
    endloop
  endfacet
  facet normal -0.445405 0.0421031 0.894339
    outer loop
      vertex -9.92115 1.25333 -5
      vertex -9.98027 0.627905 -5
      vertex 0 0 0
    endloop
  endfacet
  facet normal -0.203107 0.39863 0.894339
    outer loop
      vertex -4.25779 9.04827 -5
      vertex -4.81754 8.76307 -5
      vertex 0 0 0
    endloop
  endfacet
  facet normal -0.274209 0.353507 0.894339
    outer loop
      vertex -5.87785 8.09017 -5
      vertex -6.37424 7.70513 -5
      vertex 0 0 0
    endloop
  endfacet
  facet normal -0.335594 0.295862 0.894339
    outer loop
      vertex -7.28969 6.84547 -5
      vertex -7.70513 6.37424 -5
      vertex 0 0 0
    endloop
  endfacet
  facet normal -0.429625 -0.12482 0.894339
    outer loop
      vertex 0 0 0
      vertex -9.68583 -2.4869 -5
      vertex -9.51056 -3.09017 -5
    endloop
  endfacet
  facet normal -0.370026 0.251472 0.894339
    outer loop
      vertex -8.09017 5.87785 -5
      vertex -8.44328 5.35827 -5
      vertex 0 0 0
    endloop
  endfacet
  facet normal -0.410596 0.177677 0.894339
    outer loop
      vertex -9.04827 4.25779 -5
      vertex -9.29776 3.68124 -5
      vertex 0 0 0
    endloop
  endfacet
  facet normal 0.0140509 0.447169 0.894339
    outer loop
      vertex 0 10 -5
      vertex 0 0 0
      vertex 0.627905 9.98027 -5
    endloop
  endfacet
  facet normal 0.0421031 0.445405 0.894339
    outer loop
      vertex 0.627905 9.98027 -5
      vertex 0 0 0
      vertex 1.25333 9.92115 -5
    endloop
  endfacet
  facet normal 0.295862 -0.335594 0.894339
    outer loop
      vertex 6.84547 -7.28969 -5
      vertex 0 0 0
      vertex 6.37424 -7.70513 -5
    endloop
  endfacet
  facet normal 0.335594 0.295862 0.894339
    outer loop
      vertex 7.28969 6.84547 -5
      vertex 0 0 0
      vertex 7.70513 6.37424 -5
    endloop
  endfacet
  facet normal 0.353507 0.274209 0.894339
    outer loop
      vertex 7.70513 6.37424 -5
      vertex 0 0 0
      vertex 8.09017 5.87785 -5
    endloop
  endfacet
  facet normal 0.436616 -0.0975939 0.894339
    outer loop
      vertex 9.82287 -1.87381 -5
      vertex 0 0 0
      vertex 9.68583 -2.4869 -5
    endloop
  endfacet
  facet normal 0.447169 -0.0140509 0.894339
    outer loop
      vertex 10 0 -5
      vertex 0 0 0
      vertex 9.98027 -0.627905 -5
    endloop
  endfacet
  facet normal 0.203107 0.39863 0.894339
    outer loop
      vertex 4.25779 9.04827 -5
      vertex 0 0 0
      vertex 4.81754 8.76307 -5
    endloop
  endfacet
  facet normal 0.410596 0.177677 0.894339
    outer loop
      vertex 9.04827 4.25779 -5
      vertex 0 0 0
      vertex 9.29776 3.68124 -5
    endloop
  endfacet
  facet normal 0.420941 0.151549 0.894339
    outer loop
      vertex 9.29776 3.68124 -5
      vertex 0 0 0
      vertex 9.51056 3.09017 -5
    endloop
  endfacet
  facet normal 0.12482 -0.429625 0.894339
    outer loop
      vertex 3.09017 -9.51056 -5
      vertex 0 0 0
      vertex 2.4869 -9.68583 -5
    endloop
  endfacet
  facet normal -0.274209 -0.353507 0.894339
    outer loop
      vertex 0 0 0
      vertex -6.37424 -7.70513 -5
      vertex -5.87785 -8.09017 -5
    endloop
  endfacet
  facet normal 0.370026 -0.251472 0.894339
    outer loop
      vertex 8.44328 -5.35827 -5
      vertex 0 0 0
      vertex 8.09017 -5.87785 -5
    endloop
  endfacet
  facet normal 0.429625 -0.12482 0.894339
    outer loop
      vertex 9.68583 -2.4869 -5
      vertex 0 0 0
      vertex 9.51056 -3.09017 -5
    endloop
  endfacet
  facet normal 0.385086 -0.227742 0.894339
    outer loop
      vertex 8.76307 -4.81754 -5
      vertex 0 0 0
      vertex 8.44328 -5.35827 -5
    endloop
  endfacet
  facet normal -0.227742 -0.385086 0.894339
    outer loop
      vertex 0 0 0
      vertex -5.35827 -8.44328 -5
      vertex -4.81754 -8.76307 -5
    endloop
  endfacet
  facet normal -0.251472 -0.370026 0.894339
    outer loop
      vertex 0 0 0
      vertex -5.87785 -8.09017 -5
      vertex -5.35827 -8.44328 -5
    endloop
  endfacet
  facet normal -0.445405 -0.0421031 0.894339
    outer loop
      vertex 0 0 0
      vertex -9.98027 -0.627905 -5
      vertex -9.92115 -1.25333 -5
    endloop
  endfacet
  facet normal -0.447169 -0.0140509 0.894339
    outer loop
      vertex 0 0 0
      vertex -10 0 -5
      vertex -9.98027 -0.627905 -5
    endloop
  endfacet
  facet normal -0.353507 -0.274209 0.894339
    outer loop
      vertex 0 0 0
      vertex -8.09017 -5.87785 -5
      vertex -7.70513 -6.37424 -5
    endloop
  endfacet
  facet normal -0.39863 -0.203107 0.894339
    outer loop
      vertex 0 0 0
      vertex -9.04827 -4.25779 -5
      vertex -8.76307 -4.81754 -5
    endloop
  endfacet
  facet normal -0.436616 -0.0975939 0.894339
    outer loop
      vertex 0 0 0
      vertex -9.82287 -1.87381 -5
      vertex -9.68583 -2.4869 -5
    endloop
  endfacet
endsolid OpenSCAD_Model
