solid OpenSCAD_Model
  facet normal -0.195091 -0.980785 0
    outer loop
      vertex -26.9134 -29.6194 -2
      vertex -25 -30 2.01
      vertex -26.9134 -29.6194 2.01
    endloop
  endfacet
  facet normal -0.195091 -0.980785 -0
    outer loop
      vertex -25 -30 2.01
      vertex -26.9134 -29.6194 -2
      vertex -25 -30 -2
    endloop
  endfacet
  facet normal 0.555587 0.831458 -0
    outer loop
      vertex 28.5355 28.5355 -2
      vertex 26.9134 29.6194 2.01
      vertex 28.5355 28.5355 2.01
    endloop
  endfacet
  facet normal 0.555587 0.831458 0
    outer loop
      vertex 26.9134 29.6194 2.01
      vertex 28.5355 28.5355 -2
      vertex 26.9134 29.6194 -2
    endloop
  endfacet
  facet normal 0 -1 0
    outer loop
      vertex -25 -30 -2
      vertex 25 -30 2.01
      vertex -25 -30 2.01
    endloop
  endfacet
  facet normal 0 -1 -0
    outer loop
      vertex 25 -30 2.01
      vertex -25 -30 -2
      vertex 25 -30 -2
    endloop
  endfacet
  facet normal -0.555587 0.831458 0
    outer loop
      vertex -26.9134 29.6194 -2
      vertex -28.5355 28.5355 2.01
      vertex -26.9134 29.6194 2.01
    endloop
  endfacet
  facet normal -0.555587 0.831458 0
    outer loop
      vertex -28.5355 28.5355 2.01
      vertex -26.9134 29.6194 -2
      vertex -28.5355 28.5355 -2
    endloop
  endfacet
  facet normal -0.555587 -0.831458 0
    outer loop
      vertex -28.5355 -28.5355 -2
      vertex -26.9134 -29.6194 2.01
      vertex -28.5355 -28.5355 2.01
    endloop
  endfacet
  facet normal -0.555587 -0.831458 -0
    outer loop
      vertex -26.9134 -29.6194 2.01
      vertex -28.5355 -28.5355 -2
      vertex -26.9134 -29.6194 -2
    endloop
  endfacet
  facet normal 0.980785 0.195091 0
    outer loop
      vertex 30 25 2.01
      vertex 29.6194 26.9134 -2
      vertex 29.6194 26.9134 2.01
    endloop
  endfacet
  facet normal 0.980785 0.195091 0
    outer loop
      vertex 29.6194 26.9134 -2
      vertex 30 25 2.01
      vertex 30 25 -2
    endloop
  endfacet
  facet normal -0.831458 -0.555587 0
    outer loop
      vertex -28.5355 -28.5355 -2
      vertex -29.6194 -26.9134 2.01
      vertex -29.6194 -26.9134 -2
    endloop
  endfacet
  facet normal -0.831458 -0.555587 0
    outer loop
      vertex -29.6194 -26.9134 2.01
      vertex -28.5355 -28.5355 -2
      vertex -28.5355 -28.5355 2.01
    endloop
  endfacet
  facet normal 1 -0 0
    outer loop
      vertex 30 -25 2.01
      vertex 30 25 -2
      vertex 30 25 2.01
    endloop
  endfacet
  facet normal 1 0 0
    outer loop
      vertex 30 25 -2
      vertex 30 -25 2.01
      vertex 30 -25 -2
    endloop
  endfacet
  facet normal -0.980785 -0.195091 0
    outer loop
      vertex -29.6194 -26.9134 -2
      vertex -30 -25 2.01
      vertex -30 -25 -2
    endloop
  endfacet
  facet normal -0.980785 -0.195091 0
    outer loop
      vertex -30 -25 2.01
      vertex -29.6194 -26.9134 -2
      vertex -29.6194 -26.9134 2.01
    endloop
  endfacet
  facet normal -0.980785 0.195091 0
    outer loop
      vertex -30 25 -2
      vertex -29.6194 26.9134 2.01
      vertex -29.6194 26.9134 -2
    endloop
  endfacet
  facet normal -0.980785 0.195091 0
    outer loop
      vertex -29.6194 26.9134 2.01
      vertex -30 25 -2
      vertex -30 25 2.01
    endloop
  endfacet
  facet normal 0.831458 -0.555587 0
    outer loop
      vertex 28.5355 -28.5355 2.01
      vertex 29.6194 -26.9134 -2
      vertex 29.6194 -26.9134 2.01
    endloop
  endfacet
  facet normal 0.831458 -0.555587 0
    outer loop
      vertex 29.6194 -26.9134 -2
      vertex 28.5355 -28.5355 2.01
      vertex 28.5355 -28.5355 -2
    endloop
  endfacet
  facet normal -0.831458 0.555587 0
    outer loop
      vertex -29.6194 26.9134 -2
      vertex -28.5355 28.5355 2.01
      vertex -28.5355 28.5355 -2
    endloop
  endfacet
  facet normal -0.831458 0.555587 0
    outer loop
      vertex -28.5355 28.5355 2.01
      vertex -29.6194 26.9134 -2
      vertex -29.6194 26.9134 2.01
    endloop
  endfacet
  facet normal 0.831458 0.555587 0
    outer loop
      vertex 29.6194 26.9134 2.01
      vertex 28.5355 28.5355 -2
      vertex 28.5355 28.5355 2.01
    endloop
  endfacet
  facet normal 0.831458 0.555587 0
    outer loop
      vertex 28.5355 28.5355 -2
      vertex 29.6194 26.9134 2.01
      vertex 29.6194 26.9134 -2
    endloop
  endfacet
  facet normal 0 0 -1
    outer loop
      vertex 25 -30 -2
      vertex 30 -25 -2
      vertex 29.6194 -26.9134 -2
    endloop
  endfacet
  facet normal 0 0 -1
    outer loop
      vertex 30 -25 -2
      vertex 3 0 -2
      vertex 30 25 -2
    endloop
  endfacet
  facet normal 0 0 -1
    outer loop
      vertex 25 -30 -2
      vertex 29.6194 -26.9134 -2
      vertex 28.5355 -28.5355 -2
    endloop
  endfacet
  facet normal 0 0 -1
    outer loop
      vertex 2.42705 1.76336 -2
      vertex 30 25 -2
      vertex 3 0 -2
    endloop
  endfacet
  facet normal 0 0 -1
    outer loop
      vertex 25 -30 -2
      vertex 28.5355 -28.5355 -2
      vertex 26.9134 -29.6194 -2
    endloop
  endfacet
  facet normal 0 -0 -1
    outer loop
      vertex 25 30 -2
      vertex 30 25 -2
      vertex 2.42705 1.76336 -2
    endloop
  endfacet
  facet normal -0 0 -1
    outer loop
      vertex 30 -25 -2
      vertex 25 -30 -2
      vertex 2.42705 -1.76336 -2
    endloop
  endfacet
  facet normal 0 0 -1
    outer loop
      vertex 30 25 -2
      vertex 25 30 -2
      vertex 29.6194 26.9134 -2
    endloop
  endfacet
  facet normal 0 0 -1
    outer loop
      vertex 29.6194 26.9134 -2
      vertex 25 30 -2
      vertex 28.5355 28.5355 -2
    endloop
  endfacet
  facet normal 0 0 -1
    outer loop
      vertex 30 -25 -2
      vertex 2.42705 -1.76336 -2
      vertex 3 0 -2
    endloop
  endfacet
  facet normal 0 0 -1
    outer loop
      vertex 25 -30 -2
      vertex 0.927051 -2.85317 -2
      vertex 2.42705 -1.76336 -2
    endloop
  endfacet
  facet normal 0 0 -1
    outer loop
      vertex 25 -30 -2
      vertex -0.927051 -2.85317 -2
      vertex 0.927051 -2.85317 -2
    endloop
  endfacet
  facet normal 0 0 -1
    outer loop
      vertex -25 -30 -2
      vertex -0.927051 -2.85317 -2
      vertex 25 -30 -2
    endloop
  endfacet
  facet normal 0 0 -1
    outer loop
      vertex -30 -25 -2
      vertex -2.42705 -1.76336 -2
      vertex -25 -30 -2
    endloop
  endfacet
  facet normal -0 0 -1
    outer loop
      vertex -0.927051 -2.85317 -2
      vertex -25 -30 -2
      vertex -2.42705 -1.76336 -2
    endloop
  endfacet
  facet normal 0 0 -1
    outer loop
      vertex 28.5355 28.5355 -2
      vertex 25 30 -2
      vertex 26.9134 29.6194 -2
    endloop
  endfacet
  facet normal 0 0 -1
    outer loop
      vertex 0.927051 2.85317 -2
      vertex 25 30 -2
      vertex 2.42705 1.76336 -2
    endloop
  endfacet
  facet normal 0 0 -1
    outer loop
      vertex -0.927051 2.85317 -2
      vertex 25 30 -2
      vertex 0.927051 2.85317 -2
    endloop
  endfacet
  facet normal 0 0 -1
    outer loop
      vertex -25 30 -2
      vertex -0.927051 2.85317 -2
      vertex -2.42705 1.76336 -2
    endloop
  endfacet
  facet normal -0 0 -1
    outer loop
      vertex -2.42705 -1.76336 -2
      vertex -30 -25 -2
      vertex -3 0 -2
    endloop
  endfacet
  facet normal 0 0 -1
    outer loop
      vertex -0.927051 2.85317 -2
      vertex -25 30 -2
      vertex 25 30 -2
    endloop
  endfacet
  facet normal 0 0 -1
    outer loop
      vertex -30 25 -2
      vertex -3 0 -2
      vertex -30 -25 -2
    endloop
  endfacet
  facet normal 0 0 -1
    outer loop
      vertex -30 -25 -2
      vertex -25 -30 -2
      vertex -26.9134 -29.6194 -2
    endloop
  endfacet
  facet normal 0 0 -1
    outer loop
      vertex -3 0 -2
      vertex -30 25 -2
      vertex -2.42705 1.76336 -2
    endloop
  endfacet
  facet normal 0 0 -1
    outer loop
      vertex -30 -25 -2
      vertex -26.9134 -29.6194 -2
      vertex -28.5355 -28.5355 -2
    endloop
  endfacet
  facet normal 0 0 -1
    outer loop
      vertex -2.42705 1.76336 -2
      vertex -30 25 -2
      vertex -25 30 -2
    endloop
  endfacet
  facet normal 0 0 -1
    outer loop
      vertex -30 -25 -2
      vertex -28.5355 -28.5355 -2
      vertex -29.6194 -26.9134 -2
    endloop
  endfacet
  facet normal 0 0 -1
    outer loop
      vertex -25 30 -2
      vertex -30 25 -2
      vertex -26.9134 29.6194 -2
    endloop
  endfacet
  facet normal 0 0 -1
    outer loop
      vertex -26.9134 29.6194 -2
      vertex -30 25 -2
      vertex -28.5355 28.5355 -2
    endloop
  endfacet
  facet normal 0 0 -1
    outer loop
      vertex -28.5355 28.5355 -2
      vertex -30 25 -2
      vertex -29.6194 26.9134 -2
    endloop
  endfacet
  facet normal 0 1 -0
    outer loop
      vertex 25 30 -2
      vertex -25 30 2.01
      vertex 25 30 2.01
    endloop
  endfacet
  facet normal 0 1 0
    outer loop
      vertex -25 30 2.01
      vertex 25 30 -2
      vertex -25 30 -2
    endloop
  endfacet
  facet normal 0.980785 -0.195091 0
    outer loop
      vertex 29.6194 -26.9134 2.01
      vertex 30 -25 -2
      vertex 30 -25 2.01
    endloop
  endfacet
  facet normal 0.980785 -0.195091 0
    outer loop
      vertex 30 -25 -2
      vertex 29.6194 -26.9134 2.01
      vertex 29.6194 -26.9134 -2
    endloop
  endfacet
  facet normal -1 0 0
    outer loop
      vertex -30 -25 -2
      vertex -30 25 2.01
      vertex -30 25 -2
    endloop
  endfacet
  facet normal -1 -0 0
    outer loop
      vertex -30 25 2.01
      vertex -30 -25 -2
      vertex -30 -25 2.01
    endloop
  endfacet
  facet normal 0 0 1
    outer loop
      vertex 25 30 2.01
      vertex 30 25 2.01
      vertex 29.6194 26.9134 2.01
    endloop
  endfacet
  facet normal 0 0 1
    outer loop
      vertex 30 25 2.01
      vertex 25 30 2.01
      vertex 30 -25 2.01
    endloop
  endfacet
  facet normal 0 0 1
    outer loop
      vertex 25 30 2.01
      vertex 29.6194 26.9134 2.01
      vertex 28.5355 28.5355 2.01
    endloop
  endfacet
  facet normal 0 0 1
    outer loop
      vertex 25 -30 2.01
      vertex 30 -25 2.01
      vertex 25 30 2.01
    endloop
  endfacet
  facet normal 0 0 1
    outer loop
      vertex 25 30 2.01
      vertex 28.5355 28.5355 2.01
      vertex 26.9134 29.6194 2.01
    endloop
  endfacet
  facet normal 0 0 1
    outer loop
      vertex 30 -25 2.01
      vertex 25 -30 2.01
      vertex 29.6194 -26.9134 2.01
    endloop
  endfacet
  facet normal 0 0 1
    outer loop
      vertex 29.6194 -26.9134 2.01
      vertex 25 -30 2.01
      vertex 28.5355 -28.5355 2.01
    endloop
  endfacet
  facet normal 0 0 1
    outer loop
      vertex 28.5355 -28.5355 2.01
      vertex 25 -30 2.01
      vertex 26.9134 -29.6194 2.01
    endloop
  endfacet
  facet normal -0 0 1
    outer loop
      vertex -25 30 2.01
      vertex 25 -30 2.01
      vertex 25 30 2.01
    endloop
  endfacet
  facet normal 0 0 1
    outer loop
      vertex -25 30 2.01
      vertex -25 -30 2.01
      vertex 25 -30 2.01
    endloop
  endfacet
  facet normal 0 0 1
    outer loop
      vertex -30 25 2.01
      vertex -25 30 2.01
      vertex -26.9134 29.6194 2.01
    endloop
  endfacet
  facet normal 0 0 1
    outer loop
      vertex -25 30 2.01
      vertex -30 25 2.01
      vertex -25 -30 2.01
    endloop
  endfacet
  facet normal 0 0 1
    outer loop
      vertex -30 25 2.01
      vertex -26.9134 29.6194 2.01
      vertex -28.5355 28.5355 2.01
    endloop
  endfacet
  facet normal -0 0 1
    outer loop
      vertex -30 -25 2.01
      vertex -25 -30 2.01
      vertex -30 25 2.01
    endloop
  endfacet
  facet normal 0 0 1
    outer loop
      vertex -30 25 2.01
      vertex -28.5355 28.5355 2.01
      vertex -29.6194 26.9134 2.01
    endloop
  endfacet
  facet normal 0 0 1
    outer loop
      vertex -25 -30 2.01
      vertex -30 -25 2.01
      vertex -26.9134 -29.6194 2.01
    endloop
  endfacet
  facet normal 0 0 1
    outer loop
      vertex -26.9134 -29.6194 2.01
      vertex -30 -25 2.01
      vertex -28.5355 -28.5355 2.01
    endloop
  endfacet
  facet normal 0 0 1
    outer loop
      vertex -28.5355 -28.5355 2.01
      vertex -30 -25 2.01
      vertex -29.6194 -26.9134 2.01
    endloop
  endfacet
  facet normal -0.195091 0.980785 0
    outer loop
      vertex -25 30 -2
      vertex -26.9134 29.6194 2.01
      vertex -25 30 2.01
    endloop
  endfacet
  facet normal -0.195091 0.980785 0
    outer loop
      vertex -26.9134 29.6194 2.01
      vertex -25 30 -2
      vertex -26.9134 29.6194 -2
    endloop
  endfacet
  facet normal 0.555587 -0.831458 0
    outer loop
      vertex 26.9134 -29.6194 -2
      vertex 28.5355 -28.5355 2.01
      vertex 26.9134 -29.6194 2.01
    endloop
  endfacet
  facet normal 0.555587 -0.831458 0
    outer loop
      vertex 28.5355 -28.5355 2.01
      vertex 26.9134 -29.6194 -2
      vertex 28.5355 -28.5355 -2
    endloop
  endfacet
  facet normal 0.195091 0.980785 -0
    outer loop
      vertex 26.9134 29.6194 -2
      vertex 25 30 2.01
      vertex 26.9134 29.6194 2.01
    endloop
  endfacet
  facet normal 0.195091 0.980785 0
    outer loop
      vertex 25 30 2.01
      vertex 26.9134 29.6194 -2
      vertex 25 30 -2
    endloop
  endfacet
  facet normal 0.195091 -0.980785 0
    outer loop
      vertex 25 -30 -2
      vertex 26.9134 -29.6194 2.01
      vertex 25 -30 2.01
    endloop
  endfacet
  facet normal 0.195091 -0.980785 0
    outer loop
      vertex 26.9134 -29.6194 2.01
      vertex 25 -30 -2
      vertex 26.9134 -29.6194 -2
    endloop
  endfacet
  facet normal 0.951057 0.309017 0
    outer loop
      vertex -2.42705 -1.76336 2
      vertex -3 0 -2
      vertex -3 0 2
    endloop
  endfacet
  facet normal 0.951057 0.309017 0
    outer loop
      vertex -3 0 -2
      vertex -2.42705 -1.76336 2
      vertex -2.42705 -1.76336 -2
    endloop
  endfacet
  facet normal -0.587784 -0.809018 0
    outer loop
      vertex 0.927051 2.85317 -2
      vertex 2.42705 1.76336 2
      vertex 0.927051 2.85317 2
    endloop
  endfacet
  facet normal -0.587784 -0.809018 -0
    outer loop
      vertex 2.42705 1.76336 2
      vertex 0.927051 2.85317 -2
      vertex 2.42705 1.76336 -2
    endloop
  endfacet
  facet normal -0.951057 -0.309017 0
    outer loop
      vertex 3 0 -2
      vertex 2.42705 1.76336 2
      vertex 2.42705 1.76336 -2
    endloop
  endfacet
  facet normal -0.951057 -0.309017 0
    outer loop
      vertex 2.42705 1.76336 2
      vertex 3 0 -2
      vertex 3 0 2
    endloop
  endfacet
  facet normal 0 -1 0
    outer loop
      vertex -0.927051 2.85317 -2
      vertex 0.927051 2.85317 2
      vertex -0.927051 2.85317 2
    endloop
  endfacet
  facet normal 0 -1 -0
    outer loop
      vertex 0.927051 2.85317 2
      vertex -0.927051 2.85317 -2
      vertex 0.927051 2.85317 -2
    endloop
  endfacet
  facet normal 0 0 -1
    outer loop
      vertex 2.42705 -1.76336 2
      vertex 2.42705 1.76336 2
      vertex 3 0 2
    endloop
  endfacet
  facet normal 0 0 -1
    outer loop
      vertex 0.927051 -2.85317 2
      vertex 2.42705 1.76336 2
      vertex 2.42705 -1.76336 2
    endloop
  endfacet
  facet normal 0 0 -1
    outer loop
      vertex 0.927051 -2.85317 2
      vertex 0.927051 2.85317 2
      vertex 2.42705 1.76336 2
    endloop
  endfacet
  facet normal 0 0 -1
    outer loop
      vertex -0.927051 -2.85317 2
      vertex 0.927051 2.85317 2
      vertex 0.927051 -2.85317 2
    endloop
  endfacet
  facet normal 0 0 -1
    outer loop
      vertex -0.927051 -2.85317 2
      vertex -0.927051 2.85317 2
      vertex 0.927051 2.85317 2
    endloop
  endfacet
  facet normal 0 0 -1
    outer loop
      vertex -2.42705 -1.76336 2
      vertex -0.927051 2.85317 2
      vertex -0.927051 -2.85317 2
    endloop
  endfacet
  facet normal 0 0 -1
    outer loop
      vertex -2.42705 -1.76336 2
      vertex -2.42705 1.76336 2
      vertex -0.927051 2.85317 2
    endloop
  endfacet
  facet normal 0 -0 -1
    outer loop
      vertex -2.42705 1.76336 2
      vertex -2.42705 -1.76336 2
      vertex -3 0 2
    endloop
  endfacet
  facet normal 0.587784 0.809018 -0
    outer loop
      vertex -0.927051 -2.85317 -2
      vertex -2.42705 -1.76336 2
      vertex -0.927051 -2.85317 2
    endloop
  endfacet
  facet normal 0.587784 0.809018 0
    outer loop
      vertex -2.42705 -1.76336 2
      vertex -0.927051 -2.85317 -2
      vertex -2.42705 -1.76336 -2
    endloop
  endfacet
  facet normal -0.951057 0.309017 0
    outer loop
      vertex 2.42705 -1.76336 -2
      vertex 3 0 2
      vertex 3 0 -2
    endloop
  endfacet
  facet normal -0.951057 0.309017 0
    outer loop
      vertex 3 0 2
      vertex 2.42705 -1.76336 -2
      vertex 2.42705 -1.76336 2
    endloop
  endfacet
  facet normal 0.587784 -0.809018 0
    outer loop
      vertex -2.42705 1.76336 -2
      vertex -0.927051 2.85317 2
      vertex -2.42705 1.76336 2
    endloop
  endfacet
  facet normal 0.587784 -0.809018 0
    outer loop
      vertex -0.927051 2.85317 2
      vertex -2.42705 1.76336 -2
      vertex -0.927051 2.85317 -2
    endloop
  endfacet
  facet normal 0 1 -0
    outer loop
      vertex 0.927051 -2.85317 -2
      vertex -0.927051 -2.85317 2
      vertex 0.927051 -2.85317 2
    endloop
  endfacet
  facet normal 0 1 0
    outer loop
      vertex -0.927051 -2.85317 2
      vertex 0.927051 -2.85317 -2
      vertex -0.927051 -2.85317 -2
    endloop
  endfacet
  facet normal -0.587784 0.809018 0
    outer loop
      vertex 2.42705 -1.76336 -2
      vertex 0.927051 -2.85317 2
      vertex 2.42705 -1.76336 2
    endloop
  endfacet
  facet normal -0.587784 0.809018 0
    outer loop
      vertex 0.927051 -2.85317 2
      vertex 2.42705 -1.76336 -2
      vertex 0.927051 -2.85317 -2
    endloop
  endfacet
  facet normal 0.951057 -0.309017 0
    outer loop
      vertex -3 0 2
      vertex -2.42705 1.76336 -2
      vertex -2.42705 1.76336 2
    endloop
  endfacet
  facet normal 0.951057 -0.309017 0
    outer loop
      vertex -2.42705 1.76336 -2
      vertex -3 0 2
      vertex -3 0 -2
    endloop
  endfacet
endsolid OpenSCAD_Model
