solid OpenSCAD_Model
  facet normal -1 0 0
    outer loop
      vertex 0 0 0
      vertex 0 5 40
      vertex 0 5 0
    endloop
  endfacet
  facet normal -1 -0 0
    outer loop
      vertex 0 5 40
      vertex 0 0 0
      vertex 0 0 40
    endloop
  endfacet
  facet normal -0 0 1
    outer loop
      vertex 0 5 40
      vertex 5 0 40
      vertex 5 5 40
    endloop
  endfacet
  facet normal 0 0 1
    outer loop
      vertex 5 0 40
      vertex 0 5 40
      vertex 0 0 40
    endloop
  endfacet
  facet normal 1 -0 0
    outer loop
      vertex 5 0 40
      vertex 5 5 5
      vertex 5 5 40
    endloop
  endfacet
  facet normal 1 0 0
    outer loop
      vertex 5 5 5
      vertex 5 0 40
      vertex 5 0 5
    endloop
  endfacet
  facet normal 0 1 0
    outer loop
      vertex 40 5 40
      vertex 35 5 5
      vertex 35 5 40
    endloop
  endfacet
  facet normal 0 1 0
    outer loop
      vertex 35 5 5
      vertex 40 5 0
      vertex 5 5 5
    endloop
  endfacet
  facet normal 0 1 -0
    outer loop
      vertex 40 5 0
      vertex 35 5 5
      vertex 40 5 40
    endloop
  endfacet
  facet normal 0 1 -0
    outer loop
      vertex 5 5 5
      vertex 0 5 40
      vertex 5 5 40
    endloop
  endfacet
  facet normal 0 1 0
    outer loop
      vertex 5 5 5
      vertex 0 5 0
      vertex 0 5 40
    endloop
  endfacet
  facet normal 0 1 0
    outer loop
      vertex 0 5 0
      vertex 5 5 5
      vertex 40 5 0
    endloop
  endfacet
  facet normal 0 0 -1
    outer loop
      vertex 0 0 0
      vertex 40 5 0
      vertex 40 0 0
    endloop
  endfacet
  facet normal -0 0 -1
    outer loop
      vertex 40 5 0
      vertex 0 0 0
      vertex 0 5 0
    endloop
  endfacet
  facet normal 0 -1 0
    outer loop
      vertex 0 0 40
      vertex 5 0 5
      vertex 5 0 40
    endloop
  endfacet
  facet normal 0 -1 -0
    outer loop
      vertex 5 0 5
      vertex 0 0 0
      vertex 35 0 5
    endloop
  endfacet
  facet normal 0 -1 0
    outer loop
      vertex 0 0 0
      vertex 5 0 5
      vertex 0 0 40
    endloop
  endfacet
  facet normal 0 -1 0
    outer loop
      vertex 35 0 5
      vertex 40 0 40
      vertex 35 0 40
    endloop
  endfacet
  facet normal 0 -1 0
    outer loop
      vertex 35 0 5
      vertex 40 0 0
      vertex 40 0 40
    endloop
  endfacet
  facet normal 0 -1 0
    outer loop
      vertex 40 0 0
      vertex 35 0 5
      vertex 0 0 0
    endloop
  endfacet
  facet normal -0 0 1
    outer loop
      vertex 5 5 5
      vertex 35 0 5
      vertex 35 5 5
    endloop
  endfacet
  facet normal 0 0 1
    outer loop
      vertex 35 0 5
      vertex 5 5 5
      vertex 5 0 5
    endloop
  endfacet
  facet normal 1 -0 0
    outer loop
      vertex 40 0 40
      vertex 40 5 0
      vertex 40 5 40
    endloop
  endfacet
  facet normal 1 0 0
    outer loop
      vertex 40 5 0
      vertex 40 0 40
      vertex 40 0 0
    endloop
  endfacet
  facet normal -0 0 1
    outer loop
      vertex 35 5 40
      vertex 40 0 40
      vertex 40 5 40
    endloop
  endfacet
  facet normal 0 0 1
    outer loop
      vertex 40 0 40
      vertex 35 5 40
      vertex 35 0 40
    endloop
  endfacet
  facet normal -1 0 0
    outer loop
      vertex 35 0 5
      vertex 35 5 40
      vertex 35 5 5
    endloop
  endfacet
  facet normal -1 -0 0
    outer loop
      vertex 35 5 40
      vertex 35 0 5
      vertex 35 0 40
    endloop
  endfacet
endsolid OpenSCAD_Model
