solid OpenSCAD_Model
  facet normal -0 0 -1
    outer loop
      vertex 14 6 0
      vertex 12 2 0
      vertex 10 10 0
    endloop
  endfacet
  facet normal 0 0 -1
    outer loop
      vertex 10 10 0
      vertex 2 10 0
      vertex 5 12 0
    endloop
  endfacet
  facet normal -0 0 -1
    outer loop
      vertex 12 2 0
      vertex 10 0 0
      vertex 10 10 0
    endloop
  endfacet
  facet normal -0 0 -1
    outer loop
      vertex 10 10 0
      vertex 1 7 0
      vertex 2 10 0
    endloop
  endfacet
  facet normal 0 -0 -1
    outer loop
      vertex 10 10 0
      vertex 10 0 0
      vertex 1 7 0
    endloop
  endfacet
  facet normal 0 0 -1
    outer loop
      vertex 1 7 0
      vertex 0 0 0
      vertex -1 3 0
    endloop
  endfacet
  facet normal 0 -0 -1
    outer loop
      vertex 1 7 0
      vertex 10 0 0
      vertex 0 0 0
    endloop
  endfacet
  facet normal 0 0 1
    outer loop
      vertex 10 10 3
      vertex 12 2 3
      vertex 14 6 3
    endloop
  endfacet
  facet normal 0 0 1
    outer loop
      vertex 5 12 3
      vertex 2 10 3
      vertex 10 10 3
    endloop
  endfacet
  facet normal 0 0 1
    outer loop
      vertex 10 10 3
      vertex 10 0 3
      vertex 12 2 3
    endloop
  endfacet
  facet normal -0 0 1
    outer loop
      vertex 2 10 3
      vertex 1 7 3
      vertex 10 10 3
    endloop
  endfacet
  facet normal -0 0 1
    outer loop
      vertex 1 7 3
      vertex 10 0 3
      vertex 10 10 3
    endloop
  endfacet
  facet normal -0 0 1
    outer loop
      vertex -1 3 3
      vertex 0 0 3
      vertex 1 7 3
    endloop
  endfacet
  facet normal 0 0 1
    outer loop
      vertex 0 0 3
      vertex 10 0 3
      vertex 1 7 3
    endloop
  endfacet
  facet normal 0.894427 -0.447214 0
    outer loop
      vertex 14 6 0
      vertex 12 2 3
      vertex 12 2 0
    endloop
  endfacet
  facet normal 0.894427 -0.447214 0
    outer loop
      vertex 14 6 0
      vertex 14 6 3
      vertex 12 2 3
    endloop
  endfacet
  facet normal 0.707107 0.707107 0
    outer loop
      vertex 10 10 0
      vertex 14 6 3
      vertex 14 6 0
    endloop
  endfacet
  facet normal 0.707107 0.707107 -0
    outer loop
      vertex 10 10 0
      vertex 10 10 3
      vertex 14 6 3
    endloop
  endfacet
  facet normal 0.371391 0.928477 0
    outer loop
      vertex 5 12 0
      vertex 10 10 3
      vertex 10 10 0
    endloop
  endfacet
  facet normal 0.371391 0.928477 -0
    outer loop
      vertex 5 12 0
      vertex 5 12 3
      vertex 10 10 3
    endloop
  endfacet
  facet normal -0.5547 0.83205 0
    outer loop
      vertex 2 10 0
      vertex 5 12 3
      vertex 5 12 0
    endloop
  endfacet
  facet normal -0.5547 0.83205 0
    outer loop
      vertex 2 10 0
      vertex 2 10 3
      vertex 5 12 3
    endloop
  endfacet
  facet normal -0.948683 0.316228 0
    outer loop
      vertex 1 7 0
      vertex 2 10 3
      vertex 2 10 0
    endloop
  endfacet
  facet normal -0.948683 0.316228 0
    outer loop
      vertex 1 7 0
      vertex 1 7 3
      vertex 2 10 3
    endloop
  endfacet
  facet normal -0.894427 0.447214 0
    outer loop
      vertex -1 3 0
      vertex 1 7 3
      vertex 1 7 0
    endloop
  endfacet
  facet normal -0.894427 0.447214 0
    outer loop
      vertex -1 3 0
      vertex -1 3 3
      vertex 1 7 3
    endloop
  endfacet
  facet normal -0.948683 -0.316228 0
    outer loop
      vertex 0 0 0
      vertex -1 3 3
      vertex -1 3 0
    endloop
  endfacet
  facet normal -0.948683 -0.316228 0
    outer loop
      vertex 0 0 0
      vertex 0 0 3
      vertex -1 3 3
    endloop
  endfacet
  facet normal 0 -1 0
    outer loop
      vertex 10 0 0
      vertex 0 0 3
      vertex 0 0 0
    endloop
  endfacet
  facet normal 0 -1 0
    outer loop
      vertex 10 0 0
      vertex 10 0 3
      vertex 0 0 3
    endloop
  endfacet
  facet normal 0.707107 -0.707107 0
    outer loop
      vertex 12 2 0
      vertex 10 0 3
      vertex 10 0 0
    endloop
  endfacet
  facet normal 0.707107 -0.707107 0
    outer loop
      vertex 12 2 0
      vertex 12 2 3
      vertex 10 0 3
    endloop
  endfacet
endsolid OpenSCAD_Model
